<svg width="42" height="42" viewBox="0 0 42 42" fill="none" xmlns="http://www.w3.org/2000/svg">
<g id="AWS Advanced Tier Services Partner 1" clip-path="url(#clip0_15837_43656)">
<g id="Layer 1">
<g id="Group">
<path id="Vector" d="M28.21 0.877333L41.1273 13.7947V41.1273H13.65L0.877333 28.35V0.877333H28.21ZM28.56 0H0V28.7L13.3 42H42V13.44L28.56 0Z" fill="#99A5B8"/>
<path id="Vector_2" d="M6.82265 23.6598V25.1998H5.94531V20.9998H7.55531C7.93798 20.9671 8.28798 21.1071 8.60531 21.3498C9.12798 21.9098 9.12798 22.7498 8.60531 23.3098C8.32531 23.5571 7.93798 23.6925 7.55531 23.6598H6.82265ZM6.82265 22.9925H7.45265C7.62998 22.9925 7.80265 22.9598 7.90531 22.8151C8.11531 22.5351 8.11531 22.1151 7.90531 21.8351C7.76531 21.7278 7.62531 21.6578 7.45265 21.6578H6.82265V22.9878V22.9925ZM12.6653 25.1998L12.3853 24.2571H10.9526L10.6726 25.1998H9.72998L11.2 20.9998H12.2173L13.65 25.1998H12.67H12.6653ZM11.1253 23.5898H12.1753L11.6526 21.8398L11.13 23.5898H11.1253ZM14.9053 25.1998V20.9998H16.5153C16.9026 20.9671 17.2526 21.1071 17.5653 21.3498C17.8126 21.5925 17.9526 21.9425 17.9526 22.2925C17.9526 22.5398 17.8826 22.7498 17.7426 22.9598C17.6026 23.1698 17.3926 23.3098 17.1826 23.4171L18.2326 25.2371H17.29L16.38 23.5945H15.7826V25.2045H14.9053V25.1998ZM15.7826 22.9225H16.4126C16.73 22.9551 17.0053 22.7451 17.0426 22.4325V22.2551C17.08 21.9378 16.8653 21.6625 16.59 21.6251H15.82V22.9178H15.7873L15.7826 22.9225ZM20.3653 25.1998V21.7325H19.0726V20.9998H22.54V21.7325H21.2426V25.1998H20.37H20.3653ZM24.738 22.2925V25.1998H23.9353V20.9998H24.9153L26.6326 23.9398V20.9998H27.44V25.1998H26.46L24.7426 22.2925H24.738ZM29.0453 25.1998V20.9998H31.8126V21.6998H29.9553V22.6798H31.4626V23.3798H29.9553V24.4998H31.8126V25.1998H29.0453ZM33.4226 25.1998V20.9998H35.0326C35.4153 20.9671 35.7653 21.1071 36.0826 21.3498C36.33 21.5925 36.4653 21.9425 36.4653 22.2925C36.4653 22.5398 36.3953 22.7498 36.2553 22.9598C36.1153 23.1698 35.9053 23.3098 35.6953 23.4171L36.7453 25.2371H35.8026L34.8926 23.5945H34.3V25.2045H33.4226V25.1998ZM34.3 22.9225H34.93C35.2426 22.9551 35.5226 22.7451 35.56 22.4325V22.2551C35.5926 21.9378 35.3827 21.6625 35.1073 21.6251H34.3V22.9178V22.9225Z" fill="#99A5B8"/>
<path id="Vector_3" d="M9.34092 9.62244C9.34092 9.76244 9.34092 9.90244 9.41092 10.0424C9.44358 10.1498 9.51358 10.2898 9.55092 10.3924C9.58358 10.4298 9.58358 10.4624 9.58358 10.4998C9.58358 10.5698 9.55092 10.6071 9.47625 10.6398L9.15892 10.8498H9.05625C8.98625 10.8498 8.94892 10.8171 8.91625 10.7798C8.84625 10.7098 8.77625 10.6398 8.73892 10.5698C8.70625 10.4998 8.63158 10.3924 8.59892 10.2898C8.24892 10.7098 7.75892 10.9571 7.19892 10.9571C6.84892 10.9898 6.49892 10.8498 6.25625 10.6071C6.00892 10.3598 5.90625 10.0471 5.90625 9.69711C5.90625 9.31444 6.04625 8.96444 6.32625 8.71711C6.64358 8.46977 7.05892 8.33444 7.48358 8.33444C7.66092 8.33444 7.83358 8.33444 7.97358 8.36711L8.49625 8.46977V8.11977C8.52892 7.83977 8.45892 7.55977 8.28625 7.34977C8.07625 7.17244 7.79625 7.10711 7.51625 7.13977C7.33892 7.13977 7.16625 7.17244 6.99358 7.20977C6.82092 7.24711 6.64358 7.31711 6.47092 7.38711C6.40092 7.41977 6.36358 7.41977 6.29358 7.45711H6.22358C6.15358 7.45711 6.11625 7.41977 6.11625 7.31711V7.06977C6.11625 6.99977 6.11625 6.96711 6.14892 6.89244C6.18158 6.85977 6.21892 6.82244 6.28892 6.78977C6.46625 6.68244 6.67158 6.61244 6.88158 6.57977C7.12892 6.50977 7.37158 6.47244 7.61892 6.47244C8.07158 6.43977 8.49625 6.57977 8.84158 6.85511C9.12158 7.17244 9.26158 7.58777 9.22425 8.01244L9.32692 9.62244H9.34092ZM7.41825 10.3224C7.59558 10.3224 7.73558 10.2898 7.90825 10.2524C8.08558 10.1824 8.22558 10.0751 8.36558 9.93511C8.43558 9.86511 8.50558 9.75777 8.54292 9.61777C8.58025 9.47777 8.57558 9.33777 8.57558 9.19777V8.98777C8.43558 8.95511 8.29558 8.91777 8.15558 8.91777C8.01558 8.88511 7.87558 8.88511 7.69825 8.88511C7.45558 8.85244 7.20825 8.91777 6.99825 9.06244C6.71825 9.34244 6.68092 9.79511 6.92825 10.1124C7.06825 10.2898 7.24092 10.3551 7.41825 10.3224ZM11.2356 10.8451C11.1656 10.8451 11.0956 10.8451 11.0583 10.8124C11.0256 10.7798 10.9882 10.7051 10.9556 10.6351L9.83558 6.95777C9.80292 6.88777 9.80292 6.81777 9.80292 6.78044C9.80292 6.71044 9.83558 6.67311 9.87292 6.67311H10.3629C10.4329 6.67311 10.5029 6.67311 10.5403 6.70577C10.5729 6.74311 10.6102 6.81311 10.6476 6.88311L11.4503 10.0004L12.1876 6.88311C12.1876 6.81311 12.2203 6.74311 12.2903 6.70577C12.3602 6.67311 12.4302 6.67311 12.4676 6.67311H12.8503C12.9203 6.67311 12.9903 6.67311 13.0276 6.70577C13.0649 6.74311 13.0976 6.81311 13.1349 6.88311L13.8676 10.0704L14.6749 6.88311C14.6749 6.81311 14.7076 6.74311 14.7776 6.70577C14.8476 6.67311 14.8849 6.67311 14.9549 6.67311H15.4122C15.4822 6.67311 15.5196 6.70577 15.5196 6.74311V6.84577C15.5196 6.87844 15.4823 6.91577 15.4823 6.95311L14.3623 10.5931C14.3623 10.6631 14.3296 10.7331 14.2549 10.7704C14.2222 10.8404 14.1523 10.8404 14.0776 10.8404H13.6576C13.5876 10.8404 13.5176 10.8404 13.4802 10.8078C13.4476 10.7378 13.4103 10.7004 13.3729 10.6304L12.6403 7.58311L11.9076 10.6304C11.9076 10.7004 11.8749 10.7704 11.8003 10.8078C11.7676 10.8404 11.6976 10.8404 11.6603 10.8404H11.2403L11.2356 10.8451ZM17.3256 10.9851C17.0829 10.9851 16.8356 10.9524 16.5929 10.9151C16.4156 10.8824 16.2103 10.8124 16.0329 10.7378C15.9256 10.7051 15.8556 10.5978 15.8556 10.4578V10.2104C15.8556 10.1078 15.8883 10.0704 15.9583 10.0704H16.0282C16.0609 10.0704 16.0983 10.1031 16.1309 10.1031C16.3083 10.1731 16.4809 10.2431 16.6536 10.2804C16.8309 10.3131 17.0363 10.3504 17.2136 10.3504C17.4609 10.3504 17.7036 10.3178 17.9136 10.1731C18.0536 10.0704 18.1609 9.89311 18.1609 9.72044C18.1609 9.58044 18.1282 9.47311 18.0209 9.40311C17.8809 9.29577 17.7036 9.19311 17.5309 9.15577L16.8309 8.94577C16.5509 8.87577 16.2709 8.70311 16.0609 8.45577C15.9209 8.24577 15.8136 8.00311 15.8136 7.75577C15.8136 7.57844 15.8509 7.40577 15.9536 7.23311C16.0236 7.09311 16.1636 6.95311 16.3036 6.85044C16.4436 6.74777 16.6209 6.64044 16.7936 6.60777C17.0036 6.53777 17.1762 6.53777 17.3862 6.53777C17.4936 6.53777 17.5962 6.53777 17.7036 6.57511C17.8109 6.57511 17.9136 6.60777 18.0209 6.64511C18.1282 6.68244 18.1983 6.67777 18.3009 6.71511C18.3709 6.75244 18.4409 6.75244 18.5109 6.78511C18.5809 6.81777 18.6136 6.85511 18.6509 6.88777C18.6836 6.92511 18.6836 6.99511 18.6836 7.06511V7.27511C18.6836 7.37777 18.6509 7.41511 18.5763 7.41511C18.5016 7.41511 18.4363 7.38244 18.3989 7.34511C18.1189 7.20511 17.8062 7.16777 17.4889 7.16777C17.2789 7.16777 17.0689 7.20044 16.8589 7.30777C16.7189 7.37777 16.6163 7.55044 16.6489 7.72777C16.6489 7.86777 16.6816 7.97511 16.7889 8.07777C16.9289 8.21777 17.1062 8.28777 17.3116 8.32511L17.9789 8.53511C18.2589 8.60511 18.5016 8.77777 18.7116 8.98777C18.8516 9.16511 18.9216 9.40777 18.9216 9.65511C18.9216 9.83244 18.8889 10.0378 18.7816 10.2151C18.7116 10.3924 18.5716 10.5324 18.4316 10.6351C18.2916 10.7378 18.0816 10.8451 17.9089 10.9151C17.7689 10.9524 17.5263 10.9851 17.3163 10.9851H17.3256Z" fill="#99A5B8"/>
<path id="Vector_4" d="M18.1991 13.2675C16.6218 14.4201 14.3818 15.0175 12.4218 15.0175C9.83179 15.0175 7.31179 14.0701 5.38912 12.3201C5.24912 12.1801 5.38912 12.0075 5.56645 12.1101C7.69912 13.3701 10.1491 14.0001 12.5991 14.0001C14.4565 14.0001 16.2765 13.6175 17.9891 12.9175C18.2318 12.8101 18.4791 13.0948 18.1991 13.2675ZM18.4418 14.3175C18.3718 14.4575 18.5118 14.5275 18.6518 14.4201C19.4918 13.7201 19.7018 12.2501 19.5291 12.0401C19.3518 11.8301 17.8818 11.6575 17.0091 12.2828C16.8691 12.3901 16.9065 12.5301 17.0418 12.4928C17.5318 12.4228 18.6518 12.2828 18.8618 12.5628C19.0718 12.8428 18.6145 13.8555 18.4418 14.3128V14.3175Z" fill="#717C8C"/>
<path id="Vector_5" d="M15.7452 29.0502L15.5446 28.4435H14.6159L14.4199 29.0502H13.9766L14.8586 26.6235H15.3252L16.2072 29.0502H15.7546H15.7452ZM14.7139 28.1309H15.4466L15.0779 27.0109L14.7139 28.1309Z" fill="#99A5B8"/>
<path id="Vector_6" d="M17.7206 29.05L17.6786 28.882C17.52 29.022 17.3333 29.092 17.128 29.092C16.904 29.092 16.7266 29.008 16.5913 28.8446C16.456 28.6766 16.3906 28.4526 16.3906 28.168C16.3906 27.9813 16.4186 27.818 16.484 27.6733C16.5446 27.5333 16.6333 27.4213 16.7453 27.342C16.8573 27.2626 16.9926 27.2206 17.1513 27.2206C17.338 27.2206 17.5106 27.2813 17.6646 27.4026V26.46H18.0753V29.05H17.7253H17.7206ZM17.254 28.7653C17.394 28.7653 17.5293 28.7186 17.66 28.63V27.6686C17.5386 27.5846 17.408 27.5426 17.2586 27.5426C17.1093 27.5426 16.9926 27.594 16.9133 27.6966C16.8386 27.7946 16.806 27.9486 16.806 28.1493C16.806 28.56 16.9553 28.77 17.254 28.77V28.7653Z" fill="#99A5B8"/>
<path id="Vector_7" d="M19.0391 29.0502L18.3438 27.2676H18.7871L19.2397 28.6769L19.7018 27.2676H20.1217L19.4404 29.0502H19.0391Z" fill="#99A5B8"/>
<path id="Vector_8" d="M21.4371 29.0498L21.4044 28.8818C21.3204 28.9518 21.2271 29.0031 21.1291 29.0451C21.0311 29.0871 20.9331 29.1058 20.8351 29.1058C20.6717 29.1058 20.5364 29.0544 20.4384 28.9564C20.3404 28.8584 20.2891 28.7324 20.2891 28.5738C20.2891 28.4011 20.3497 28.2658 20.4757 28.1631C20.5971 28.0558 20.7651 28.0044 20.9797 28.0044C21.1011 28.0044 21.2364 28.0231 21.3857 28.0604V27.8551C21.3857 27.7338 21.3624 27.6544 21.3111 27.6078C21.2597 27.5611 21.1711 27.5378 21.0451 27.5378C20.8631 27.5378 20.6531 27.5751 20.4151 27.6544V27.3651C20.5037 27.3231 20.6064 27.2858 20.7324 27.2624C20.8537 27.2391 20.9797 27.2251 21.1104 27.2251C21.3344 27.2251 21.5024 27.2718 21.6144 27.3651C21.7217 27.4584 21.7777 27.5984 21.7777 27.7991V29.0544H21.4464L21.4371 29.0498ZM20.9517 28.8071C21.0217 28.8071 21.0917 28.7931 21.1664 28.7651C21.2411 28.7371 21.3157 28.6951 21.3857 28.6391V28.3031C21.2644 28.2798 21.1524 28.2658 21.0591 28.2658C20.8164 28.2658 20.6904 28.3591 20.6904 28.5458C20.6904 28.6298 20.7137 28.6951 20.7604 28.7418C20.8071 28.7838 20.8724 28.8071 20.9517 28.8071Z" fill="#99A5B8"/>
<path id="Vector_9" d="M23.4463 29.05V27.8694C23.4463 27.7574 23.423 27.6734 23.3763 27.622C23.3296 27.566 23.2503 27.5427 23.1523 27.5427C22.9983 27.5427 22.8443 27.594 22.681 27.6967V29.0547H22.2656V27.272H22.611L22.6483 27.468C22.8676 27.3047 23.101 27.2207 23.339 27.2207C23.5116 27.2207 23.6376 27.2674 23.7263 27.356C23.815 27.4447 23.857 27.5707 23.857 27.7434V29.05H23.4463Z" fill="#99A5B8"/>
<path id="Vector_10" d="M25.6018 28.98C25.4618 29.0546 25.2985 29.0873 25.1118 29.0873C24.8365 29.0873 24.6265 29.008 24.4771 28.854C24.3325 28.6953 24.2578 28.4713 24.2578 28.1773C24.2578 27.8833 24.3325 27.6453 24.4865 27.482C24.6405 27.314 24.8505 27.23 25.1258 27.23C25.2891 27.23 25.4478 27.2673 25.5925 27.3326V27.6266C25.4338 27.58 25.3031 27.5566 25.1911 27.5566C25.0138 27.5566 24.8878 27.6033 24.8038 27.6966C24.7198 27.79 24.6778 27.9393 24.6778 28.14V28.182C24.6778 28.378 24.7198 28.5273 24.8038 28.6206C24.8878 28.714 25.0185 28.756 25.1911 28.756C25.3125 28.756 25.4525 28.7326 25.6018 28.686V28.9753V28.98Z" fill="#99A5B8"/>
<path id="Vector_11" d="M26.2655 28.2565C26.2748 28.4338 26.3215 28.5645 26.4148 28.6485C26.5081 28.7278 26.6528 28.7698 26.8395 28.7698C27.0168 28.7698 27.2035 28.7418 27.4041 28.6765V28.9658C27.3248 29.0078 27.2268 29.0405 27.1195 29.0638C27.0121 29.0918 26.8955 29.1012 26.7788 29.1012C26.4895 29.1012 26.2655 29.0218 26.1115 28.8678C25.9575 28.7092 25.8828 28.4758 25.8828 28.1678C25.8828 27.8598 25.9575 27.6358 26.1068 27.4678C26.2561 27.2998 26.4615 27.2158 26.7321 27.2158C26.9608 27.2158 27.1335 27.2765 27.2548 27.4025C27.3761 27.5238 27.4415 27.7012 27.4415 27.9345C27.4415 28.0558 27.4321 28.1632 27.4088 28.2565H26.2655ZM26.7088 27.5192C26.5828 27.5192 26.4801 27.5612 26.4008 27.6452C26.3215 27.7292 26.2748 27.8412 26.2655 27.9858H27.0728V27.9578C27.0728 27.8178 27.0401 27.7058 26.9795 27.6358C26.9141 27.5612 26.8255 27.5192 26.7088 27.5192Z" fill="#99A5B8"/>
<path id="Vector_12" d="M29.0839 29.05L29.0419 28.882C28.8832 29.022 28.6966 29.092 28.4912 29.092C28.2672 29.092 28.0899 29.008 27.9546 28.8446C27.8192 28.6766 27.7539 28.4526 27.7539 28.168C27.7539 27.9813 27.7819 27.818 27.8472 27.6733C27.9079 27.5333 27.9966 27.4213 28.1086 27.342C28.2206 27.2626 28.3559 27.2206 28.5146 27.2206C28.7012 27.2206 28.8739 27.2813 29.0279 27.4026V26.46H29.4386V29.05H29.0886H29.0839ZM28.6172 28.7653C28.7572 28.7653 28.8926 28.7186 29.0232 28.63V27.6686C28.9019 27.5846 28.7712 27.5426 28.6219 27.5426C28.4726 27.5426 28.3559 27.594 28.2766 27.6966C28.2019 27.7946 28.1692 27.9486 28.1692 28.1493C28.1692 28.56 28.3186 28.77 28.6172 28.77V28.7653Z" fill="#99A5B8"/>
<path id="Vector_13" d="M31.413 29.0502V26.9735H30.6523V26.6235H32.5983V26.9735H31.8377V29.0502H31.413Z" fill="#99A5B8"/>
<path id="Vector_14" d="M32.9139 29.05V27.2673H33.3245V29.05H32.9139ZM33.1145 26.9733C33.0399 26.9733 32.9792 26.9547 32.9325 26.9127C32.8905 26.8707 32.8672 26.81 32.8672 26.7353C32.8672 26.6607 32.8905 26.6 32.9325 26.558C32.9745 26.516 33.0352 26.4927 33.1145 26.4927C33.1939 26.4927 33.2592 26.516 33.3012 26.558C33.3432 26.6 33.3665 26.656 33.3665 26.7353C33.3665 26.8147 33.3432 26.866 33.3012 26.9127C33.2592 26.9547 33.1939 26.9733 33.1145 26.9733Z" fill="#99A5B8"/>
<path id="Vector_15" d="M34.1327 28.2565C34.1373 28.4338 34.1887 28.5645 34.282 28.6485C34.3753 28.7278 34.52 28.7698 34.7067 28.7698C34.884 28.7698 35.0707 28.7418 35.2713 28.6765V28.9658C35.192 29.0078 35.094 29.0405 34.9867 29.0638C34.8747 29.0918 34.7627 29.1012 34.646 29.1012C34.3567 29.1012 34.1327 29.0218 33.9787 28.8678C33.8247 28.7092 33.75 28.4758 33.75 28.1678C33.75 27.8598 33.8247 27.6358 33.974 27.4678C34.1233 27.2998 34.3287 27.2158 34.5993 27.2158C34.8233 27.2158 35.0007 27.2765 35.122 27.4025C35.2433 27.5238 35.3087 27.7012 35.3087 27.9345C35.3087 28.0558 35.2993 28.1632 35.276 28.2565H34.1327ZM34.576 27.5192C34.45 27.5192 34.3473 27.5612 34.268 27.6452C34.1887 27.7292 34.142 27.8412 34.1327 27.9858H34.94V27.9578C34.94 27.8178 34.9073 27.7058 34.8467 27.6358C34.7813 27.5612 34.6927 27.5192 34.5713 27.5192H34.576Z" fill="#99A5B8"/>
<path id="Vector_16" d="M35.7109 29.0501V27.2674H36.0563L36.1123 27.5334C36.2056 27.4308 36.2943 27.3608 36.3736 27.3188C36.4529 27.2768 36.5416 27.2534 36.6396 27.2534C36.6816 27.2534 36.7283 27.2534 36.7796 27.2627V27.6408C36.7143 27.6314 36.6443 27.6268 36.5789 27.6268C36.4063 27.6268 36.2569 27.6688 36.1263 27.7574V29.0501H35.7109Z" fill="#99A5B8"/>
<path id="Vector_17" d="M24.7678 31.4344C24.5718 31.3598 24.4271 31.2711 24.3338 31.1684C24.2451 31.0611 24.2031 30.9351 24.2031 30.7811C24.2031 30.5618 24.2778 30.3891 24.4318 30.2631C24.5858 30.1371 24.7911 30.0718 25.0478 30.0718C25.2625 30.0718 25.4818 30.1138 25.7058 30.1978V30.5384C25.4771 30.4684 25.2718 30.4358 25.0805 30.4358C24.7725 30.4358 24.6138 30.5384 24.6138 30.7484C24.6138 30.8278 24.6418 30.8931 24.6978 30.9444C24.7538 30.9958 24.8565 31.0471 24.9965 31.0984L25.2951 31.2058C25.4865 31.2804 25.6265 31.3644 25.7151 31.4671C25.8038 31.5698 25.8458 31.7004 25.8458 31.8591C25.8458 32.0924 25.7618 32.2791 25.5938 32.4098C25.4305 32.5451 25.2018 32.6104 24.9171 32.6104C24.7911 32.6104 24.6698 32.5964 24.5438 32.5731C24.4225 32.5498 24.3105 32.5124 24.2218 32.4704V32.1298C24.3338 32.1671 24.4551 32.1951 24.5765 32.2184C24.7025 32.2418 24.8191 32.2511 24.9171 32.2511C25.0805 32.2511 25.2065 32.2231 25.2951 32.1624C25.3838 32.1018 25.4305 32.0131 25.4305 31.9058C25.4305 31.8264 25.4025 31.7611 25.3465 31.7098C25.2951 31.6584 25.2018 31.6118 25.0665 31.5558L24.7538 31.4344H24.7678Z" fill="#99A5B8"/>
<path id="Vector_18" d="M26.5702 31.7565C26.5748 31.9338 26.6262 32.0645 26.7195 32.1485C26.8128 32.2278 26.9575 32.2698 27.1442 32.2698C27.3215 32.2698 27.5082 32.2418 27.7088 32.1765V32.4658C27.6295 32.5078 27.5315 32.5405 27.4242 32.5638C27.3168 32.5872 27.2002 32.6012 27.0835 32.6012C26.7942 32.6012 26.5702 32.5218 26.4162 32.3678C26.2622 32.2092 26.1875 31.9758 26.1875 31.6678C26.1875 31.3598 26.2622 31.1358 26.4115 30.9678C26.5608 30.7998 26.7662 30.7158 27.0368 30.7158C27.2608 30.7158 27.4382 30.7765 27.5595 30.9025C27.6808 31.0238 27.7462 31.2012 27.7462 31.4345C27.7462 31.5558 27.7368 31.6632 27.7135 31.7565H26.5702ZM27.0135 31.0192C26.8875 31.0192 26.7848 31.0612 26.7055 31.1452C26.6262 31.2292 26.5795 31.3412 26.5702 31.4858H27.3775V31.4578C27.3775 31.3178 27.3448 31.2058 27.2842 31.1358C27.2188 31.0612 27.1302 31.0192 27.0088 31.0192H27.0135Z" fill="#99A5B8"/>
<path id="Vector_19" d="M28.1484 32.5501V30.7674H28.4938L28.5498 31.0334C28.6431 30.9308 28.7318 30.8608 28.8111 30.8188C28.8904 30.7768 28.9791 30.7534 29.0818 30.7534C29.1238 30.7534 29.1704 30.7534 29.2218 30.7627V31.1408C29.1564 31.1314 29.0864 31.1267 29.0211 31.1267C28.8484 31.1267 28.6991 31.1688 28.5684 31.2574V32.5501H28.1531H28.1484Z" fill="#99A5B8"/>
<path id="Vector_20" d="M29.9649 32.5502L29.2695 30.7676H29.7129L30.1655 32.1769L30.6229 30.7676H31.0429L30.3615 32.5502H29.9602H29.9649Z" fill="#99A5B8"/>
<path id="Vector_21" d="M31.3357 32.55V30.7673H31.7464V32.55H31.3357ZM31.5364 30.4733C31.4617 30.4733 31.4011 30.4547 31.3544 30.4127C31.3124 30.3707 31.2891 30.31 31.2891 30.2353C31.2891 30.1607 31.3124 30.1 31.3544 30.058C31.3964 30.016 31.4571 29.9927 31.5364 29.9927C31.6157 29.9927 31.6811 30.016 31.7231 30.058C31.7651 30.1 31.7884 30.156 31.7884 30.2353C31.7884 30.3147 31.7651 30.366 31.7231 30.4127C31.6811 30.4547 31.6157 30.4733 31.5364 30.4733Z" fill="#99A5B8"/>
<path id="Vector_22" d="M33.5198 32.48C33.3798 32.5546 33.2164 32.5873 33.0298 32.5873C32.7544 32.5873 32.5444 32.508 32.3951 32.354C32.2504 32.1953 32.1758 31.9713 32.1758 31.6773C32.1758 31.3833 32.2505 31.1453 32.4045 30.982C32.5585 30.814 32.7731 30.73 33.0438 30.73C33.2071 30.73 33.3658 30.7673 33.5104 30.8326V31.1266C33.3518 31.08 33.2211 31.0566 33.1091 31.0566C32.9318 31.0566 32.8058 31.1033 32.7218 31.1966C32.6378 31.29 32.5958 31.4393 32.5958 31.64V31.682C32.5958 31.878 32.6378 32.0273 32.7218 32.1206C32.8058 32.214 32.9364 32.256 33.1091 32.256C33.2304 32.256 33.3704 32.2326 33.5198 32.186V32.4753V32.48Z" fill="#99A5B8"/>
<path id="Vector_23" d="M34.1795 31.7565C34.1889 31.9338 34.2355 32.0645 34.3289 32.1485C34.4222 32.2278 34.5669 32.2698 34.7535 32.2698C34.9309 32.2698 35.1175 32.2418 35.3182 32.1765V32.4658C35.2389 32.5078 35.1409 32.5405 35.0335 32.5638C34.9262 32.5872 34.8095 32.6012 34.6929 32.6012C34.3989 32.6012 34.1795 32.5218 34.0255 32.3678C33.8715 32.2092 33.7969 31.9758 33.7969 31.6678C33.7969 31.3598 33.8715 31.1358 34.0209 30.9678C34.1702 30.7998 34.3802 30.7158 34.6462 30.7158C34.8749 30.7158 35.0475 30.7765 35.1689 30.9025C35.2902 31.0238 35.3555 31.2012 35.3555 31.4345C35.3555 31.5558 35.3462 31.6632 35.3229 31.7565H34.1795ZM34.6229 31.0192C34.5015 31.0192 34.3942 31.0612 34.3149 31.1452C34.2355 31.2292 34.1889 31.3412 34.1795 31.4858H34.9915V31.4578C34.9915 31.3178 34.9589 31.2058 34.8982 31.1358C34.8329 31.0612 34.7442 31.0192 34.6229 31.0192Z" fill="#99A5B8"/>
<path id="Vector_24" d="M36.5576 32.0691C36.5576 32.0178 36.5389 31.9758 36.5062 31.9431C36.4736 31.9104 36.4129 31.8778 36.3242 31.8451L36.0349 31.7378C35.7736 31.6351 35.6429 31.4718 35.6429 31.2478C35.6429 31.0844 35.7036 30.9584 35.8249 30.8651C35.9509 30.7718 36.1096 30.7251 36.3102 30.7251C36.5109 30.7251 36.6836 30.7624 36.8329 30.8371V31.1264C36.6556 31.0704 36.4876 31.0378 36.3336 31.0378C36.2262 31.0378 36.1516 31.0518 36.1002 31.0891C36.0489 31.1218 36.0256 31.1684 36.0256 31.2384C36.0256 31.2898 36.0442 31.3318 36.0816 31.3644C36.1142 31.3924 36.1796 31.4298 36.2729 31.4671L36.5482 31.5698C36.6882 31.6258 36.7862 31.6911 36.8469 31.7658C36.9076 31.8404 36.9402 31.9338 36.9402 32.0458C36.9402 32.2231 36.8749 32.3631 36.7489 32.4611C36.6229 32.5638 36.4502 32.6151 36.2262 32.6151C36.1189 32.6151 36.0116 32.6011 35.9042 32.5778C35.8016 32.5544 35.7129 32.5218 35.6289 32.4798V32.1904C35.8529 32.2651 36.0489 32.2978 36.2262 32.2978C36.3429 32.2978 36.4269 32.2791 36.4782 32.2418C36.5342 32.2091 36.5622 32.1531 36.5622 32.0784L36.5576 32.0691Z" fill="#99A5B8"/>
</g>
</g>
</g>
<defs>
<clipPath id="clip0_15837_43656">
<rect width="42" height="42" fill="white"/>
</clipPath>
</defs>
</svg>
