<?xml version="1.0" encoding="UTF-8"?>
<svg xmlns="http://www.w3.org/2000/svg" width="400" height="400" viewBox="0 0 400 400" fill="none">
  <path d="M38.1523 113.698L199.727 26.9753L362.039 113.328V285.85L199.911 373.034L38.1523 288.158V113.698Z" fill="white"></path>
  <path fill-rule="evenodd" clip-rule="evenodd" d="M32 110.018L199.714 20L368.191 109.633V289.527L199.946 380L32 291.878V110.018ZM38.1521 288.159V113.698L199.726 26.9754L362.039 113.328V285.85L199.911 373.034L38.1521 288.159Z" fill="#1B71A0"></path>
  <path d="M276.32 268.405L271.181 278.345V283.251H267.565V278.345L262.426 268.405H266.528L269.405 274.623L272.26 268.405H276.32Z" fill="#1B71A0"></path>
  <path d="M256.698 268.405V271.302H252.765V283.251H249.148V271.302H245.215V268.405H256.698Z" fill="#1B71A0"></path>
  <path d="M234.483 280.459H239.221V283.251H230.867V268.405H234.483V280.459Z" fill="#1B71A0"></path>
  <path d="M219.441 280.629H213.9L213.012 283.251H209.227L214.598 268.405H218.785L224.157 283.251H220.329L219.441 280.629ZM218.511 277.837L216.671 272.402L214.852 277.837H218.511Z" fill="#1B71A0"></path>
  <path d="M202.503 268.405V283.251H198.887V268.405H202.503Z" fill="#1B71A0"></path>
  <path d="M177.09 275.807C177.09 274.341 177.407 273.036 178.042 271.894C178.676 270.738 179.557 269.843 180.685 269.209C181.827 268.56 183.117 268.236 184.555 268.236C186.317 268.236 187.826 268.701 189.081 269.632C190.336 270.562 191.174 271.831 191.597 273.438H187.622C187.325 272.818 186.903 272.346 186.353 272.021C185.817 271.697 185.204 271.535 184.513 271.535C183.399 271.535 182.497 271.923 181.806 272.698C181.115 273.473 180.77 274.51 180.77 275.807C180.77 277.104 181.115 278.14 181.806 278.916C182.497 279.691 183.399 280.079 184.513 280.079C185.204 280.079 185.817 279.917 186.353 279.592C186.903 279.268 187.325 278.796 187.622 278.175H191.597C191.174 279.783 190.336 281.052 189.081 281.982C187.826 282.898 186.317 283.357 184.555 283.357C183.117 283.357 181.827 283.039 180.685 282.405C179.557 281.756 178.676 280.861 178.042 279.719C177.407 278.577 177.09 277.273 177.09 275.807Z" fill="#1B71A0"></path>
  <path d="M164.8 271.302V274.305H169.643V277.097H164.8V280.354H170.277V283.251H161.184V268.405H170.277V271.302H164.8Z" fill="#1B71A0"></path>
  <path d="M154.224 273.184C154.224 274.044 154.027 274.834 153.632 275.553C153.237 276.258 152.631 276.829 151.813 277.266C150.996 277.703 149.981 277.922 148.768 277.922H146.526V283.251H142.91V268.405H148.768C149.952 268.405 150.953 268.609 151.771 269.018C152.589 269.427 153.202 269.991 153.611 270.71C154.02 271.429 154.224 272.254 154.224 273.184ZM148.493 275.046C149.184 275.046 149.699 274.883 150.037 274.559C150.375 274.235 150.545 273.777 150.545 273.184C150.545 272.592 150.375 272.134 150.037 271.81C149.699 271.486 149.184 271.323 148.493 271.323H146.526V275.046H148.493Z" fill="#1B71A0"></path>
  <path d="M130.197 283.399C129.111 283.399 128.138 283.223 127.278 282.87C126.418 282.518 125.728 281.996 125.206 281.305C124.698 280.615 124.431 279.783 124.402 278.81H128.251C128.308 279.36 128.498 279.783 128.822 280.079C129.147 280.361 129.57 280.502 130.091 280.502C130.627 280.502 131.05 280.382 131.36 280.142C131.67 279.888 131.825 279.543 131.825 279.106C131.825 278.739 131.698 278.436 131.445 278.197C131.205 277.957 130.902 277.76 130.535 277.604C130.183 277.449 129.675 277.273 129.013 277.076C128.054 276.78 127.271 276.484 126.665 276.188C126.059 275.891 125.537 275.454 125.1 274.876C124.663 274.298 124.445 273.544 124.445 272.614C124.445 271.232 124.945 270.153 125.946 269.378C126.947 268.588 128.251 268.194 129.859 268.194C131.494 268.194 132.812 268.588 133.813 269.378C134.814 270.153 135.35 271.239 135.42 272.635H131.508C131.48 272.155 131.304 271.782 130.979 271.514C130.655 271.232 130.239 271.091 129.732 271.091C129.295 271.091 128.942 271.211 128.674 271.45C128.406 271.676 128.272 272.007 128.272 272.444C128.272 272.924 128.498 273.297 128.949 273.565C129.4 273.833 130.105 274.122 131.064 274.432C132.023 274.757 132.798 275.067 133.39 275.363C133.996 275.659 134.518 276.089 134.955 276.653C135.392 277.217 135.611 277.943 135.611 278.831C135.611 279.677 135.392 280.445 134.955 281.136C134.532 281.827 133.912 282.377 133.094 282.786C132.276 283.195 131.311 283.399 130.197 283.399Z" fill="#1B71A0"></path>
  <path d="M132.778 208.306C130.903 208.306 129.223 208.002 127.737 207.393C126.252 206.784 125.059 205.883 124.158 204.69C123.281 203.497 122.818 202.06 122.77 200.38H129.418C129.515 201.329 129.844 202.06 130.404 202.571C130.964 203.058 131.695 203.302 132.596 203.302C133.521 203.302 134.252 203.095 134.787 202.681C135.323 202.242 135.591 201.646 135.591 200.891C135.591 200.258 135.372 199.734 134.933 199.32C134.519 198.906 133.996 198.565 133.363 198.297C132.754 198.03 131.877 197.725 130.733 197.384C129.077 196.873 127.725 196.361 126.678 195.85C125.631 195.339 124.73 194.584 123.975 193.585C123.22 192.587 122.843 191.284 122.843 189.677C122.843 187.29 123.707 185.427 125.436 184.088C127.165 182.724 129.418 182.042 132.194 182.042C135.019 182.042 137.296 182.724 139.025 184.088C140.754 185.427 141.679 187.302 141.801 189.713H135.043C134.994 188.885 134.69 188.24 134.13 187.777C133.57 187.29 132.851 187.047 131.975 187.047C131.22 187.047 130.611 187.254 130.148 187.668C129.686 188.057 129.454 188.63 129.454 189.384C129.454 190.212 129.844 190.858 130.623 191.32C131.402 191.783 132.62 192.282 134.276 192.818C135.932 193.378 137.271 193.914 138.294 194.425C139.341 194.937 140.242 195.68 140.997 196.654C141.752 197.628 142.13 198.882 142.13 200.416C142.13 201.877 141.752 203.204 140.997 204.398C140.267 205.591 139.195 206.541 137.783 207.247C136.37 207.953 134.702 208.306 132.778 208.306ZM165.188 197.53C165.188 198.115 165.151 198.724 165.078 199.357H150.941C151.039 200.623 151.441 201.597 152.147 202.279C152.877 202.937 153.766 203.265 154.813 203.265C156.372 203.265 157.456 202.608 158.065 201.293H164.713C164.372 202.632 163.751 203.838 162.85 204.909C161.973 205.981 160.865 206.821 159.526 207.43C158.186 208.038 156.689 208.343 155.033 208.343C153.036 208.343 151.258 207.917 149.7 207.064C148.141 206.212 146.923 204.994 146.047 203.411C145.17 201.828 144.732 199.978 144.732 197.859C144.732 195.74 145.158 193.89 146.01 192.307C146.887 190.724 148.104 189.506 149.663 188.654C151.222 187.802 153.011 187.375 155.033 187.375C157.005 187.375 158.759 187.789 160.293 188.617C161.827 189.445 163.02 190.626 163.873 192.161C164.749 193.695 165.188 195.485 165.188 197.53ZM158.795 195.887C158.795 194.815 158.43 193.963 157.699 193.33C156.969 192.696 156.055 192.38 154.96 192.38C153.912 192.38 153.024 192.684 152.293 193.293C151.587 193.902 151.148 194.766 150.978 195.887H158.795ZM167.241 197.859C167.241 195.74 167.667 193.89 168.519 192.307C169.396 190.724 170.601 189.506 172.136 188.654C173.694 187.802 175.472 187.375 177.469 187.375C180.026 187.375 182.157 188.045 183.861 189.384C185.59 190.724 186.723 192.611 187.258 195.046H180.61C180.05 193.488 178.966 192.709 177.359 192.709C176.215 192.709 175.301 193.159 174.62 194.06C173.938 194.937 173.597 196.203 173.597 197.859C173.597 199.515 173.938 200.794 174.62 201.695C175.301 202.571 176.215 203.01 177.359 203.01C178.966 203.01 180.05 202.23 180.61 200.672H187.258C186.723 203.058 185.59 204.933 183.861 206.297C182.132 207.661 180.001 208.343 177.469 208.343C175.472 208.343 173.694 207.917 172.136 207.064C170.601 206.212 169.396 204.994 168.519 203.411C167.667 201.828 167.241 199.978 167.241 197.859ZM210.727 187.668V208.05H204.48V205.274C203.847 206.175 202.983 206.906 201.887 207.466C200.815 208.002 199.622 208.27 198.307 208.27C196.749 208.27 195.373 207.929 194.179 207.247C192.986 206.541 192.061 205.53 191.403 204.215C190.746 202.9 190.417 201.354 190.417 199.576V187.668H196.627V198.736C196.627 200.099 196.98 201.159 197.686 201.914C198.392 202.669 199.342 203.046 200.535 203.046C201.753 203.046 202.715 202.669 203.421 201.914C204.127 201.159 204.48 200.099 204.48 198.736V187.668H210.727ZM221.46 191.065C222.19 189.945 223.104 189.068 224.199 188.435C225.295 187.777 226.513 187.448 227.852 187.448V194.06H226.135C224.577 194.06 223.408 194.401 222.629 195.083C221.849 195.74 221.46 196.909 221.46 198.59V208.05H215.213V187.668H221.46V191.065ZM233.979 185.549C232.883 185.549 231.982 185.232 231.276 184.599C230.594 183.942 230.253 183.138 230.253 182.188C230.253 181.214 230.594 180.411 231.276 179.778C231.982 179.12 232.883 178.791 233.979 178.791C235.051 178.791 235.928 179.12 236.609 179.778C237.316 180.411 237.669 181.214 237.669 182.188C237.669 183.138 237.316 183.942 236.609 184.599C235.928 185.232 235.051 185.549 233.979 185.549ZM237.084 187.668V208.05H230.838V187.668H237.084ZM252.971 202.754V208.05H249.793C247.529 208.05 245.763 207.503 244.497 206.407C243.23 205.287 242.597 203.472 242.597 200.964V192.855H240.113V187.668H242.597V182.7H248.844V187.668H252.935V192.855H248.844V201.037C248.844 201.646 248.99 202.084 249.282 202.352C249.574 202.62 250.061 202.754 250.743 202.754H252.971ZM277.272 187.668L264.487 217.731H257.766L262.441 207.356L254.149 187.668H261.126L265.838 200.416L270.514 187.668H277.272Z" fill="#1B71A0"></path>
  <path fill-rule="evenodd" clip-rule="evenodd" d="M315.385 148.096H84.6797V146.558H315.385V148.096Z" fill="#1B71A0"></path>
  <path fill-rule="evenodd" clip-rule="evenodd" d="M315.385 248.068H84.6797V246.53H315.385V248.068Z" fill="#1B71A0"></path>
  <path d="M238.5 122.457C238.5 120.949 238.805 119.631 239.415 118.5C240.025 117.352 240.86 116.473 241.918 115.862C242.995 115.234 244.206 114.92 245.552 114.92C246.844 114.92 248.01 115.234 249.051 115.862C250.092 116.49 250.854 117.307 251.339 118.312V109.914H253.223V129.832H251.339V126.548C250.89 127.571 250.154 128.414 249.132 129.078C248.109 129.724 246.907 130.047 245.525 130.047C244.179 130.047 242.968 129.733 241.891 129.105C240.833 128.477 239.998 127.589 239.388 126.44C238.796 125.292 238.5 123.964 238.5 122.457ZM251.339 122.484C251.339 121.299 251.097 120.259 250.612 119.361C250.128 118.464 249.464 117.773 248.62 117.289C247.795 116.804 246.88 116.562 245.875 116.562C244.834 116.562 243.901 116.795 243.076 117.262C242.25 117.729 241.595 118.41 241.111 119.308C240.644 120.187 240.411 121.237 240.411 122.457C240.411 123.659 240.644 124.718 241.111 125.633C241.595 126.53 242.25 127.221 243.076 127.705C243.901 128.172 244.834 128.405 245.875 128.405C246.88 128.405 247.795 128.163 248.62 127.678C249.464 127.194 250.128 126.503 250.612 125.606C251.097 124.709 251.339 123.668 251.339 122.484Z" fill="#1B71A0"></path>
  <path d="M235.646 121.73C235.646 122.376 235.628 122.869 235.592 123.21H223.399C223.453 124.323 223.722 125.274 224.207 126.063C224.691 126.853 225.328 127.454 226.118 127.867C226.907 128.262 227.769 128.459 228.702 128.459C229.922 128.459 230.945 128.163 231.77 127.571C232.613 126.979 233.17 126.18 233.439 125.175H235.431C235.072 126.611 234.3 127.786 233.116 128.701C231.949 129.598 230.478 130.047 228.702 130.047C227.32 130.047 226.082 129.742 224.987 129.132C223.893 128.504 223.031 127.625 222.403 126.494C221.793 125.346 221.488 124.009 221.488 122.484C221.488 120.958 221.793 119.622 222.403 118.473C223.014 117.325 223.866 116.446 224.96 115.836C226.055 115.225 227.302 114.92 228.702 114.92C230.101 114.92 231.321 115.225 232.362 115.836C233.421 116.446 234.228 117.271 234.785 118.312C235.359 119.335 235.646 120.474 235.646 121.73ZM233.735 121.676C233.753 120.582 233.529 119.649 233.062 118.877C232.613 118.105 231.994 117.522 231.205 117.127C230.415 116.733 229.554 116.535 228.621 116.535C227.221 116.535 226.028 116.984 225.041 117.881C224.054 118.778 223.507 120.043 223.399 121.676H233.735Z" fill="#1B71A0"></path>
  <path d="M216.873 112.363C216.496 112.363 216.173 112.229 215.904 111.96C215.635 111.69 215.5 111.359 215.5 110.964C215.5 110.569 215.635 110.246 215.904 109.995C216.173 109.726 216.496 109.591 216.873 109.591C217.25 109.591 217.573 109.726 217.842 109.995C218.111 110.246 218.245 110.569 218.245 110.964C218.245 111.359 218.111 111.69 217.842 111.96C217.573 112.229 217.25 112.363 216.873 112.363ZM217.815 115.136V129.832H215.931V115.136H217.815Z" fill="#1B71A0"></path>
  <path d="M212.696 116.724H209.277V129.832H207.393V116.724H205.348V115.136H207.393V114.113C207.393 112.516 207.797 111.341 208.604 110.587C209.43 109.833 210.758 109.457 212.588 109.457V111.071C211.368 111.071 210.506 111.305 210.004 111.771C209.52 112.238 209.277 113.018 209.277 114.113V115.136H212.696V116.724Z" fill="#1B71A0"></path>
  <path d="M201.427 112.363C201.051 112.363 200.728 112.229 200.458 111.96C200.189 111.69 200.055 111.359 200.055 110.964C200.055 110.569 200.189 110.246 200.458 109.995C200.728 109.726 201.051 109.591 201.427 109.591C201.804 109.591 202.127 109.726 202.396 109.995C202.666 110.246 202.8 110.569 202.8 110.964C202.8 111.359 202.666 111.69 202.396 111.96C202.127 112.229 201.804 112.363 201.427 112.363ZM202.369 115.136V129.832H200.485V115.136H202.369Z" fill="#1B71A0"></path>
  <path d="M193.074 116.724V125.848C193.074 126.745 193.244 127.364 193.585 127.705C193.926 128.046 194.527 128.217 195.389 128.217H197.111V129.832H195.092C193.765 129.832 192.778 129.527 192.132 128.917C191.486 128.288 191.163 127.266 191.163 125.848V116.724H189.117V115.136H191.163V111.448H193.074V115.136H197.111V116.724H193.074Z" fill="#1B71A0"></path>
  <path d="M182.486 117.747C182.898 116.832 183.526 116.123 184.37 115.62C185.231 115.118 186.281 114.867 187.519 114.867V116.832H187.007C185.644 116.832 184.549 117.199 183.724 117.935C182.898 118.671 182.486 119.9 182.486 121.623V129.832H180.602V115.136H182.486V117.747Z" fill="#1B71A0"></path>
  <path d="M176.888 121.73C176.888 122.376 176.87 122.869 176.834 123.21H164.641C164.695 124.323 164.964 125.274 165.449 126.063C165.933 126.853 166.57 127.454 167.36 127.867C168.149 128.262 169.011 128.459 169.944 128.459C171.164 128.459 172.187 128.163 173.012 127.571C173.856 126.979 174.412 126.18 174.681 125.175H176.673C176.314 126.611 175.542 127.786 174.358 128.701C173.192 129.598 171.72 130.047 169.944 130.047C168.562 130.047 167.324 129.742 166.23 129.132C165.135 128.504 164.274 127.625 163.646 126.494C163.036 125.346 162.73 124.009 162.73 122.484C162.73 120.958 163.036 119.622 163.646 118.473C164.256 117.325 165.108 116.446 166.203 115.836C167.297 115.225 168.544 114.92 169.944 114.92C171.343 114.92 172.564 115.225 173.604 115.836C174.663 116.446 175.471 117.271 176.027 118.312C176.601 119.335 176.888 120.474 176.888 121.73ZM174.977 121.676C174.995 120.582 174.771 119.649 174.304 118.877C173.856 118.105 173.237 117.522 172.447 117.127C171.657 116.733 170.796 116.535 169.863 116.535C168.464 116.535 167.27 116.984 166.283 117.881C165.296 118.778 164.749 120.043 164.641 121.676H174.977Z" fill="#1B71A0"></path>
  <path d="M145.953 122.484C145.953 120.958 146.258 119.631 146.868 118.5C147.478 117.352 148.322 116.473 149.398 115.862C150.475 115.234 151.704 114.92 153.086 114.92C154.898 114.92 156.387 115.369 157.554 116.266C158.738 117.163 159.501 118.384 159.842 119.927H157.823C157.572 118.868 157.024 118.043 156.181 117.45C155.356 116.84 154.324 116.535 153.086 116.535C152.099 116.535 151.211 116.76 150.421 117.208C149.632 117.657 149.004 118.33 148.537 119.227C148.088 120.106 147.864 121.192 147.864 122.484C147.864 123.776 148.088 124.87 148.537 125.767C149.004 126.665 149.632 127.337 150.421 127.786C151.211 128.235 152.099 128.459 153.086 128.459C154.324 128.459 155.356 128.163 156.181 127.571C157.024 126.961 157.572 126.117 157.823 125.041H159.842C159.501 126.548 158.738 127.759 157.554 128.674C156.369 129.589 154.88 130.047 153.086 130.047C151.704 130.047 150.475 129.742 149.398 129.132C148.322 128.504 147.478 127.625 146.868 126.494C146.258 125.346 145.953 124.009 145.953 122.484Z" fill="#1B71A0"></path>
  <path d="M214.205 99.6861C212.344 99.6861 210.596 99.4182 208.961 98.8825C207.353 98.3186 205.958 97.529 204.773 96.5139L207.1 93.7224C208.199 94.5965 209.327 95.2732 210.483 95.7526C211.668 96.2037 212.866 96.4293 214.079 96.4293C215.601 96.4293 216.842 96.1333 217.801 95.5411C218.759 94.949 219.239 94.1735 219.239 93.2148C219.239 92.4253 218.957 91.805 218.393 91.3538C217.829 90.9026 216.955 90.5925 215.77 90.4233L211.879 89.8734C209.736 89.5633 208.129 88.9006 207.057 87.8855C205.986 86.8704 205.45 85.517 205.45 83.8251C205.45 82.528 205.803 81.4001 206.508 80.4414C207.213 79.4545 208.199 78.6932 209.468 78.1574C210.737 77.5935 212.218 77.3115 213.909 77.3115C215.46 77.3115 216.955 77.5371 218.393 77.9883C219.831 78.4394 221.212 79.1444 222.538 80.1031L220.381 82.8946C219.196 82.1051 218.04 81.527 216.912 81.1605C215.813 80.7939 214.699 80.6106 213.571 80.6106C212.274 80.6106 211.231 80.8926 210.441 81.4565C209.652 81.9923 209.257 82.6972 209.257 83.5713C209.257 84.3609 209.525 84.9812 210.06 85.4324C210.624 85.8553 211.541 86.1514 212.81 86.3206L216.701 86.8704C218.844 87.1806 220.465 87.8432 221.565 88.8583C222.665 89.8452 223.215 91.1846 223.215 92.8765C223.215 94.1735 222.82 95.3437 222.03 96.387C221.241 97.4021 220.169 98.2058 218.816 98.7979C217.462 99.39 215.925 99.6861 214.205 99.6861Z" fill="#1B71A0"></path>
  <path d="M179.463 99.2631L173.457 77.7344H177.56L181.747 93.5531L186.653 77.7344H190.291L195.197 93.5531L199.384 77.7344H203.36L197.312 99.2631H193.252L188.43 83.4866L183.566 99.2631H179.463Z" fill="#1B71A0"></path>
  <path d="M159.734 99.6438C158.183 99.6438 156.815 99.3759 155.631 98.8402C154.447 98.2763 153.516 97.5008 152.839 96.5139C152.163 95.527 151.824 94.385 151.824 93.0879C151.824 91.0577 152.6 89.4646 154.15 88.3085C155.701 87.1242 157.83 86.5321 160.537 86.5321C162.652 86.5321 164.612 86.9409 166.416 87.7586V85.4747C166.416 83.9238 165.965 82.7677 165.063 82.0064C164.189 81.2451 162.892 80.8644 161.172 80.8644C160.185 80.8644 159.156 81.0195 158.084 81.3296C157.013 81.6116 155.814 82.0628 154.489 82.6831L152.924 79.5109C154.559 78.7496 156.082 78.1997 157.492 77.8614C158.902 77.4948 160.326 77.3115 161.764 77.3115C164.555 77.3115 166.712 77.9742 168.235 79.2994C169.786 80.6247 170.561 82.5139 170.561 84.9671V99.2632H166.416V97.4021C165.458 98.1635 164.428 98.7274 163.329 99.094C162.229 99.4605 161.031 99.6438 159.734 99.6438ZM155.885 93.0033C155.885 94.0467 156.322 94.8926 157.196 95.5411C158.098 96.1615 159.268 96.4716 160.706 96.4716C161.834 96.4716 162.863 96.3165 163.794 96.0064C164.753 95.668 165.627 95.1463 166.416 94.4414V90.804C165.599 90.3246 164.739 89.9862 163.836 89.7889C162.962 89.5633 161.975 89.4505 160.876 89.4505C159.325 89.4505 158.098 89.7748 157.196 90.4233C156.322 91.0436 155.885 91.9037 155.885 93.0033Z" fill="#1B71A0"></path>
  <path d="M225.984 82.3969C225.984 81.8303 226.296 81.3096 226.795 81.0417L238.687 74.6587C239.14 74.4158 239.684 74.4148 240.137 74.656L252.084 81.0122C252.586 81.2792 252.9 81.8014 252.9 82.37V94.8637C252.9 95.4299 252.589 95.9502 252.09 96.2183L240.146 102.641C239.696 102.883 239.156 102.886 238.703 102.649L226.808 96.4069C226.302 96.1412 225.984 95.6167 225.984 95.045V82.3969Z" fill="#1B71A0"></path>
  <path fill-rule="evenodd" clip-rule="evenodd" d="M246.281 82.0093C246.891 82.6004 246.907 83.5741 246.316 84.1841L236.525 94.2881C235.802 95.0337 234.618 95.071 233.85 94.3722L230.334 91.1725C229.705 90.6008 229.659 89.6281 230.231 88.9998C230.803 88.3716 231.776 88.3257 232.404 88.8974L235.093 91.3447L244.107 82.0435C244.698 81.4334 245.671 81.4181 246.281 82.0093Z" fill="white"></path>
</svg>
