<?xml version="1.0" encoding="UTF-8"?>
<svg id="Layer_2" data-name="Layer 2" xmlns="http://www.w3.org/2000/svg" viewBox="0 0 90 90">
  <defs>
    <style>
      .cls-1 {
        fill: #fff;
      }

      .cls-2 {
        fill: #f90;
      }

      .cls-3 {
        fill: #242e3d;
      }
    </style>
  </defs>
  <g id="Layer_1-2" data-name="Layer 1">
    <g>
      <path class="cls-1" d="m61.2,0H0v61.5l28.5,28.5h61.5V28.8L61.2,0Z"/>
      <path class="cls-3" d="m60.45,1.88l27.68,27.68v58.57H29.25L1.88,60.75V1.88h58.57m.75-1.88H0v61.5l28.5,28.5h61.5V28.8L61.2,0Z"/>
      <path class="cls-3" d="m14.62,50.7v3.3h-1.88v-9h3.45c.82-.07,1.57.23,2.25.75,1.12,1.2,1.12,3,0,4.2-.6.53-1.43.82-2.25.75h-1.57Zm0-1.43h1.35c.38,0,.75-.07.97-.38.45-.6.45-1.5,0-2.1-.3-.23-.6-.38-.97-.38h-1.35v2.85Zm12.52,4.73l-.6-2.02h-3.07l-.6,2.02h-2.02l3.15-9h2.18l3.07,9h-2.1Zm-3.3-3.45h2.25l-1.12-3.75-1.12,3.75Zm8.1,3.45v-9h3.45c.83-.07,1.58.23,2.25.75.53.52.83,1.27.83,2.02,0,.53-.15.98-.45,1.43-.3.45-.75.75-1.2.98l2.25,3.9h-2.02l-1.95-3.52h-1.28v3.45h-1.88Zm1.88-4.88h1.35c.68.07,1.27-.38,1.35-1.05v-.38c.08-.68-.38-1.27-.97-1.35h-1.65v2.77h-.07Zm9.82,4.88v-7.43h-2.77v-1.57h7.43v1.57h-2.78v7.43h-1.87Zm9.37-6.23v6.23h-1.72v-9h2.1l3.68,6.3v-6.3h1.73v9h-2.1l-3.68-6.23Zm9.23,6.23v-9h5.93v1.5h-3.98v2.1h3.23v1.5h-3.23v2.4h3.98v1.5h-5.93Zm9.38,0v-9h3.45c.82-.07,1.57.23,2.25.75.53.52.82,1.27.82,2.02,0,.53-.15.98-.45,1.43s-.75.75-1.2.98l2.25,3.9h-2.02l-1.95-3.52h-1.27v3.45h-1.88Zm1.88-4.88h1.35c.67.07,1.27-.38,1.35-1.05v-.38c.07-.68-.38-1.27-.97-1.35h-1.73v2.77Z"/>
      <path class="cls-3" d="m20.02,20.62c0,.3,0,.6.15.9.07.23.22.53.3.75.07.08.07.15.07.23,0,.15-.07.23-.23.3l-.68.45h-.22c-.15,0-.23-.07-.3-.15-.15-.15-.3-.3-.38-.45-.07-.15-.23-.38-.3-.6-.75.9-1.8,1.43-3,1.43-.75.07-1.5-.23-2.02-.75-.53-.53-.75-1.2-.75-1.95,0-.82.3-1.57.9-2.1.68-.53,1.57-.82,2.48-.82.38,0,.75,0,1.05.07l1.12.22v-.75c.07-.6-.08-1.2-.45-1.65-.45-.38-1.05-.52-1.65-.45-.38,0-.75.07-1.12.15s-.75.23-1.12.38c-.15.07-.23.07-.38.15h-.15c-.15,0-.23-.08-.23-.3v-.53c0-.15,0-.22.07-.38.07-.07.15-.15.3-.22.38-.23.82-.38,1.27-.45.53-.15,1.05-.23,1.58-.23.97-.07,1.88.23,2.62.82.6.68.9,1.57.82,2.48l.22,3.45Zm-4.12,1.5c.38,0,.68-.07,1.05-.15.38-.15.68-.38.98-.68.15-.15.3-.38.38-.68s.07-.6.07-.9v-.45c-.3-.07-.6-.15-.9-.15-.3-.07-.6-.07-.98-.07-.52-.07-1.05.07-1.5.38-.6.6-.68,1.57-.15,2.25.3.38.67.52,1.05.45h0Zm8.18,1.12c-.15,0-.3,0-.38-.07-.07-.07-.15-.23-.22-.38l-2.4-7.88c-.07-.15-.07-.3-.07-.38,0-.15.07-.23.15-.23h1.05c.15,0,.3,0,.38.07.07.08.15.23.23.38l1.72,6.68,1.58-6.68c0-.15.07-.3.22-.38.15-.07.3-.07.38-.07h.82c.15,0,.3,0,.38.07.08.08.15.23.23.38l1.57,6.83,1.73-6.83c0-.15.07-.3.22-.38.15-.07.23-.07.38-.07h.98c.15,0,.23.07.23.15v.22c0,.07-.08.15-.08.23l-2.4,7.8c0,.15-.07.3-.23.38-.07.15-.22.15-.38.15h-.9c-.15,0-.3,0-.38-.07-.07-.15-.15-.23-.23-.38l-1.57-6.53-1.57,6.53c0,.15-.07.3-.23.38-.07.07-.22.07-.3.07h-.9Zm13.05.3c-.52,0-1.05-.07-1.57-.15-.38-.07-.82-.22-1.2-.38-.23-.07-.38-.3-.38-.6v-.53c0-.22.07-.3.22-.3h.15c.07,0,.15.07.22.07.38.15.75.3,1.12.38.38.07.82.15,1.2.15.53,0,1.05-.07,1.5-.38.3-.22.53-.6.53-.97,0-.3-.07-.53-.3-.68-.3-.23-.68-.45-1.05-.53l-1.5-.45c-.6-.15-1.2-.52-1.65-1.05-.3-.45-.53-.97-.53-1.5,0-.38.08-.75.3-1.12.15-.3.45-.6.75-.82.3-.22.68-.45,1.05-.52.45-.15.82-.15,1.27-.15.23,0,.45,0,.68.08.23,0,.45.07.68.15s.38.07.6.15c.15.08.3.08.45.15.15.07.22.15.3.22.07.08.07.23.07.38v.45c0,.22-.07.3-.23.3s-.3-.07-.38-.15c-.6-.3-1.27-.38-1.95-.38-.45,0-.9.07-1.35.3-.3.15-.52.52-.45.9,0,.3.07.53.3.75.3.3.68.45,1.12.53l1.43.45c.6.15,1.12.52,1.57.97.3.38.45.9.45,1.43,0,.38-.07.82-.3,1.2-.15.38-.45.68-.75.9-.3.22-.75.45-1.12.6-.3.08-.82.15-1.27.15h0Z"/>
      <path class="cls-2" d="m39,28.43c-3.38,2.47-8.18,3.75-12.38,3.75-5.55,0-10.95-2.03-15.07-5.78-.3-.3,0-.67.38-.45,4.57,2.7,9.82,4.05,15.07,4.05,3.98,0,7.88-.82,11.55-2.32.52-.23,1.05.38.45.75h0Zm.52,2.25c-.15.3.15.45.45.22,1.8-1.5,2.25-4.65,1.88-5.1-.38-.45-3.53-.82-5.4.52-.3.23-.22.53.07.45,1.05-.15,3.45-.45,3.9.15.45.6-.53,2.77-.9,3.75h0Z"/>
      <path class="cls-3" d="m33.74,62.25l-.43-1.3h-1.99l-.42,1.3h-.95l1.89-5.2h1l1.89,5.2h-.97Zm-2.21-1.97h1.57l-.79-2.4-.78,2.4Z"/>
      <path class="cls-3" d="m37.97,62.25l-.09-.36c-.34.3-.74.45-1.18.45-.48,0-.86-.18-1.15-.53-.29-.36-.43-.84-.43-1.45,0-.4.06-.75.2-1.06.13-.3.32-.54.56-.71.24-.17.53-.26.87-.26.4,0,.77.13,1.1.39v-2.02h.88v5.55h-.75Zm-1-.61c.3,0,.59-.1.87-.29v-2.06c-.26-.18-.54-.27-.86-.27s-.57.11-.74.33c-.16.21-.23.54-.23.97,0,.88.32,1.33.96,1.33h0Z"/>
      <path class="cls-3" d="m40.8,62.25l-1.49-3.82h.95l.97,3.02.99-3.02h.9l-1.46,3.82h-.86Z"/>
      <path class="cls-3" d="m45.94,62.25l-.07-.36c-.18.15-.38.26-.59.35-.21.09-.42.13-.63.13-.35,0-.64-.11-.85-.32-.21-.21-.32-.48-.32-.82,0-.37.13-.66.4-.88.26-.23.62-.34,1.08-.34.26,0,.55.04.87.12v-.44c0-.26-.05-.43-.16-.53-.11-.1-.3-.15-.57-.15-.39,0-.84.08-1.35.25v-.62c.19-.09.41-.17.68-.22.26-.05.53-.08.81-.08.48,0,.84.1,1.08.3.23.2.35.5.35.93v2.69h-.71Zm-1.04-.52c.15,0,.3-.03.46-.09.16-.06.32-.15.47-.27v-.72c-.26-.05-.5-.08-.7-.08-.52,0-.79.2-.79.6,0,.18.05.32.15.42.1.09.24.14.41.14h0Z"/>
      <path class="cls-3" d="m50.24,62.25v-2.53c0-.24-.05-.42-.15-.53-.1-.12-.27-.17-.48-.17-.33,0-.66.11-1.01.33v2.91h-.89v-3.82h.74l.08.42c.47-.35.97-.53,1.48-.53.37,0,.64.1.83.29.19.19.28.46.28.83v2.8h-.88Z"/>
      <path class="cls-3" d="m54.86,62.1c-.3.16-.65.23-1.05.23-.59,0-1.04-.17-1.36-.5-.31-.34-.47-.82-.47-1.45s.16-1.14.49-1.49c.33-.36.78-.54,1.37-.54.35,0,.69.08,1,.22v.63c-.34-.1-.62-.15-.86-.15-.38,0-.65.1-.83.3-.18.2-.27.52-.27.95v.09c0,.42.09.74.27.94.18.2.46.29.83.29.26,0,.56-.05.88-.15v.62Z"/>
      <path class="cls-3" d="m56.28,60.55c.02.38.12.66.32.84.2.17.51.26.91.26.38,0,.78-.06,1.21-.2v.62c-.17.09-.38.16-.61.21-.23.06-.48.08-.73.08-.62,0-1.1-.17-1.43-.5-.33-.34-.49-.84-.49-1.5s.16-1.14.48-1.5c.32-.36.76-.54,1.34-.54.49,0,.86.13,1.12.4.26.26.4.64.4,1.14,0,.26-.02.49-.07.69h-2.45Zm.95-1.58c-.27,0-.49.09-.66.27-.17.18-.27.42-.29.73h1.73v-.06c0-.3-.07-.54-.2-.69-.14-.16-.33-.25-.58-.25h0Z"/>
      <path class="cls-3" d="m62.32,62.25l-.09-.36c-.34.3-.74.45-1.18.45-.48,0-.86-.18-1.15-.53-.29-.36-.43-.84-.43-1.45,0-.4.06-.75.2-1.06.13-.3.32-.54.56-.71.24-.17.53-.26.87-.26.4,0,.77.13,1.1.39v-2.02h.88v5.55h-.75Zm-1-.61c.3,0,.59-.1.87-.29v-2.06c-.26-.18-.54-.27-.86-.27s-.57.11-.74.33c-.16.21-.23.54-.23.97,0,.88.32,1.33.96,1.33h0Z"/>
      <path class="cls-3" d="m67.31,62.25v-4.45h-1.63v-.75h4.17v.75h-1.63v4.45h-.91Z"/>
      <path class="cls-3" d="m70.53,62.25v-3.82h.88v3.82h-.88Zm.43-4.45c-.16,0-.29-.04-.39-.13-.09-.09-.14-.22-.14-.38,0-.16.05-.29.14-.38.09-.09.22-.14.39-.14s.31.05.4.14c.09.09.14.21.14.38s-.05.28-.14.38c-.09.09-.23.13-.4.13h0Z"/>
      <path class="cls-3" d="m73.14,60.55c.01.38.12.66.32.84.2.17.51.26.91.26.38,0,.78-.06,1.21-.2v.62c-.17.09-.38.16-.61.21-.24.06-.48.08-.73.08-.62,0-1.1-.17-1.43-.5-.33-.34-.49-.84-.49-1.5s.16-1.14.48-1.5c.32-.36.76-.54,1.34-.54.48,0,.86.13,1.12.4.26.26.4.64.4,1.14,0,.26-.02.49-.07.69h-2.45Zm.95-1.58c-.27,0-.49.09-.66.27-.17.18-.27.42-.29.73h1.73v-.06c0-.3-.07-.54-.2-.69-.14-.16-.33-.25-.59-.25h0Z"/>
      <path class="cls-3" d="m76.52,62.25v-3.82h.74l.12.57c.2-.22.39-.37.56-.46.17-.09.36-.14.57-.14.09,0,.19,0,.3.02v.81c-.14-.02-.29-.03-.43-.03-.37,0-.69.09-.97.28v2.77h-.89Z"/>
      <path class="cls-3" d="m53.07,67.36c-.42-.16-.73-.35-.93-.57-.19-.23-.28-.5-.28-.83,0-.47.16-.84.49-1.11.33-.27.77-.41,1.32-.41.46,0,.93.09,1.41.27v.73c-.49-.15-.93-.22-1.34-.22-.66,0-1,.22-1,.67,0,.17.06.31.18.42.12.11.34.22.64.33l.64.23c.41.16.71.34.9.56.19.22.28.5.28.84,0,.5-.18.9-.54,1.18-.35.29-.84.43-1.45.43-.27,0-.53-.03-.8-.08-.26-.05-.5-.13-.69-.22v-.73c.24.08.5.14.76.19.27.05.52.07.73.07.35,0,.62-.06.81-.19.19-.13.29-.32.29-.55,0-.17-.06-.31-.18-.42-.11-.11-.31-.21-.6-.33l-.67-.26Z"/>
      <path class="cls-3" d="m56.94,68.05c.01.38.12.66.32.84.2.17.51.26.91.26.38,0,.78-.06,1.21-.2v.62c-.17.09-.38.16-.61.21-.23.05-.48.08-.73.08-.62,0-1.1-.17-1.43-.5-.33-.34-.49-.84-.49-1.5s.16-1.14.48-1.5c.32-.36.76-.54,1.34-.54.48,0,.86.13,1.12.4.26.26.4.64.4,1.14,0,.26-.02.49-.07.69h-2.45Zm.95-1.58c-.27,0-.49.09-.66.27-.17.18-.27.42-.29.73h1.73v-.06c0-.3-.07-.54-.2-.69-.14-.16-.33-.25-.59-.25h0Z"/>
      <path class="cls-3" d="m60.32,69.75v-3.82h.74l.12.57c.2-.22.39-.37.56-.46.17-.09.36-.14.58-.14.09,0,.19,0,.3.02v.81c-.14-.02-.29-.03-.43-.03-.37,0-.69.09-.97.28v2.77h-.89Z"/>
      <path class="cls-3" d="m64.21,69.75l-1.49-3.82h.95l.97,3.02.98-3.02h.9l-1.46,3.82h-.86Z"/>
      <path class="cls-3" d="m67.15,69.75v-3.82h.88v3.82h-.88Zm.43-4.45c-.16,0-.29-.04-.39-.13-.09-.09-.14-.22-.14-.38,0-.16.05-.29.14-.38.09-.09.22-.14.39-.14s.31.05.4.14c.09.09.14.21.14.38s-.05.28-.14.38c-.09.09-.23.13-.4.13h0Z"/>
      <path class="cls-3" d="m71.83,69.6c-.3.16-.65.23-1.05.23-.59,0-1.04-.17-1.36-.5-.31-.34-.47-.82-.47-1.45s.16-1.14.49-1.49c.33-.36.79-.54,1.37-.54.35,0,.69.08,1,.22v.63c-.34-.1-.62-.15-.86-.15-.38,0-.65.1-.83.3-.18.2-.27.52-.27.95v.09c0,.42.09.74.27.94.18.2.46.29.83.29.26,0,.56-.05.88-.15v.62Z"/>
      <path class="cls-3" d="m73.24,68.05c.02.38.12.66.32.84.2.17.51.26.91.26.38,0,.78-.06,1.21-.2v.62c-.17.09-.38.16-.61.21-.23.05-.48.08-.73.08-.63,0-1.1-.17-1.43-.5-.33-.34-.49-.84-.49-1.5s.16-1.14.48-1.5c.32-.36.77-.54,1.34-.54.49,0,.86.13,1.12.4.26.26.4.64.4,1.14,0,.26-.02.49-.07.69h-2.45Zm.95-1.58c-.26,0-.49.09-.66.27-.17.18-.27.42-.29.73h1.74v-.06c0-.3-.07-.54-.2-.69-.14-.16-.33-.25-.59-.25h0Z"/>
      <path class="cls-3" d="m78.34,68.72c0-.11-.04-.2-.11-.27-.07-.07-.2-.14-.39-.21l-.62-.23c-.56-.22-.84-.57-.84-1.05,0-.35.13-.62.39-.82.27-.2.61-.3,1.04-.3s.8.08,1.12.24v.62c-.38-.12-.74-.19-1.07-.19-.23,0-.39.03-.5.11-.11.07-.16.17-.16.32,0,.11.04.2.12.27.07.06.21.14.41.22l.59.22c.3.12.51.26.64.42.13.16.2.36.2.6,0,.38-.14.68-.41.89-.27.22-.64.33-1.12.33-.23,0-.46-.03-.69-.08-.22-.05-.41-.12-.59-.21v-.62c.48.16.9.23,1.28.23.25,0,.43-.04.54-.12.12-.07.18-.19.18-.35h0Z"/>
    </g>
  </g>
</svg>