<?xml version="1.0" encoding="UTF-8"?>
<svg xmlns="http://www.w3.org/2000/svg" width="2000" height="2000" viewBox="0 0 2000 2000" fill="none">
  <path fill-rule="evenodd" clip-rule="evenodd" d="M261 94C261 55.3401 292.34 24 331 24H1668C1706.66 24 1738 55.3401 1738 94V1907C1738 1945.66 1706.66 1977 1668 1977H331C292.34 1977 261 1945.66 261 1907V94ZM567.32 1454.72V1622H545.48V1454.72H567.32ZM657.582 1623.68C646.543 1623.68 636.622 1621.76 627.823 1617.92C619.182 1613.92 612.383 1608.48 607.422 1601.6C602.462 1594.56 599.902 1586.48 599.742 1577.36H623.022C623.823 1585.2 627.022 1591.84 632.622 1597.28C638.383 1602.56 646.703 1605.2 657.582 1605.2C667.983 1605.2 676.142 1602.64 682.062 1597.52C688.143 1592.24 691.182 1585.52 691.182 1577.36C691.182 1570.96 689.423 1565.76 685.902 1561.76C682.383 1557.76 677.983 1554.72 672.703 1552.64C667.423 1550.56 660.302 1548.32 651.342 1545.92C640.302 1543.04 631.423 1540.16 624.703 1537.28C618.143 1534.4 612.462 1529.92 607.663 1523.84C603.022 1517.6 600.703 1509.28 600.703 1498.88C600.703 1489.76 603.022 1481.68 607.663 1474.64C612.302 1467.6 618.783 1462.16 627.103 1458.32C635.582 1454.48 645.263 1452.56 656.143 1452.56C671.823 1452.56 684.622 1456.48 694.543 1464.32C704.622 1472.16 710.303 1482.56 711.582 1495.52H687.582C686.783 1489.12 683.423 1483.52 677.503 1478.72C671.582 1473.76 663.742 1471.28 653.983 1471.28C644.863 1471.28 637.423 1473.68 631.663 1478.48C625.902 1483.12 623.022 1489.68 623.022 1498.16C623.022 1504.24 624.703 1509.2 628.062 1513.04C631.582 1516.88 635.823 1519.84 640.783 1521.92C645.902 1523.84 653.022 1526.08 662.142 1528.64C673.182 1531.68 682.062 1534.72 688.783 1537.76C695.503 1540.64 701.263 1545.2 706.062 1551.44C710.863 1557.52 713.263 1565.84 713.263 1576.4C713.263 1584.56 711.103 1592.24 706.783 1599.44C702.462 1606.64 696.062 1612.48 687.582 1616.96C679.103 1621.44 669.103 1623.68 657.582 1623.68ZM741.802 1533.44C741.802 1505.92 746.282 1484.48 755.242 1469.12C764.202 1453.6 779.882 1445.84 802.282 1445.84C824.522 1445.84 840.122 1453.6 849.082 1469.12C858.042 1484.48 862.522 1505.92 862.522 1533.44C862.522 1561.44 858.042 1583.2 849.082 1598.72C840.122 1614.24 824.522 1622 802.282 1622C779.882 1622 764.202 1614.24 755.242 1598.72C746.282 1583.2 741.802 1561.44 741.802 1533.44ZM840.922 1533.44C840.922 1519.52 839.962 1507.76 838.042 1498.16C836.282 1488.4 832.522 1480.56 826.762 1474.64C821.162 1468.72 813.002 1465.76 802.282 1465.76C791.402 1465.76 783.082 1468.72 777.322 1474.64C771.722 1480.56 767.962 1488.4 766.042 1498.16C764.282 1507.76 763.402 1519.52 763.402 1533.44C763.402 1547.84 764.282 1559.92 766.042 1569.68C767.962 1579.44 771.722 1587.28 777.322 1593.2C783.082 1599.12 791.402 1602.08 802.282 1602.08C813.002 1602.08 821.162 1599.12 826.762 1593.2C832.522 1587.28 836.282 1579.44 838.042 1569.68C839.962 1559.92 840.922 1547.84 840.922 1533.44ZM984.569 1575.44C986.169 1584.56 989.849 1591.6 995.609 1596.56C1001.53 1601.52 1009.45 1604 1019.37 1604C1032.65 1604 1042.41 1598.8 1048.65 1588.4C1055.05 1578 1058.09 1560.48 1057.77 1535.84C1054.41 1543.04 1048.81 1548.72 1040.97 1552.88C1033.13 1556.88 1024.41 1558.88 1014.81 1558.88C1004.09 1558.88 994.489 1556.72 986.009 1552.4C977.689 1547.92 971.129 1541.44 966.329 1532.96C961.529 1524.48 959.129 1514.24 959.129 1502.24C959.129 1485.12 964.089 1471.36 974.009 1460.96C983.929 1450.4 998.009 1445.12 1016.25 1445.12C1038.65 1445.12 1054.33 1452.4 1063.29 1466.96C1072.41 1481.52 1076.97 1503.2 1076.97 1532C1076.97 1552.16 1075.13 1568.8 1071.45 1581.92C1067.93 1595.04 1061.85 1605.04 1053.21 1611.92C1044.73 1618.8 1033.05 1622.24 1018.17 1622.24C1001.85 1622.24 989.129 1617.84 980.009 1609.04C970.889 1600.24 965.689 1589.04 964.409 1575.44H984.569ZM1018.41 1540.4C1029.13 1540.4 1037.93 1537.12 1044.81 1530.56C1051.69 1523.84 1055.13 1514.8 1055.13 1503.44C1055.13 1491.44 1051.77 1481.76 1045.05 1474.4C1038.33 1467.04 1028.89 1463.36 1016.73 1463.36C1005.53 1463.36 996.569 1466.88 989.849 1473.92C983.289 1480.96 980.009 1490.24 980.009 1501.76C980.009 1513.44 983.289 1522.8 989.849 1529.84C996.409 1536.88 1005.93 1540.4 1018.41 1540.4ZM1107.66 1533.44C1107.66 1505.92 1112.14 1484.48 1121.1 1469.12C1130.06 1453.6 1145.74 1445.84 1168.14 1445.84C1190.38 1445.84 1205.98 1453.6 1214.94 1469.12C1223.9 1484.48 1228.38 1505.92 1228.38 1533.44C1228.38 1561.44 1223.9 1583.2 1214.94 1598.72C1205.98 1614.24 1190.38 1622 1168.14 1622C1145.74 1622 1130.06 1614.24 1121.1 1598.72C1112.14 1583.2 1107.66 1561.44 1107.66 1533.44ZM1206.78 1533.44C1206.78 1519.52 1205.82 1507.76 1203.9 1498.16C1202.14 1488.4 1198.38 1480.56 1192.62 1474.64C1187.02 1468.72 1178.86 1465.76 1168.14 1465.76C1157.26 1465.76 1148.94 1468.72 1143.18 1474.64C1137.58 1480.56 1133.82 1488.4 1131.9 1498.16C1130.14 1507.76 1129.26 1519.52 1129.26 1533.44C1129.26 1547.84 1130.14 1559.92 1131.9 1569.68C1133.82 1579.44 1137.58 1587.28 1143.18 1593.2C1148.94 1599.12 1157.26 1602.08 1168.14 1602.08C1178.86 1602.08 1187.02 1599.12 1192.62 1593.2C1198.38 1587.28 1202.14 1579.44 1203.9 1569.68C1205.82 1559.92 1206.78 1547.84 1206.78 1533.44ZM1258.36 1533.44C1258.36 1505.92 1262.84 1484.48 1271.8 1469.12C1280.76 1453.6 1296.44 1445.84 1318.84 1445.84C1341.08 1445.84 1356.68 1453.6 1365.64 1469.12C1374.6 1484.48 1379.08 1505.92 1379.08 1533.44C1379.08 1561.44 1374.6 1583.2 1365.64 1598.72C1356.68 1614.24 1341.08 1622 1318.84 1622C1296.44 1622 1280.76 1614.24 1271.8 1598.72C1262.84 1583.2 1258.36 1561.44 1258.36 1533.44ZM1357.48 1533.44C1357.48 1519.52 1356.52 1507.76 1354.6 1498.16C1352.84 1488.4 1349.08 1480.56 1343.32 1474.64C1337.72 1468.72 1329.56 1465.76 1318.84 1465.76C1307.96 1465.76 1299.64 1468.72 1293.88 1474.64C1288.28 1480.56 1284.52 1488.4 1282.6 1498.16C1280.84 1507.76 1279.96 1519.52 1279.96 1533.44C1279.96 1547.84 1280.84 1559.92 1282.6 1569.68C1284.52 1579.44 1288.28 1587.28 1293.88 1593.2C1299.64 1599.12 1307.96 1602.08 1318.84 1602.08C1329.56 1602.08 1337.72 1599.12 1343.32 1593.2C1349.08 1587.28 1352.84 1579.44 1354.6 1569.68C1356.52 1559.92 1357.48 1547.84 1357.48 1533.44ZM1403.31 1468.4V1448.48H1448.43V1622H1426.35V1468.4H1403.31ZM578 324C578 241.157 645.157 174 728 174H1272C1336.46 174 1391.43 214.662 1412.64 271.736L887.086 1008.97C885.037 1011.84 881.169 1012.74 878.063 1011.07L620.066 871.934C614.921 869.159 609.249 874.632 611.84 879.874L832.333 1326H728C645.157 1326 578 1258.84 578 1176V324ZM941.848 1326L1422 378.532V1176C1422 1258.84 1354.84 1326 1272 1326H941.848Z" fill="white"></path>
  <path d="M433 1685C433 1683.9 433.895 1683 435 1683H1564C1565.1 1683 1566 1683.9 1566 1685V1711C1566 1712.1 1565.1 1713 1564 1713H435C433.895 1713 433 1712.1 433 1711V1685Z" fill="#B0AEAE"></path>
  <path d="M1533.69 1900.64V1898.96C1541.77 1890.64 1547.97 1880.84 1552.29 1869.56C1556.69 1858.2 1558.89 1846.44 1558.89 1834.28C1558.89 1821.8 1556.57 1809.68 1551.93 1797.92C1547.37 1786.16 1540.69 1776.08 1531.89 1767.68V1766.12H1548.81C1557.37 1773.8 1563.89 1783.68 1568.37 1795.76C1572.85 1807.76 1575.09 1820.6 1575.09 1834.28C1575.09 1847.64 1572.93 1860.16 1568.61 1871.84C1564.37 1883.52 1558.37 1893.12 1550.61 1900.64H1533.69Z" fill="#878585"></path>
  <path d="M1495.52 1809.56C1503.44 1809.56 1509.84 1812.08 1514.72 1817.12C1519.6 1822.08 1522.04 1829.04 1522.04 1838V1877H1505.24V1840.28C1505.24 1835 1503.92 1830.96 1501.28 1828.16C1498.64 1825.28 1495.04 1823.84 1490.48 1823.84C1485.84 1823.84 1482.16 1825.28 1479.44 1828.16C1476.8 1830.96 1475.48 1835 1475.48 1840.28V1877H1458.68V1810.52H1475.48V1818.8C1477.72 1815.92 1480.56 1813.68 1484 1812.08C1487.52 1810.4 1491.36 1809.56 1495.52 1809.56Z" fill="#878585"></path>
  <path d="M1411.68 1878.08C1405.28 1878.08 1399.52 1876.68 1394.4 1873.88C1389.28 1871 1385.24 1866.96 1382.28 1861.76C1379.4 1856.56 1377.96 1850.56 1377.96 1843.76C1377.96 1836.96 1379.44 1830.96 1382.4 1825.76C1385.44 1820.56 1389.56 1816.56 1394.76 1813.76C1399.96 1810.88 1405.76 1809.44 1412.16 1809.44C1418.56 1809.44 1424.36 1810.88 1429.56 1813.76C1434.76 1816.56 1438.84 1820.56 1441.8 1825.76C1444.84 1830.96 1446.36 1836.96 1446.36 1843.76C1446.36 1850.56 1444.8 1856.56 1441.68 1861.76C1438.64 1866.96 1434.48 1871 1429.2 1873.88C1424 1876.68 1418.16 1878.08 1411.68 1878.08ZM1411.68 1863.44C1414.72 1863.44 1417.56 1862.72 1420.2 1861.28C1422.92 1859.76 1425.08 1857.52 1426.68 1854.56C1428.28 1851.6 1429.08 1848 1429.08 1843.76C1429.08 1837.44 1427.4 1832.6 1424.04 1829.24C1420.76 1825.8 1416.72 1824.08 1411.92 1824.08C1407.12 1824.08 1403.08 1825.8 1399.8 1829.24C1396.6 1832.6 1395 1837.44 1395 1843.76C1395 1850.08 1396.56 1854.96 1399.68 1858.4C1402.88 1861.76 1406.88 1863.44 1411.68 1863.44Z" fill="#878585"></path>
  <path d="M1357.28 1802.6C1354.32 1802.6 1351.84 1801.68 1349.84 1799.84C1347.92 1797.92 1346.96 1795.56 1346.96 1792.76C1346.96 1789.96 1347.92 1787.64 1349.84 1785.8C1351.84 1783.88 1354.32 1782.92 1357.28 1782.92C1360.24 1782.92 1362.68 1783.88 1364.6 1785.8C1366.6 1787.64 1367.6 1789.96 1367.6 1792.76C1367.6 1795.56 1366.6 1797.92 1364.6 1799.84C1362.68 1801.68 1360.24 1802.6 1357.28 1802.6ZM1365.56 1810.52V1877H1348.76V1810.52H1365.56Z" fill="#878585"></path>
  <path d="M1321.79 1824.32V1856.48C1321.79 1858.72 1322.31 1860.36 1323.35 1861.4C1324.47 1862.36 1326.31 1862.84 1328.87 1862.84H1336.67V1877H1326.11C1311.95 1877 1304.87 1870.12 1304.87 1856.36V1824.32H1296.95V1810.52H1304.87V1794.08H1321.79V1810.52H1336.67V1824.32H1321.79Z" fill="#878585"></path>
  <path d="M1216.58 1843.52C1216.58 1836.8 1217.9 1830.84 1220.54 1825.64C1223.26 1820.44 1226.9 1816.44 1231.46 1813.64C1236.1 1810.84 1241.26 1809.44 1246.94 1809.44C1251.9 1809.44 1256.22 1810.44 1259.9 1812.44C1263.66 1814.44 1266.66 1816.96 1268.9 1820V1810.52H1285.82V1877H1268.9V1867.28C1266.74 1870.4 1263.74 1873 1259.9 1875.08C1256.14 1877.08 1251.78 1878.08 1246.82 1878.08C1241.22 1878.08 1236.1 1876.64 1231.46 1873.76C1226.9 1870.88 1223.26 1866.84 1220.54 1861.64C1217.9 1856.36 1216.58 1850.32 1216.58 1843.52ZM1268.9 1843.76C1268.9 1839.68 1268.1 1836.2 1266.5 1833.32C1264.9 1830.36 1262.74 1828.12 1260.02 1826.6C1257.3 1825 1254.38 1824.2 1251.26 1824.2C1248.14 1824.2 1245.26 1824.96 1242.62 1826.48C1239.98 1828 1237.82 1830.24 1236.14 1833.2C1234.54 1836.08 1233.74 1839.52 1233.74 1843.52C1233.74 1847.52 1234.54 1851.04 1236.14 1854.08C1237.82 1857.04 1239.98 1859.32 1242.62 1860.92C1245.34 1862.52 1248.22 1863.32 1251.26 1863.32C1254.38 1863.32 1257.3 1862.56 1260.02 1861.04C1262.74 1859.44 1264.9 1857.2 1266.5 1854.32C1268.1 1851.36 1268.9 1847.84 1268.9 1843.76Z" fill="#878585"></path>
  <path d="M1144.4 1843.76C1144.4 1836.88 1145.8 1830.88 1148.6 1825.76C1151.4 1820.56 1155.28 1816.56 1160.24 1813.76C1165.2 1810.88 1170.88 1809.44 1177.28 1809.44C1185.52 1809.44 1192.32 1811.52 1197.68 1815.68C1203.12 1819.76 1206.76 1825.52 1208.6 1832.96H1190.48C1189.52 1830.08 1187.88 1827.84 1185.56 1826.24C1183.32 1824.56 1180.52 1823.72 1177.16 1823.72C1172.36 1823.72 1168.56 1825.48 1165.76 1829C1162.96 1832.44 1161.56 1837.36 1161.56 1843.76C1161.56 1850.08 1162.96 1855 1165.76 1858.52C1168.56 1861.96 1172.36 1863.68 1177.16 1863.68C1183.96 1863.68 1188.4 1860.64 1190.48 1854.56H1208.6C1206.76 1861.76 1203.12 1867.48 1197.68 1871.72C1192.24 1875.96 1185.44 1878.08 1177.28 1878.08C1170.88 1878.08 1165.2 1876.68 1160.24 1873.88C1155.28 1871 1151.4 1867 1148.6 1861.88C1145.8 1856.68 1144.4 1850.64 1144.4 1843.76Z" fill="#878585"></path>
  <path d="M1123.84 1802.6C1120.88 1802.6 1118.4 1801.68 1116.4 1799.84C1114.48 1797.92 1113.52 1795.56 1113.52 1792.76C1113.52 1789.96 1114.48 1787.64 1116.4 1785.8C1118.4 1783.88 1120.88 1782.92 1123.84 1782.92C1126.8 1782.92 1129.24 1783.88 1131.16 1785.8C1133.16 1787.64 1134.16 1789.96 1134.16 1792.76C1134.16 1795.56 1133.16 1797.92 1131.16 1799.84C1129.24 1801.68 1126.8 1802.6 1123.84 1802.6ZM1132.12 1810.52V1877H1115.32V1810.52H1132.12Z" fill="#878585"></path>
  <path d="M1104.43 1824.32H1092.79V1877H1075.75V1824.32H1068.19V1810.52H1075.75V1807.16C1075.75 1799 1078.07 1793 1082.71 1789.16C1087.35 1785.32 1094.35 1783.52 1103.71 1783.76V1797.92C1099.63 1797.84 1096.79 1798.52 1095.19 1799.96C1093.59 1801.4 1092.79 1804 1092.79 1807.76V1810.52H1104.43V1824.32Z" fill="#878585"></path>
  <path d="M1049.07 1802.6C1046.11 1802.6 1043.63 1801.68 1041.63 1799.84C1039.71 1797.92 1038.75 1795.56 1038.75 1792.76C1038.75 1789.96 1039.71 1787.64 1041.63 1785.8C1043.63 1783.88 1046.11 1782.92 1049.07 1782.92C1052.03 1782.92 1054.47 1783.88 1056.39 1785.8C1058.39 1787.64 1059.39 1789.96 1059.39 1792.76C1059.39 1795.56 1058.39 1797.92 1056.39 1799.84C1054.47 1801.68 1052.03 1802.6 1049.07 1802.6ZM1057.35 1810.52V1877H1040.55V1810.52H1057.35Z" fill="#878585"></path>
  <path d="M1013.59 1824.32V1856.48C1013.59 1858.72 1014.11 1860.36 1015.15 1861.4C1016.27 1862.36 1018.11 1862.84 1020.67 1862.84H1028.47V1877H1017.91C1003.75 1877 996.67 1870.12 996.67 1856.36V1824.32H988.75V1810.52H996.67V1794.08H1013.59V1810.52H1028.47V1824.32H1013.59Z" fill="#878585"></path>
  <path d="M962.315 1820.84C964.475 1817.32 967.275 1814.56 970.715 1812.56C974.235 1810.56 978.235 1809.56 982.715 1809.56V1827.2H978.275C972.995 1827.2 968.995 1828.44 966.275 1830.92C963.635 1833.4 962.315 1837.72 962.315 1843.88V1877H945.515V1810.52H962.315V1820.84Z" fill="#878585"></path>
  <path d="M933.252 1842.32C933.252 1844.72 933.092 1846.88 932.772 1848.8H884.172C884.572 1853.6 886.252 1857.36 889.212 1860.08C892.172 1862.8 895.812 1864.16 900.132 1864.16C906.372 1864.16 910.812 1861.48 913.452 1856.12H931.572C929.652 1862.52 925.972 1867.8 920.532 1871.96C915.092 1876.04 908.412 1878.08 900.492 1878.08C894.092 1878.08 888.332 1876.68 883.212 1873.88C878.172 1871 874.212 1866.96 871.332 1861.76C868.532 1856.56 867.132 1850.56 867.132 1843.76C867.132 1836.88 868.532 1830.84 871.332 1825.64C874.132 1820.44 878.052 1816.44 883.092 1813.64C888.132 1810.84 893.932 1809.44 900.492 1809.44C906.812 1809.44 912.452 1810.8 917.412 1813.52C922.452 1816.24 926.332 1820.12 929.052 1825.16C931.852 1830.12 933.252 1835.84 933.252 1842.32ZM915.852 1837.52C915.772 1833.2 914.212 1829.76 911.172 1827.2C908.132 1824.56 904.412 1823.24 900.012 1823.24C895.852 1823.24 892.332 1824.52 889.452 1827.08C886.652 1829.56 884.932 1833.04 884.292 1837.52H915.852Z" fill="#878585"></path>
  <path d="M775.263 1835C775.263 1826.76 777.103 1819.4 780.783 1812.92C784.543 1806.36 789.623 1801.28 796.023 1797.68C802.503 1794 809.743 1792.16 817.743 1792.16C827.103 1792.16 835.303 1794.56 842.343 1799.36C849.383 1804.16 854.303 1810.8 857.103 1819.28H837.783C835.863 1815.28 833.143 1812.28 829.623 1810.28C826.183 1808.28 822.183 1807.28 817.623 1807.28C812.743 1807.28 808.383 1808.44 804.543 1810.76C800.783 1813 797.823 1816.2 795.663 1820.36C793.583 1824.52 792.543 1829.4 792.543 1835C792.543 1840.52 793.583 1845.4 795.663 1849.64C797.823 1853.8 800.783 1857.04 804.543 1859.36C808.383 1861.6 812.743 1862.72 817.623 1862.72C822.183 1862.72 826.183 1861.72 829.623 1859.72C833.143 1857.64 835.863 1854.6 837.783 1850.6H857.103C854.303 1859.16 849.383 1865.84 842.343 1870.64C835.383 1875.36 827.183 1877.72 817.743 1877.72C809.743 1877.72 802.503 1875.92 796.023 1872.32C789.623 1868.64 784.543 1863.56 780.783 1857.08C777.103 1850.6 775.263 1843.24 775.263 1835Z" fill="#878585"></path>
  <path d="M750.14 1900.64C742.38 1893.12 736.34 1883.52 732.02 1871.84C727.78 1860.16 725.66 1847.64 725.66 1834.28C725.66 1820.6 727.9 1807.76 732.38 1795.76C736.86 1783.68 743.38 1773.8 751.94 1766.12H768.86V1767.68C760.06 1776.08 753.34 1786.16 748.7 1797.92C744.14 1809.68 741.86 1821.8 741.86 1834.28C741.86 1846.44 744.02 1858.2 748.34 1869.56C752.74 1880.84 758.98 1890.64 767.06 1898.96V1900.64H750.14Z" fill="#878585"></path>
  <path d="M596.317 1835C596.317 1826.76 598.157 1819.4 601.837 1812.92C605.597 1806.36 610.677 1801.28 617.077 1797.68C623.557 1794 630.797 1792.16 638.797 1792.16C648.157 1792.16 656.357 1794.56 663.397 1799.36C670.437 1804.16 675.357 1810.8 678.157 1819.28H658.837C656.917 1815.28 654.197 1812.28 650.677 1810.28C647.237 1808.28 643.237 1807.28 638.677 1807.28C633.797 1807.28 629.437 1808.44 625.597 1810.76C621.837 1813 618.877 1816.2 616.717 1820.36C614.637 1824.52 613.597 1829.4 613.597 1835C613.597 1840.52 614.637 1845.4 616.717 1849.64C618.877 1853.8 621.837 1857.04 625.597 1859.36C629.437 1861.6 633.797 1862.72 638.677 1862.72C643.237 1862.72 647.237 1861.72 650.677 1859.72C654.197 1857.64 656.917 1854.6 658.837 1850.6H678.157C675.357 1859.16 670.437 1865.84 663.397 1870.64C656.437 1875.36 648.237 1877.72 638.797 1877.72C630.797 1877.72 623.557 1875.92 617.077 1872.32C610.677 1868.64 605.597 1863.56 601.837 1857.08C598.157 1850.6 596.317 1843.24 596.317 1835Z" fill="#878585"></path>
  <path d="M581.557 1827.08V1841.24H530.677V1827.08H581.557Z" fill="#878585"></path>
  <path d="M492.158 1863.68H519.758V1877H475.358V1793.24H492.158V1863.68Z" fill="#878585"></path>
  <path d="M437.08 1863.68H464.68V1877H420.28V1793.24H437.08V1863.68Z" fill="#878585"></path>
</svg>
