<?xml version="1.0" encoding="UTF-8"?>
<svg xmlns="http://www.w3.org/2000/svg" width="2000" height="2000" viewBox="0 0 2000 2000" fill="none">
  <path fill-rule="evenodd" clip-rule="evenodd" d="M319 54H50V311H319V54ZM83 81H286V284H83V81ZM215 122H253V254L233 237.5L215 254V122ZM181 168H116V190H181V168ZM116 122H174V141H116V122ZM193 204H116V222H193V204ZM116 236H187V254H116V236Z" fill="white"></path>
  <path fill-rule="evenodd" clip-rule="evenodd" d="M1014 1946C1530.39 1946 1949 1527.39 1949 1011C1949 494.614 1530.39 76 1014 76C497.614 76 79 494.614 79 1011C79 1527.39 497.614 1946 1014 1946ZM1789 1011C1789 1439.02 1442.02 1786 1014 1786C585.979 1786 239 1439.02 239 1011C239 582.979 585.979 236 1014 236C1442.02 236 1789 582.979 1789 1011ZM286.879 563.952C284.543 560.382 281.4 557.546 277.452 555.443C273.18 553.168 268.894 552.09 264.593 552.21C260.292 552.329 256.204 553.766 252.327 556.52C248.451 559.275 245.065 563.371 242.17 568.808L227.848 595.702L296.007 631.998L304.848 615.395L280.381 602.366L285.861 592.074C288.826 586.508 290.304 581.313 290.297 576.49C290.289 571.667 289.15 567.488 286.879 563.952ZM273.526 578.028C274.187 580.374 273.674 583.133 271.985 586.305L267.176 595.334L250.088 586.235L254.897 577.205C256.586 574.033 258.588 572.067 260.904 571.307C263.22 570.546 265.737 570.889 268.456 572.337C271.174 573.785 272.864 575.682 273.526 578.028ZM355.14 536.824L321.95 534.36L319.487 538.138L343.907 554.056L333.636 569.814L268.946 527.647L286.185 501.199C289.509 496.1 293.223 492.35 297.327 489.948C301.471 487.485 305.691 486.383 309.985 486.644C314.218 486.865 318.239 488.216 322.048 490.699C326.348 493.502 329.387 497.234 331.164 501.894C332.981 506.492 333.055 511.617 331.384 517.268L366.733 519.039L355.14 536.824ZM308.337 530.87L314.704 521.102C316.586 518.215 317.281 515.604 316.789 513.27C316.338 510.874 314.821 508.836 312.241 507.154C309.784 505.552 307.368 505.028 304.994 505.581C302.66 506.073 300.552 507.763 298.67 510.65L292.303 520.418L308.337 530.87ZM385.91 492.725C392.341 490.066 397.819 485.897 402.342 480.219C406.866 474.54 409.681 468.298 410.79 461.493C411.898 454.688 411.197 448.035 408.687 441.535C406.119 434.989 401.881 429.363 395.974 424.657C390.066 419.951 383.663 417.101 376.767 416.108C369.916 415.057 363.275 415.861 356.844 418.52C350.459 421.121 345.004 425.261 340.481 430.94C335.957 436.618 333.118 442.889 331.965 449.751C330.856 456.557 331.534 463.238 333.999 469.795C336.509 476.295 340.718 481.898 346.626 486.605C352.534 491.311 358.965 494.184 365.919 495.223C372.861 496.159 379.525 495.326 385.91 492.725ZM393.286 454.159C394.214 459.586 392.758 464.708 388.92 469.527C385.036 474.402 380.352 477.046 374.867 477.458C369.37 477.767 363.955 475.797 358.62 471.548C353.229 467.253 350.098 462.415 349.228 457.034C348.403 451.596 349.933 446.439 353.817 441.563C357.655 436.745 362.322 434.181 367.819 433.872C373.304 433.46 378.714 435.379 384.048 439.628C389.325 443.832 392.404 448.675 393.286 454.159ZM420.842 350.732L431.537 361.349L409.372 383.675L420.926 395.145L437.51 378.439L447.893 388.747L431.308 405.452L453.478 427.462L440.226 440.811L385.425 386.407L420.842 350.732ZM472.116 349.59L461.945 337.735L483.568 319.184L473.756 307.746L437.857 338.545L488.137 397.152L524.036 366.354L514.223 354.916L492.6 373.467L481.57 360.61L500.689 344.208L491.234 333.188L472.116 349.59ZM560.924 342.497C556.37 345.835 551.747 348.087 547.055 349.253C542.363 350.419 537.861 350.355 533.548 349.061C529.295 347.724 525.613 345.058 522.503 341.063L538.65 329.228C540.577 331.361 542.676 332.55 544.947 332.795C547.175 332.981 549.382 332.271 551.571 330.667C553.818 329.02 555.224 327.216 555.788 325.257C556.309 323.239 555.898 321.313 554.554 319.479C553.426 317.942 551.962 317.06 550.16 316.835C548.418 316.567 546.539 316.671 544.525 317.147C542.569 317.581 539.898 318.402 536.511 319.612C531.579 321.318 527.386 322.482 523.932 323.104C520.478 323.726 516.946 323.497 513.335 322.416C509.724 321.335 506.488 318.843 503.626 314.939C499.378 309.143 498.161 303.079 499.975 296.748C501.747 290.358 506.004 284.691 512.746 279.749C519.607 274.72 526.351 272.322 532.978 272.556C539.562 272.731 545.148 275.638 549.736 281.276L533.323 293.307C531.731 291.383 529.843 290.358 527.658 290.231C525.431 290.045 523.253 290.733 521.123 292.293C519.29 293.637 518.18 295.224 517.793 297.053C517.363 298.823 517.82 300.625 519.164 302.459C520.638 304.47 522.733 305.343 525.45 305.08C528.166 304.816 532.012 303.861 536.988 302.214C542.007 300.626 546.214 299.543 549.608 298.964C553.062 298.342 556.572 298.542 560.14 299.563C563.708 300.585 566.857 302.959 569.589 306.685C572.19 310.234 573.636 314.129 573.927 318.372C574.277 322.57 573.365 326.785 571.192 331.014C569.019 335.244 565.596 339.072 560.924 342.497ZM607.95 310.766C612.726 310.016 617.528 308.179 622.358 305.253C627.313 302.252 631.059 298.74 633.595 294.717C636.131 290.694 637.409 286.576 637.429 282.363C637.512 278.112 636.414 274.105 634.134 270.341C631.741 266.39 628.812 263.748 625.348 262.417C621.883 261.086 618.404 260.579 614.909 260.895C611.477 261.174 607.191 261.883 602.052 263.024C596.951 264.228 593.036 264.842 590.307 264.866C587.578 264.89 585.567 263.836 584.275 261.703C583.098 259.759 582.801 257.924 583.384 256.198C583.93 254.41 585.175 252.927 587.12 251.749C589.378 250.381 591.608 249.888 593.811 250.268C595.975 250.586 597.766 251.774 599.183 253.83L616.589 243.287C612.514 237.267 607.205 233.881 600.662 233.129C594.081 232.314 587.153 234.11 579.877 238.517C572.726 242.849 567.988 248.119 565.662 254.329C563.299 260.477 563.978 266.624 567.702 272.771C570.209 276.911 573.214 279.677 576.716 281.071C580.219 282.465 583.717 283.004 587.212 282.687C590.707 282.371 594.986 281.579 600.049 280.313C603.529 279.405 606.262 278.822 608.248 278.562C610.297 278.264 612.177 278.325 613.89 278.746C615.664 279.128 617.046 280.135 618.034 281.766C619.212 283.71 619.452 285.665 618.756 287.63C618.022 289.532 616.464 291.205 614.08 292.648C611.759 294.054 609.498 294.567 607.295 294.186C605.055 293.743 603.068 292.374 601.335 290.08L584.212 300.452C586.959 304.704 590.392 307.683 594.512 309.388C598.694 311.056 603.174 311.515 607.95 310.766ZM644.497 207.458L678.5 276.789L661.612 285.072L627.609 215.741L644.497 207.458ZM705.845 260.47C712.775 261.103 719.562 259.955 726.206 257.027C732.849 254.1 738.242 249.88 742.385 244.368C746.527 238.857 748.996 232.64 749.793 225.717C750.559 218.728 749.42 211.777 746.374 204.865C743.328 197.953 738.982 192.456 733.336 188.373C727.757 184.26 721.502 181.887 714.572 181.255C707.709 180.593 700.956 181.726 694.312 184.653C687.669 187.581 682.242 191.815 678.033 197.357C673.89 202.868 671.388 209.1 670.524 216.052C669.728 222.974 670.853 229.891 673.899 236.803C676.945 243.715 681.305 249.246 686.981 253.397C692.694 257.45 698.982 259.808 705.845 260.47ZM730.29 229.744C728.591 234.98 724.923 238.84 719.286 241.325C713.582 243.838 708.205 244.004 703.157 241.821C698.145 239.542 694.264 235.281 691.514 229.041C688.734 222.733 688.209 216.994 689.938 211.824C691.734 206.625 695.484 202.769 701.188 200.255C706.825 197.771 712.149 197.669 717.16 199.948C722.209 202.131 726.109 206.343 728.859 212.584C731.58 218.758 732.057 224.478 730.29 229.744ZM844.297 219.193L826.341 224.796L782.12 188.701L796.309 234.168L778.353 239.771L755.349 166.057L773.305 160.454L817.592 196.76L803.337 151.082L821.293 145.479L844.297 219.193ZM881.102 201.7L909.39 196.192L916.532 208.697L936.075 204.892L893.892 134.435L872.514 138.598L859.846 219.734L879.174 215.971L881.102 201.7ZM887.068 156.944L901.865 182.864L883.185 186.501L887.068 156.944ZM966.358 191.486L990.901 189.304L992.188 203.767L948.909 207.615L942.068 130.699L960.804 129.033L966.358 191.486ZM1051 203.544C1055.44 205.463 1060.48 206.477 1066.12 206.586C1071.92 206.698 1076.96 205.732 1081.25 203.688C1085.55 201.643 1088.83 198.846 1091.1 195.296C1093.44 191.747 1094.65 187.773 1094.74 183.374C1094.83 178.755 1093.76 174.957 1091.55 171.98C1089.33 169.004 1086.66 166.715 1083.54 165.114C1080.49 163.515 1076.49 161.824 1071.53 160.042C1066.58 158.333 1062.94 156.759 1060.62 155.32C1058.3 153.882 1057.17 151.916 1057.22 149.424C1057.26 147.151 1057.99 145.441 1059.41 144.295C1060.82 143.075 1062.67 142.487 1064.94 142.531C1067.58 142.582 1069.73 143.357 1071.39 144.856C1073.05 146.282 1073.93 148.242 1074.02 150.738L1094.37 151.131C1094.14 143.865 1091.47 138.166 1086.34 134.033C1081.21 129.826 1074.4 127.641 1065.89 127.477C1057.53 127.316 1050.71 129.238 1045.43 133.243C1040.14 137.175 1037.43 142.734 1037.29 149.919C1037.2 154.758 1038.26 158.703 1040.47 161.753C1042.69 164.803 1045.36 167.128 1048.48 168.729C1051.6 170.329 1055.64 171.947 1060.6 173.583C1064.03 174.676 1066.65 175.644 1068.47 176.486C1070.36 177.329 1071.91 178.386 1073.14 179.656C1074.43 180.928 1075.06 182.517 1075.02 184.424C1074.98 186.697 1074.14 188.477 1072.5 189.766C1070.86 190.981 1068.65 191.562 1065.87 191.508C1063.15 191.456 1060.97 190.68 1059.31 189.181C1057.65 187.609 1056.71 185.39 1056.47 182.525L1036.45 182.139C1036.5 187.201 1037.81 191.554 1040.38 195.197C1043.02 198.842 1046.56 201.624 1051 203.544ZM1112.23 171.684C1113.05 164.102 1115.42 157.536 1119.34 151.986C1123.27 146.363 1128.33 142.227 1134.52 139.579C1140.79 136.865 1147.64 135.911 1155.08 136.717C1164.19 137.704 1171.73 140.956 1177.7 146.47C1183.67 151.985 1187.29 159.017 1188.58 167.565L1168.02 165.338C1166.84 161.964 1164.91 159.284 1162.25 157.299C1159.66 155.322 1156.58 154.14 1153.01 153.753C1147.25 153.129 1142.37 154.628 1138.36 158.251C1134.35 161.874 1131.99 167.039 1131.26 173.746C1130.53 180.454 1131.74 186.006 1134.88 190.403C1138.01 194.8 1142.46 197.31 1148.22 197.935C1151.8 198.322 1155.06 197.827 1158.01 196.45C1161.03 195.082 1163.49 192.876 1165.37 189.834L1185.92 192.062C1182.84 200.136 1177.79 206.228 1170.78 210.337C1163.78 214.372 1155.72 215.897 1146.6 214.909C1139.17 214.103 1132.68 211.74 1127.13 207.819C1121.66 203.833 1117.6 198.71 1114.96 192.449C1112.32 186.188 1111.41 179.267 1112.23 171.684ZM1226.31 201.765L1235.78 233.672L1256.52 238.206L1245.64 204.526C1251.51 204.084 1256.28 202.198 1259.94 198.868C1263.66 195.555 1266.07 191.39 1267.17 186.375C1268.14 181.933 1267.98 177.694 1266.69 173.658C1265.41 169.55 1262.88 165.996 1259.11 162.994C1255.41 160.008 1250.58 157.865 1244.64 156.566L1213.79 149.824L1197.31 225.263L1215.68 229.28L1221.91 200.802L1226.31 201.765ZM1236.14 190.289L1224.75 187.799L1228.84 169.101L1240.23 171.59C1243.59 172.326 1245.92 173.698 1247.21 175.706C1248.57 177.73 1248.93 180.175 1248.31 183.04C1247.65 186.049 1246.28 188.19 1244.2 189.462C1242.19 190.749 1239.51 191.025 1236.14 190.289ZM1312.91 178.021L1298.81 222.018C1297.4 226.418 1297.4 230.152 1298.8 233.22C1300.21 236.288 1303.01 238.493 1307.2 239.836C1311.39 241.178 1314.98 241.02 1317.98 239.361C1320.97 237.703 1323.17 234.674 1324.58 230.274L1338.68 186.277L1356.59 192.016L1342.53 235.908C1340.43 242.473 1337.25 247.578 1333 251.222C1328.76 254.866 1323.89 257.08 1318.4 257.863C1312.98 258.669 1307.38 258.143 1301.58 256.286C1295.78 254.429 1290.94 251.645 1287.05 247.933C1283.24 244.175 1280.74 239.6 1279.54 234.211C1278.37 228.751 1278.83 222.739 1280.93 216.175L1295 172.282L1312.91 178.021ZM1428.66 310.553L1459.54 239.774L1439.27 230.934L1398.24 271.358L1399.75 213.693L1379.39 204.808L1348.51 275.587L1365.75 283.108L1384.31 240.56L1381.68 290.057L1395.59 296.127L1429.94 260.585L1411.42 303.032L1428.66 310.553ZM1582.65 323.877L1540.48 388.567L1524.72 378.296L1550.01 339.5L1510.25 368.865L1497.54 360.576L1508.32 312.197L1482.98 351.085L1467.22 340.813L1509.38 276.123L1528 288.257L1516.96 344.876L1564.12 311.803L1582.65 323.877ZM1573.42 405.589L1595.36 424.274L1590.03 437.654L1605.19 450.563L1633.99 373.658L1617.4 359.537L1546.07 400.212L1561.06 412.978L1573.42 405.589ZM1612.13 382.354L1601.09 410.082L1586.6 397.744L1612.13 382.354ZM1631.2 484.274C1627.31 480.181 1624.49 475.882 1622.74 471.377C1620.98 466.871 1620.48 462.397 1621.21 457.955C1622 453.566 1624.17 449.575 1627.74 445.983L1641.53 460.495C1639.66 462.678 1638.75 464.911 1638.79 467.194C1638.89 469.427 1639.88 471.527 1641.75 473.494C1643.67 475.514 1645.63 476.679 1647.65 476.99C1649.72 477.25 1651.57 476.597 1653.22 475.031C1654.6 473.717 1655.29 472.153 1655.29 470.337C1655.33 468.575 1654.99 466.725 1654.26 464.787C1653.58 462.902 1652.43 460.357 1650.8 457.151C1648.48 452.476 1646.79 448.465 1645.74 445.118C1644.68 441.772 1644.46 438.239 1645.07 434.52C1645.69 430.8 1647.75 427.274 1651.25 423.94C1656.46 418.989 1662.32 417.011 1668.83 418.007C1675.4 418.952 1681.56 422.454 1687.32 428.514C1693.18 434.68 1696.41 441.065 1697.02 447.668C1697.69 454.221 1695.51 460.13 1690.5 465.398L1676.48 450.647C1678.19 448.823 1678.97 446.82 1678.82 444.637C1678.72 442.404 1677.76 440.331 1675.94 438.417C1674.37 436.769 1672.66 435.87 1670.8 435.719C1668.99 435.517 1667.26 436.199 1665.61 437.765C1663.8 439.483 1663.2 441.672 1663.81 444.333C1664.41 446.994 1665.85 450.687 1668.12 455.413C1670.33 460.19 1671.94 464.225 1672.94 467.518C1674 470.865 1674.25 474.373 1673.69 478.041C1673.13 481.71 1671.17 485.136 1667.82 488.318C1664.63 491.349 1660.95 493.279 1656.78 494.106C1652.66 494.987 1648.37 494.618 1643.9 493C1639.42 491.382 1635.19 488.474 1631.2 484.274ZM1742.52 522.608L1754.3 513.218L1717.09 466.499L1705.3 475.889L1718.05 491.892L1669.44 530.616L1681.16 545.328L1729.77 506.605L1742.52 522.608ZM1761.86 555.102L1748.87 563.775L1762.86 584.725L1750.78 592.787L1736.79 571.837L1722.7 581.243L1738.52 604.938L1725.99 613.305L1699.73 573.966L1763.95 531.09L1790.21 570.429L1777.68 578.796L1761.86 555.102ZM1769.15 633.904L1751.59 662.177L1761.99 680.69L1779.93 650.183C1784.17 654.281 1788.74 656.59 1793.66 657.11C1798.61 657.694 1803.33 656.729 1807.8 654.217C1811.77 651.991 1814.83 649.054 1816.98 645.405C1819.2 641.72 1820.18 637.47 1819.92 632.656C1819.69 627.906 1818.09 622.878 1815.11 617.57L1799.66 590.04L1732.32 627.836L1741.53 644.239L1766.95 629.971L1769.15 633.904ZM1784.26 633.624L1778.55 623.457L1795.24 614.088L1800.95 624.256C1802.64 627.262 1803.16 629.913 1802.51 632.209C1801.9 634.569 1800.32 636.467 1797.76 637.903C1795.08 639.411 1792.57 639.81 1790.23 639.101C1787.94 638.455 1785.95 636.63 1784.26 633.624Z" fill="white"></path>
  <path d="M1637.73 955V1304H1567.73V955H1637.73Z" fill="white"></path>
  <path d="M1379.39 955V1304H1309.39V1077L1215.89 1304H1162.89L1068.89 1077V1304H998.887V955H1078.39L1189.39 1214.5L1300.39 955H1379.39Z" fill="white"></path>
  <path d="M814.699 1307.5C790.366 1307.5 768.366 1303.33 748.699 1295C729.366 1286.67 714.033 1274.67 702.699 1259C691.366 1243.33 685.533 1224.83 685.199 1203.5H760.199C761.199 1217.83 766.199 1229.17 775.199 1237.5C784.533 1245.83 797.199 1250 813.199 1250C829.533 1250 842.366 1246.17 851.699 1238.5C861.033 1230.5 865.699 1220.17 865.699 1207.5C865.699 1197.17 862.533 1188.67 856.199 1182C849.866 1175.33 841.866 1170.17 832.199 1166.5C822.866 1162.5 809.866 1158.17 793.199 1153.5C770.533 1146.83 752.033 1140.33 737.699 1134C723.699 1127.33 711.533 1117.5 701.199 1104.5C691.199 1091.17 686.199 1073.5 686.199 1051.5C686.199 1030.83 691.366 1012.83 701.699 997.5C712.033 982.167 726.533 970.5 745.199 962.5C763.866 954.167 785.199 950 809.199 950C845.199 950 874.366 958.833 896.699 976.5C919.366 993.833 931.866 1018.17 934.199 1049.5H857.199C856.533 1037.5 851.366 1027.67 841.699 1020C832.366 1012 819.866 1008 804.199 1008C790.533 1008 779.533 1011.5 771.199 1018.5C763.199 1025.5 759.199 1035.67 759.199 1049C759.199 1058.33 762.199 1066.17 768.199 1072.5C774.533 1078.5 782.199 1083.5 791.199 1087.5C800.533 1091.17 813.533 1095.5 830.199 1100.5C852.866 1107.17 871.366 1113.83 885.699 1120.5C900.033 1127.17 912.366 1137.17 922.699 1150.5C933.033 1163.83 938.199 1181.33 938.199 1203C938.199 1221.67 933.366 1239 923.699 1255C914.033 1271 899.866 1283.83 881.199 1293.5C862.533 1302.83 840.366 1307.5 814.699 1307.5Z" fill="white"></path>
  <path d="M644.5 1063C644.5 1081.67 640 1099.17 631 1115.5C622.333 1131.83 608.5 1145 589.5 1155C570.833 1165 547.167 1170 518.5 1170H460V1304H390V955H518.5C545.5 955 568.5 959.667 587.5 969C606.5 978.333 620.667 991.167 630 1007.5C639.667 1023.83 644.5 1042.33 644.5 1063ZM515.5 1113.5C534.833 1113.5 549.167 1109.17 558.5 1100.5C567.833 1091.5 572.5 1079 572.5 1063C572.5 1029 553.5 1012 515.5 1012H460V1113.5H515.5Z" fill="white"></path>
  <path fill-rule="evenodd" clip-rule="evenodd" d="M536.542 499.085C526.935 507.087 515.9 513.159 503.435 517.294C506.468 518.214 508.673 519.87 510.056 522.26C503.2 526.865 497.681 532.934 493.503 540.469C496.814 541.571 500.124 542.677 503.435 543.78C487.547 559.81 482.581 579.122 488.537 601.717C494.039 613.285 502.316 622.115 513.367 628.203C514.47 628.203 515.575 628.203 516.678 628.203C517.81 630.977 520.015 632.083 523.299 631.514C525.508 631.514 527.713 631.514 529.921 631.514C562.432 636.659 584.501 623.416 596.135 591.785C601.406 595.434 604.164 593.225 604.412 585.164C605.107 590.322 606.763 594.735 609.378 598.407C598.784 626.667 578.919 644.323 549.785 651.378C537.645 651.378 525.508 651.378 513.367 651.378C470.573 635.351 452.364 604.452 458.74 558.678C465.372 532.186 481.372 513.977 506.746 504.051C516.324 500.247 526.256 498.592 536.542 499.085Z" fill="white"></path>
  <path fill-rule="evenodd" clip-rule="evenodd" d="M619.31 548.746C621.518 548.746 623.723 548.746 625.932 548.746C684.376 563.601 711.411 601.125 707.044 661.311C689.905 727.042 647.415 754.077 579.582 742.423C545.746 731.213 523.673 708.588 513.367 674.553C514.099 665.955 515.754 665.955 518.333 674.553C519.436 672.345 520.542 670.14 521.644 667.932C524.491 678.304 529.457 687.134 536.542 694.418C543.392 704.592 552.222 712.316 563.028 717.593C555.304 708.763 547.577 699.937 539.853 691.107C539.853 688.899 540.955 687.796 543.164 687.796C552.056 694.759 561.439 701.38 571.305 707.661C572.96 707.108 574.615 706.558 576.271 706.005C562.187 685.585 564.392 683.38 582.892 699.384C652.172 717.318 684.73 690.279 680.559 618.271C667.392 585.717 643.664 568.061 609.378 565.3C614.185 562.644 619.701 560.989 625.932 560.334C616.142 559.41 607.315 556.649 599.446 552.057C606.845 553.033 613.467 551.928 619.31 548.746Z" fill="white"></path>
  <path d="M1483.09 620.789C1489.91 620.789 1495.86 622.277 1500.95 625.253C1506.13 628.229 1509.97 631.973 1512.47 636.485V622.085H1525.72V702.725C1525.72 709.925 1524.18 716.309 1521.11 721.877C1518.04 727.541 1513.62 731.957 1507.86 735.125C1502.2 738.293 1495.57 739.877 1487.99 739.877C1477.62 739.877 1468.98 737.429 1462.07 732.533C1455.16 727.637 1451.08 720.965 1449.83 712.517H1462.79C1464.23 717.317 1467.21 721.157 1471.72 724.037C1476.23 727.013 1481.65 728.501 1487.99 728.501C1495.19 728.501 1501.05 726.245 1505.56 721.733C1510.17 717.221 1512.47 710.885 1512.47 702.725V686.165C1509.88 690.773 1506.04 694.613 1500.95 697.685C1495.86 700.757 1489.91 702.293 1483.09 702.293C1476.09 702.293 1469.7 700.565 1463.94 697.109C1458.28 693.653 1453.81 688.805 1450.55 682.565C1447.29 676.325 1445.65 669.221 1445.65 661.253C1445.65 653.189 1447.29 646.133 1450.55 640.085C1453.81 633.941 1458.28 629.189 1463.94 625.829C1469.7 622.469 1476.09 620.789 1483.09 620.789ZM1512.47 661.397C1512.47 655.445 1511.27 650.261 1508.87 645.845C1506.47 641.429 1503.21 638.069 1499.08 635.765C1495.05 633.365 1490.58 632.165 1485.69 632.165C1480.79 632.165 1476.33 633.317 1472.29 635.621C1468.26 637.925 1465.05 641.285 1462.65 645.701C1460.25 650.117 1459.05 655.301 1459.05 661.253C1459.05 667.301 1460.25 672.581 1462.65 677.093C1465.05 681.509 1468.26 684.917 1472.29 687.317C1476.33 689.621 1480.79 690.773 1485.69 690.773C1490.58 690.773 1495.05 689.621 1499.08 687.317C1503.21 684.917 1506.47 681.509 1508.87 677.093C1511.27 672.581 1512.47 667.349 1512.47 661.397Z" fill="white"></path>
  <path d="M1407.06 634.904C1409.36 630.392 1412.62 626.888 1416.85 624.392C1421.17 621.896 1426.4 620.648 1432.54 620.648V634.184H1429.09C1414.4 634.184 1407.06 642.152 1407.06 658.088V701H1393.95V622.088H1407.06V634.904Z" fill="white"></path>
  <path d="M1333.38 702.293C1325.99 702.293 1319.27 700.613 1313.22 697.253C1307.27 693.893 1302.56 689.141 1299.11 682.997C1295.75 676.757 1294.07 669.557 1294.07 661.397C1294.07 653.333 1295.79 646.229 1299.25 640.085C1302.8 633.845 1307.6 629.093 1313.65 625.829C1319.7 622.469 1326.47 620.789 1333.95 620.789C1341.44 620.789 1348.21 622.469 1354.26 625.829C1360.31 629.093 1365.06 633.797 1368.51 639.941C1372.07 646.085 1373.84 653.237 1373.84 661.397C1373.84 669.557 1372.02 676.757 1368.37 682.997C1364.82 689.141 1359.97 693.893 1353.83 697.253C1347.68 700.613 1340.87 702.293 1333.38 702.293ZM1333.38 690.773C1338.08 690.773 1342.5 689.669 1346.63 687.461C1350.75 685.253 1354.07 681.941 1356.56 677.525C1359.15 673.109 1360.45 667.733 1360.45 661.397C1360.45 655.061 1359.2 649.685 1356.71 645.269C1354.21 640.853 1350.95 637.589 1346.91 635.477C1342.88 633.269 1338.51 632.165 1333.81 632.165C1329.01 632.165 1324.59 633.269 1320.56 635.477C1316.63 637.589 1313.46 640.853 1311.06 645.269C1308.66 649.685 1307.46 655.061 1307.46 661.397C1307.46 667.829 1308.61 673.253 1310.91 677.669C1313.31 682.085 1316.48 685.397 1320.42 687.605C1324.35 689.717 1328.67 690.773 1333.38 690.773Z" fill="white"></path>
  <path d="M1266.45 702.007C1262.8 702.007 1259.78 700.903 1257.38 698.695C1255.08 696.391 1253.92 693.559 1253.92 690.199C1253.92 686.839 1255.08 684.055 1257.38 681.847C1259.78 679.543 1262.8 678.391 1266.45 678.391C1270 678.391 1272.93 679.543 1275.24 681.847C1277.54 684.055 1278.69 686.839 1278.69 690.199C1278.69 693.559 1277.54 696.391 1275.24 698.695C1272.93 700.903 1270 702.007 1266.45 702.007Z" fill="white"></path>
  <path d="M1202.82 620.07C1212.62 620.07 1220.49 623.094 1226.44 629.142C1232.49 635.094 1235.51 643.446 1235.51 654.198V700.998H1215.35V656.934C1215.35 650.694 1213.77 645.942 1210.6 642.678C1207.43 639.318 1203.11 637.638 1197.64 637.638C1192.17 637.638 1187.8 639.318 1184.54 642.678C1181.37 645.942 1179.78 650.694 1179.78 656.934V700.998H1159.62V656.934C1159.62 650.694 1158.04 645.942 1154.87 642.678C1151.7 639.318 1147.38 637.638 1141.91 637.638C1136.34 637.638 1131.93 639.318 1128.66 642.678C1125.5 645.942 1123.91 650.694 1123.91 656.934V700.998H1103.75V621.222H1123.91V630.87C1126.5 627.51 1129.82 624.87 1133.85 622.95C1137.98 621.03 1142.49 620.07 1147.38 620.07C1153.62 620.07 1159.19 621.414 1164.09 624.102C1168.98 626.694 1172.78 630.438 1175.46 635.334C1178.06 630.726 1181.8 627.03 1186.7 624.246C1191.69 621.462 1197.06 620.07 1202.82 620.07Z" fill="white"></path>
  <path d="M1080.98 621.223V700.999H1060.68V690.919C1058.09 694.375 1054.68 697.111 1050.45 699.127C1046.33 701.047 1041.81 702.007 1036.92 702.007C1030.68 702.007 1025.16 700.711 1020.36 698.119C1015.56 695.431 1011.77 691.543 1008.98 686.455C1006.29 681.271 1004.95 675.127 1004.95 668.023V621.223H1025.11V665.143C1025.11 671.479 1026.69 676.375 1029.86 679.831C1033.03 683.191 1037.35 684.871 1042.82 684.871C1048.39 684.871 1052.76 683.191 1055.93 679.831C1059.09 676.375 1060.68 671.479 1060.68 665.143V621.223H1080.98Z" fill="white"></path>
  <path d="M964.73 633.606C967.322 629.382 970.682 626.07 974.81 623.67C979.034 621.27 983.834 620.07 989.21 620.07V641.238H983.882C977.546 641.238 972.746 642.726 969.482 645.702C966.314 648.678 964.73 653.862 964.73 661.254V700.998H944.57V621.222H964.73V633.606Z" fill="white"></path>
  <path d="M849.882 661.11C849.882 652.854 851.562 645.654 854.922 639.51C858.282 633.27 862.938 628.47 868.89 625.11C874.842 621.654 881.658 619.926 889.338 619.926C899.226 619.926 907.386 622.422 913.818 627.414C920.346 632.31 924.714 639.222 926.922 648.15H905.178C904.026 644.694 902.058 642.006 899.274 640.086C896.586 638.07 893.226 637.062 889.194 637.062C883.434 637.062 878.874 639.174 875.514 643.398C872.154 647.526 870.474 653.43 870.474 661.11C870.474 668.694 872.154 674.598 875.514 678.822C878.874 682.95 883.434 685.014 889.194 685.014C897.354 685.014 902.682 681.366 905.178 674.07H926.922C924.714 682.71 920.346 689.574 913.818 694.662C907.29 699.75 899.13 702.294 889.338 702.294C881.658 702.294 874.842 700.614 868.89 697.254C862.938 693.798 858.282 688.998 854.922 682.854C851.562 676.614 849.882 669.366 849.882 661.11Z" fill="white"></path>
  <path d="M799.14 702.007C792.132 702.007 785.796 700.807 780.132 698.407C774.564 696.007 770.148 692.551 766.884 688.039C763.62 683.527 761.94 678.199 761.844 672.055H783.444C783.732 676.183 785.172 679.447 787.764 681.847C790.452 684.247 794.1 685.447 798.708 685.447C803.412 685.447 807.108 684.343 809.796 682.135C812.484 679.831 813.828 676.855 813.828 673.207C813.828 670.231 812.916 667.783 811.092 665.863C809.268 663.943 806.964 662.455 804.18 661.399C801.492 660.247 797.748 658.999 792.948 657.655C786.42 655.735 781.092 653.863 776.964 652.039C772.932 650.119 769.428 647.287 766.452 643.543C763.572 639.703 762.132 634.615 762.132 628.279C762.132 622.327 763.62 617.143 766.596 612.727C769.572 608.311 773.748 604.951 779.124 602.647C784.5 600.247 790.644 599.047 797.556 599.047C807.924 599.047 816.324 601.591 822.756 606.679C829.284 611.671 832.884 618.679 833.556 627.703H811.38C811.188 624.247 809.7 621.415 806.916 619.207C804.228 616.903 800.628 615.751 796.116 615.751C792.18 615.751 789.012 616.759 786.612 618.775C784.308 620.791 783.156 623.719 783.156 627.559C783.156 630.247 784.02 632.503 785.748 634.327C787.572 636.055 789.78 637.495 792.372 638.647C795.06 639.703 798.804 640.951 803.604 642.391C810.132 644.311 815.46 646.231 819.588 648.151C823.716 650.071 827.268 652.951 830.244 656.791C833.22 660.631 834.708 665.671 834.708 671.911C834.708 677.287 833.316 682.279 830.532 686.887C827.748 691.495 823.668 695.191 818.292 697.975C812.916 700.663 806.532 702.007 799.14 702.007Z" fill="white"></path>
  <path d="M1569.6 605.898V626.001H1565.57V612.926L1560.18 626.001H1557.13L1551.72 612.926V626.001H1547.69V605.898H1552.26L1558.66 620.846L1565.05 605.898H1569.6Z" fill="white"></path>
  <path d="M1544.17 605.898V609.153H1538.81V626.001H1534.78V609.153H1529.42V605.898H1544.17Z" fill="white"></path>
</svg>
