<svg width="66" height="38" viewBox="0 0 66 38" fill="none" xmlns="http://www.w3.org/2000/svg">
<g id="Group 1773">
<path id="Vector 41" d="M27.148 28.563L0.601562 23.0492L38.795 8.49561L65.6763 13.6781L27.148 28.563Z" fill="#505966"/>
<path id="Vector 39" d="M0.601562 23.0468H24.1347L46.9742 0.399902H0.601562V23.0468Z" fill="#8490A2"/>
<path id="Vector 40" d="M65.6993 13.6753H41.7836L18.2266 37.6H65.6993V13.6753Z" fill="#8490A2"/>
<g id="Vector">
<path d="M48.008 22.0003C47.3565 22.1805 46.8974 22.5633 46.59 23.1824C46.2899 23.787 46.1854 24.435 46.2776 25.1202C46.3791 25.8753 46.6961 26.4636 47.1986 26.8296C47.6574 27.1639 47.933 27.2481 48.5766 27.2506C49.0717 27.2525 49.1531 27.2404 49.3919 27.1296C49.5378 27.0619 49.7386 26.9357 49.8383 26.8491C50.0402 26.6737 50.0633 26.6847 50.1628 27.0042L50.218 27.1817H50.617H51.016V25.7382V24.2946H49.8441H48.6722V24.8389V25.3832H49.1036H49.535L49.5036 25.5134C49.431 25.8136 49.2316 25.9839 48.9035 26.0255C48.6434 26.0586 48.3145 25.9044 48.1626 25.6782C48.0146 25.4577 47.937 24.9296 47.9697 24.366C48.0124 23.6308 48.1504 23.3094 48.4956 23.142C48.859 22.9658 49.2768 23.2007 49.3981 23.6495C49.4548 23.8589 49.4649 23.8685 49.6268 23.8655C49.9408 23.8596 50.9645 23.746 50.9974 23.7135C51.0542 23.6574 50.828 23.0614 50.6482 22.7933C50.4458 22.4917 50.0943 22.2151 49.7245 22.0664C49.3794 21.9276 48.4062 21.8902 48.008 22.0003Z" fill="#181B21"/>
<path fill-rule="evenodd" clip-rule="evenodd" d="M52.9758 23.3612C51.5058 23.8571 51.1312 25.682 52.2808 26.7462C52.6628 27.0998 52.9833 27.2302 53.5511 27.2632C54.4751 27.3169 55.1748 27.0012 55.6013 26.338C55.9364 25.8169 55.9954 24.9743 55.7358 24.4163C55.3722 23.6346 54.7182 23.2521 53.7501 23.2546C53.4002 23.2555 53.2121 23.2814 52.9758 23.3612ZM53.2742 25.0587C53.2973 24.587 53.3768 24.3446 53.5391 24.2511C53.6898 24.1642 53.9303 24.1923 54.0498 24.3106C54.258 24.5167 54.3312 25.2434 54.2041 25.8437C54.1235 26.2243 54.0278 26.3298 53.7631 26.3298C53.3603 26.3298 53.2286 25.9874 53.2742 25.0587Z" fill="#181B21"/>
<path d="M56.5166 24.5786V27.1817H57.258H57.9994V24.5786V21.9755H57.258H56.5166V24.5786Z" fill="#181B21"/>
<path fill-rule="evenodd" clip-rule="evenodd" d="M61.1403 22.0071C61.1228 22.0244 61.1084 22.3902 61.1084 22.8199V23.6012L61.0008 23.5012C60.8044 23.3188 60.4847 23.2082 60.1518 23.2076C59.1722 23.2057 58.5516 24.125 58.6354 25.4541C58.6875 26.2815 58.9675 26.827 59.4859 27.1107C59.7169 27.2372 59.7896 27.2527 60.1518 27.2527C60.5083 27.2527 60.5857 27.2368 60.7801 27.1237C60.9021 27.0527 61.047 26.9249 61.1022 26.8397L61.2025 26.6847L61.2033 26.9332L61.2041 27.1817H61.9216H62.639V24.5786V21.9755H61.9056C61.5022 21.9755 61.1578 21.9897 61.1403 22.0071ZM60.3592 26.0539C60.1059 25.682 60.1826 24.476 60.4734 24.2591C60.6072 24.1593 60.8608 24.1872 60.991 24.3162C61.1057 24.4296 61.1084 24.4499 61.1084 25.1704C61.1084 25.9883 61.0679 26.1442 60.8348 26.2218C60.6414 26.2862 60.4782 26.2286 60.3592 26.0539Z" fill="#181B21"/>
<path fill-rule="evenodd" clip-rule="evenodd" d="M57.0917 30.4759C55.8939 30.7945 55.2671 32.1803 55.8069 33.3167C55.946 33.6095 56.3151 33.9981 56.5996 34.1513C57.2387 34.4955 58.2114 34.5184 58.8878 34.2051C59.1908 34.0648 59.5478 33.7211 59.7006 33.4229C59.9004 33.0326 59.9673 33.0653 58.7877 32.9767L58.4041 32.9479L58.342 33.118C58.266 33.3257 58.0818 33.4291 57.7872 33.4291C57.4805 33.4291 57.2821 33.2503 57.2471 32.9425L57.2216 32.7192H58.5208C59.6248 32.7192 59.8241 32.7086 59.8472 32.649C59.8913 32.5353 59.7814 31.8558 59.6721 31.5668C59.483 31.0666 58.9542 30.6212 58.3653 30.4661C58.0475 30.3824 57.4256 30.3871 57.0917 30.4759ZM57.2358 31.8081C57.2379 31.6152 57.3303 31.4466 57.4785 31.3654C57.7337 31.2254 58.1522 31.335 58.2406 31.565C58.2658 31.6305 58.2864 31.7466 58.2864 31.823V31.9619H57.7602H57.2341L57.2358 31.8081Z" fill="#181B21"/>
<path d="M62.376 30.4569C62.1767 30.5255 61.9267 30.7664 61.8211 30.9917L61.7323 31.181L61.7313 30.8379L61.7302 30.4947H61.0845H60.4388V32.4115V34.3284H61.1769H61.9151L61.9303 33.2478L61.9455 32.1673L62.0783 31.9951C62.2317 31.7963 62.5071 31.6999 62.7925 31.745L62.9739 31.7737V31.0869V30.4001L62.7467 30.4038C62.6217 30.4058 62.4549 30.4298 62.376 30.4569Z" fill="#181B21"/>
<path d="M53.3006 30.4445C53.0986 30.5089 52.8478 30.6759 52.7415 30.8168L52.6453 30.9443L52.6438 30.7195L52.6423 30.4947H51.9248H51.2073V32.4115V34.3284H51.9705H52.7337L52.7477 32.999L52.7618 31.6696L52.896 31.5555C53.0511 31.4235 53.1982 31.4104 53.3491 31.515C53.4535 31.5874 53.4554 31.6074 53.4557 32.639C53.4559 33.2167 53.4698 33.8332 53.4866 34.0089L53.517 34.3284H54.2755H55.0338L55.0334 32.9913C55.0332 32.2559 55.0111 31.5158 54.9841 31.3466C54.8867 30.7341 54.52 30.4407 53.8215 30.4163C53.607 30.4089 53.3726 30.4215 53.3006 30.4445Z" fill="#181B21"/>
<path d="M49.0204 29.2038L48.4359 29.2197L48.4225 29.8454L48.4092 30.4711L48.1102 30.4852L47.8113 30.4992V30.968V31.4368L48.1102 31.4509L48.4092 31.465L48.4331 32.5535C48.4562 33.605 48.4611 33.6493 48.5766 33.8532C48.7084 34.086 48.9276 34.2547 49.1927 34.3276C49.3837 34.3801 50.2199 34.3914 50.5018 34.3453L50.6812 34.316V33.7774V33.239L50.4195 33.2694C50.2177 33.2928 50.1301 33.2819 50.0368 33.2214L49.9159 33.143V32.2921V31.4413H50.2985H50.6812V30.968V30.4947H50.2998H49.9185L49.9052 29.8439L49.8919 29.1932L49.7484 29.1906C49.6695 29.1891 49.3419 29.1951 49.0204 29.2038Z" fill="#181B21"/>
<path d="M46.9742 30.4895C46.7521 30.5909 46.6182 30.727 46.4796 30.9917L46.3805 31.181L46.3784 30.8379L46.3763 30.4947H45.7306H45.0849V32.4115V34.3284H45.8223H46.5597L46.5756 33.2753C46.5908 32.2744 46.597 32.2136 46.7011 32.0479C46.8367 31.8321 47.1454 31.7006 47.4282 31.7381L47.6199 31.7636V31.0818V30.4001L47.3927 30.4011C47.2678 30.4017 47.0794 30.4415 46.9742 30.4895Z" fill="#181B21"/>
<path fill-rule="evenodd" clip-rule="evenodd" d="M41.6596 30.4705C41.1079 30.5893 40.7258 30.8551 40.5202 31.2634C40.4526 31.3975 40.3974 31.532 40.3974 31.5624C40.3974 31.6427 41.7494 31.7585 41.7757 31.6805C41.8617 31.425 42.2406 31.2656 42.5609 31.3501C42.752 31.4005 42.8368 31.5061 42.8368 31.6938C42.8368 31.8022 42.8153 31.8129 42.5378 31.8416C41.5871 31.9404 41.0447 32.1048 40.7112 32.3952C40.4071 32.66 40.2855 32.9082 40.2855 33.2635C40.2855 33.7078 40.5119 34.0685 40.9295 34.2888C41.1106 34.3844 41.2064 34.3993 41.641 34.3993C42.0927 34.3993 42.1673 34.3867 42.3824 34.2736C42.5139 34.2044 42.6861 34.0803 42.765 33.9978L42.9085 33.8477L42.9325 34.0762L42.9564 34.3047L43.6914 34.3178C44.3807 34.3301 44.4241 34.3257 44.3881 34.2468C44.367 34.2006 44.3361 33.5238 44.3193 32.7428C44.2987 31.7857 44.2694 31.2767 44.2295 31.181C44.1494 30.9891 43.9051 30.7434 43.6807 30.629C43.2555 30.4122 42.2842 30.3361 41.6596 30.4705ZM41.9296 32.9056C41.9878 32.798 42.2825 32.6407 42.5371 32.5814C42.5451 32.5795 42.5529 32.5777 42.5605 32.5759C42.7034 32.5425 42.7757 32.5256 42.8098 32.5538C42.8447 32.5827 42.8398 32.6587 42.8298 32.8124C42.8293 32.8204 42.8287 32.8286 42.8282 32.837C42.8045 33.2049 42.6948 33.3781 42.4301 33.4658C42.2224 33.5346 41.9566 33.4766 41.9083 33.352C41.8642 33.2382 41.8753 33.006 41.9296 32.9056Z" fill="#181B21"/>
<path fill-rule="evenodd" clip-rule="evenodd" d="M35.5664 31.7489V34.3284H36.3795H37.1927V33.4124V32.4964L37.8743 32.4691C38.6536 32.4378 38.9683 32.3629 39.3254 32.1239C39.8044 31.8032 40.0434 31.3084 40.0047 30.7175C39.9548 29.9535 39.4517 29.3837 38.6851 29.2227C38.5296 29.1901 37.8775 29.1695 36.999 29.1695H35.5664V31.7489ZM37.1448 31.3466V30.8454V30.3441L37.6433 30.3603C38.0932 30.3748 38.1539 30.3876 38.2652 30.4911C38.3635 30.5826 38.3882 30.6498 38.3869 30.8224C38.3861 30.9415 38.357 31.0761 38.3223 31.1213C38.2097 31.268 37.9328 31.3466 37.529 31.3466H37.1448Z" fill="#181B21"/>
</g>
<path id="path25032" fill-rule="evenodd" clip-rule="evenodd" d="M28.1904 4.6227L23.6694 4.62181V15.3292L19.6909 4.62181H15.8027L12.3667 13.5765C12.0051 11.3208 9.65411 10.5412 7.75526 9.95758C6.57979 9.56552 5.22347 8.98906 5.31389 8.3589C5.31389 7.83616 5.94684 7.35638 7.30316 7.42799C8.20737 7.47364 9.02116 7.54793 10.6487 8.31594L12.2763 5.58853C10.7392 4.85096 8.7499 4.3846 7.12231 4.38281C5.13305 4.38281 3.50547 5.00223 2.51084 6.02892C1.87789 6.74323 1.42578 7.64997 1.42578 8.65519C1.42578 10.0381 1.96831 11.0192 2.96294 11.8006C3.95757 12.4585 5.04263 12.8873 6.12768 13.2015C7.39358 13.5891 8.38821 13.9247 8.38821 14.6444C8.38821 14.9102 8.29779 15.1519 8.11695 15.3462C7.75526 15.6675 7.30316 15.7892 6.57979 15.8045C5.31389 15.8277 4.40968 15.6281 2.87252 14.7393L1.42578 17.5007C2.96294 18.3564 4.77136 18.8595 6.57979 18.8595L6.85105 18.8577C8.38821 18.829 9.74453 18.377 10.7392 17.5553C10.8296 17.507 10.8296 17.4622 10.92 17.4174L10.4679 18.6196H14.6273L15.2602 16.5358C15.9836 16.7757 16.7974 16.9153 17.7016 16.9153C18.6058 16.9153 19.3292 16.7801 20.0525 16.5528L20.7759 18.6196H27.4671V14.2971H29.0042C32.5307 14.2971 34.6104 12.506 34.6104 9.50196C34.6104 6.15782 32.6211 4.6227 28.1904 4.6227ZM17.7016 13.7896C17.1591 13.7896 16.707 13.6965 16.2549 13.5336L17.7016 9.02934L19.1483 13.5479C18.6962 13.7018 18.2441 13.7896 17.7016 13.7896ZM28.4617 11.1991H27.4671V7.56762H28.4617C29.818 7.56762 30.9031 8.00712 30.9031 9.36501C30.9031 10.7614 29.818 11.1991 28.4617 11.1991Z" fill="#181B21"/>
</g>
</svg>
