<?xml version="1.0" encoding="UTF-8"?>
<svg xmlns="http://www.w3.org/2000/svg" width="2000" height="2000" viewBox="0 0 2000 2000" fill="none">
  <path fill-rule="evenodd" clip-rule="evenodd" d="M305 32V1662.53L1000 1965.1L1695 1662.53V32H305ZM275 0C273.895 0 273 0.895431 273 2V1682.19C273 1682.99 273.472 1683.71 274.202 1684.02L999.202 1999.65C999.711 1999.87 1000.29 1999.87 1000.8 1999.65L1725.8 1684.02C1726.53 1683.71 1727 1682.99 1727 1682.19V2C1727 0.895431 1726.1 0 1725 0H275Z" fill="white"></path>
  <path d="M1231.47 635.32C1231.47 644.28 1229.31 652.68 1224.99 660.52C1220.83 668.36 1214.19 674.68 1205.07 679.48C1196.11 684.28 1184.75 686.68 1170.99 686.68H1142.91V751H1109.31V583.48H1170.99C1183.95 583.48 1194.99 585.72 1204.11 590.2C1213.23 594.68 1220.03 600.84 1224.51 608.68C1229.15 616.52 1231.47 625.4 1231.47 635.32ZM1169.55 659.56C1178.83 659.56 1185.71 657.48 1190.19 653.32C1194.67 649 1196.91 643 1196.91 635.32C1196.91 619 1187.79 610.84 1169.55 610.84H1142.91V659.56H1169.55Z" fill="white"></path>
  <path d="M996.236 752.68C980.556 752.68 966.156 749 953.036 741.64C939.916 734.28 929.516 724.12 921.836 711.16C914.156 698.04 910.316 683.24 910.316 666.76C910.316 650.44 914.156 635.8 921.836 622.84C929.516 609.72 939.916 599.48 953.036 592.12C966.156 584.76 980.556 581.08 996.236 581.08C1012.08 581.08 1026.48 584.76 1039.44 592.12C1052.56 599.48 1062.88 609.72 1070.4 622.84C1078.08 635.8 1081.92 650.44 1081.92 666.76C1081.92 683.24 1078.08 698.04 1070.4 711.16C1062.88 724.12 1052.56 734.28 1039.44 741.64C1026.32 749 1011.92 752.68 996.236 752.68ZM996.236 722.68C1006.32 722.68 1015.2 720.44 1022.88 715.96C1030.56 711.32 1036.56 704.76 1040.88 696.28C1045.2 687.8 1047.36 677.96 1047.36 666.76C1047.36 655.56 1045.2 645.8 1040.88 637.48C1036.56 629 1030.56 622.52 1022.88 618.04C1015.2 613.56 1006.32 611.32 996.236 611.32C986.156 611.32 977.196 613.56 969.356 618.04C961.676 622.52 955.676 629 951.356 637.48C947.036 645.8 944.876 655.56 944.876 666.76C944.876 677.96 947.036 687.8 951.356 696.28C955.676 704.76 961.676 711.32 969.356 715.96C977.196 720.44 986.156 722.68 996.236 722.68Z" fill="white"></path>
  <path d="M891.56 583.48V610.6H846.92V751H813.32V610.6H768.68V583.48H891.56Z" fill="white"></path>
  <path d="M1293.71 875.431C1293.71 878.031 1293.53 880.371 1293.19 882.451H1240.54C1240.97 887.651 1242.79 891.724 1246 894.671C1249.2 897.617 1253.15 899.091 1257.83 899.091C1264.59 899.091 1269.4 896.187 1272.26 890.381H1291.89C1289.81 897.314 1285.82 903.034 1279.93 907.541C1274.03 911.961 1266.8 914.171 1258.22 914.171C1251.28 914.171 1245.04 912.654 1239.5 909.621C1234.04 906.501 1229.75 902.124 1226.63 896.491C1223.59 890.857 1222.08 884.357 1222.08 876.991C1222.08 869.537 1223.59 862.994 1226.63 857.361C1229.66 851.727 1233.91 847.394 1239.37 844.361C1244.83 841.327 1251.11 839.811 1258.22 839.811C1265.06 839.811 1271.17 841.284 1276.55 844.231C1282.01 847.177 1286.21 851.381 1289.16 856.841C1292.19 862.214 1293.71 868.411 1293.71 875.431ZM1274.86 870.231C1274.77 865.551 1273.08 861.824 1269.79 859.051C1266.49 856.191 1262.46 854.761 1257.7 854.761C1253.19 854.761 1249.38 856.147 1246.26 858.921C1243.22 861.607 1241.36 865.377 1240.67 870.231H1274.86Z" fill="white"></path>
  <path d="M1191.1 852.159C1193.44 848.346 1196.47 845.356 1200.2 843.189C1204.01 841.023 1208.34 839.939 1213.2 839.939V859.049H1208.39C1202.67 859.049 1198.33 860.393 1195.39 863.079C1192.53 865.766 1191.1 870.446 1191.1 877.119V912.999H1172.9V840.979H1191.1V852.159Z" fill="white"></path>
  <path d="M1078.81 876.731C1078.81 869.451 1080.24 862.994 1083.1 857.361C1086.05 851.727 1089.99 847.394 1094.93 844.361C1099.96 841.327 1105.55 839.811 1111.7 839.811C1117.07 839.811 1121.75 840.894 1125.74 843.061C1129.81 845.227 1133.06 847.957 1135.49 851.251V840.981H1153.82V913.001H1135.49V902.471C1133.15 905.851 1129.9 908.667 1125.74 910.921C1121.67 913.087 1116.94 914.171 1111.57 914.171C1105.5 914.171 1099.96 912.611 1094.93 909.491C1089.99 906.371 1086.05 901.994 1083.1 896.361C1080.24 890.641 1078.81 884.097 1078.81 876.731ZM1135.49 876.991C1135.49 872.571 1134.62 868.801 1132.89 865.681C1131.16 862.474 1128.82 860.047 1125.87 858.401C1122.92 856.667 1119.76 855.801 1116.38 855.801C1113 855.801 1109.88 856.624 1107.02 858.271C1104.16 859.917 1101.82 862.344 1100 865.551C1098.27 868.671 1097.4 872.397 1097.4 876.731C1097.4 881.064 1098.27 884.877 1100 888.171C1101.82 891.377 1104.16 893.847 1107.02 895.581C1109.97 897.314 1113.09 898.181 1116.38 898.181C1119.76 898.181 1122.92 897.357 1125.87 895.711C1128.82 893.977 1131.16 891.551 1132.89 888.431C1134.62 885.224 1135.49 881.411 1135.49 876.991Z" fill="white"></path>
  <path d="M1072.34 840.98L1051.28 913H1031.65L1018.52 862.69L1005.39 913H985.634L964.444 840.98H982.904L995.644 895.84L1009.42 840.98H1028.66L1042.18 895.71L1054.92 840.98H1072.34Z" fill="white"></path>
  <path d="M941.993 855.93V890.77C941.993 893.197 942.557 894.973 943.684 896.1C944.897 897.14 946.89 897.66 949.663 897.66H958.113V913H946.673C931.333 913 923.663 905.547 923.663 890.64V855.93H915.083V840.98H923.663V823.17H941.993V840.98H958.113V855.93H941.993Z" fill="white"></path>
  <path d="M907.709 855.93H895.099V913H876.639V855.93H868.449V840.98H876.639V837.34C876.639 828.5 879.153 822 884.179 817.84C889.206 813.68 896.789 811.73 906.929 811.99V827.33C902.509 827.243 899.433 827.98 897.699 829.54C895.966 831.1 895.099 833.916 895.099 837.99V840.98H907.709V855.93Z" fill="white"></path>
  <path d="M822.468 914.171C815.535 914.171 809.295 912.654 803.748 909.621C798.202 906.501 793.825 902.124 790.618 896.491C787.498 890.857 785.938 884.357 785.938 876.991C785.938 869.624 787.542 863.124 790.748 857.491C794.042 851.857 798.505 847.524 804.138 844.491C809.772 841.371 816.055 839.811 822.988 839.811C829.922 839.811 836.205 841.371 841.838 844.491C847.472 847.524 851.892 851.857 855.098 857.491C858.392 863.124 860.038 869.624 860.038 876.991C860.038 884.357 858.348 890.857 854.968 896.491C851.675 902.124 847.168 906.501 841.448 909.621C835.815 912.654 829.488 914.171 822.468 914.171ZM822.468 898.311C825.762 898.311 828.838 897.531 831.698 895.971C834.645 894.324 836.985 891.897 838.718 888.691C840.452 885.484 841.318 881.584 841.318 876.991C841.318 870.144 839.498 864.901 835.858 861.261C832.305 857.534 827.928 855.671 822.728 855.671C817.528 855.671 813.152 857.534 809.598 861.261C806.132 864.901 804.398 870.144 804.398 876.991C804.398 883.837 806.088 889.124 809.468 892.851C812.935 896.491 817.268 898.311 822.468 898.311Z" fill="white"></path>
  <path d="M741.3 913.909C734.973 913.909 729.253 912.826 724.14 910.659C719.113 908.492 715.127 905.372 712.18 901.299C709.233 897.226 707.717 892.416 707.63 886.869H727.13C727.39 890.596 728.69 893.542 731.03 895.709C733.457 897.876 736.75 898.959 740.91 898.959C745.157 898.959 748.493 897.962 750.92 895.969C753.347 893.889 754.56 891.202 754.56 887.909C754.56 885.222 753.737 883.012 752.09 881.279C750.443 879.546 748.363 878.202 745.85 877.249C743.423 876.209 740.043 875.082 735.71 873.869C729.817 872.136 725.007 870.446 721.28 868.799C717.64 867.066 714.477 864.509 711.79 861.129C709.19 857.662 707.89 853.069 707.89 847.349C707.89 841.976 709.233 837.296 711.92 833.309C714.607 829.322 718.377 826.289 723.23 824.209C728.083 822.042 733.63 820.959 739.87 820.959C749.23 820.959 756.813 823.256 762.62 827.849C768.513 832.356 771.763 838.682 772.37 846.829H752.35C752.177 843.709 750.833 841.152 748.32 839.159C745.893 837.079 742.643 836.039 738.57 836.039C735.017 836.039 732.157 836.949 729.99 838.769C727.91 840.589 726.87 843.232 726.87 846.699C726.87 849.126 727.65 851.162 729.21 852.809C730.857 854.369 732.85 855.669 735.19 856.709C737.617 857.662 740.997 858.789 745.33 860.089C751.223 861.822 756.033 863.556 759.76 865.289C763.487 867.022 766.693 869.622 769.38 873.089C772.067 876.556 773.41 881.106 773.41 886.739C773.41 891.592 772.153 896.099 769.64 900.259C767.127 904.419 763.443 907.756 758.59 910.269C753.737 912.696 747.973 913.909 741.3 913.909Z" fill="white"></path>
  <path d="M1402.48 500.899C1397.14 500.899 1392.34 499.733 1388.08 497.399C1383.81 494.999 1380.44 491.633 1377.98 487.299C1375.58 482.966 1374.38 477.966 1374.38 472.299C1374.38 466.633 1375.61 461.633 1378.08 457.299C1380.61 452.966 1384.04 449.633 1388.38 447.299C1392.71 444.899 1397.54 443.699 1402.88 443.699C1408.21 443.699 1413.04 444.899 1417.38 447.299C1421.71 449.633 1425.11 452.966 1427.58 457.299C1430.11 461.633 1431.38 466.633 1431.38 472.299C1431.38 477.966 1430.08 482.966 1427.48 487.299C1424.94 491.633 1421.48 494.999 1417.08 497.399C1412.74 499.733 1407.88 500.899 1402.48 500.899ZM1402.48 488.699C1405.01 488.699 1407.38 488.099 1409.58 486.899C1411.84 485.633 1413.64 483.766 1414.98 481.299C1416.31 478.833 1416.98 475.833 1416.98 472.299C1416.98 467.033 1415.58 462.999 1412.78 460.199C1410.04 457.333 1406.68 455.899 1402.68 455.899C1398.68 455.899 1395.31 457.333 1392.58 460.199C1389.91 462.999 1388.58 467.033 1388.58 472.299C1388.58 477.566 1389.88 481.633 1392.48 484.499C1395.14 487.299 1398.48 488.699 1402.48 488.699Z" fill="white"></path>
  <path d="M1310.12 472.299C1310.12 466.566 1311.29 461.566 1313.62 457.299C1315.95 452.966 1319.19 449.633 1323.32 447.299C1327.45 444.899 1332.19 443.699 1337.52 443.699C1344.39 443.699 1350.05 445.433 1354.52 448.899C1359.05 452.299 1362.09 457.099 1363.62 463.299H1348.52C1347.72 460.899 1346.35 459.033 1344.42 457.699C1342.55 456.299 1340.22 455.599 1337.42 455.599C1333.42 455.599 1330.25 457.066 1327.92 459.999C1325.59 462.866 1324.42 466.966 1324.42 472.299C1324.42 477.566 1325.59 481.666 1327.92 484.599C1330.25 487.466 1333.42 488.899 1337.42 488.899C1343.09 488.899 1346.79 486.366 1348.52 481.299H1363.62C1362.09 487.299 1359.05 492.066 1354.52 495.599C1349.99 499.133 1344.32 500.899 1337.52 500.899C1332.19 500.899 1327.45 499.733 1323.32 497.399C1319.19 494.999 1315.95 491.666 1313.62 487.399C1311.29 483.066 1310.12 478.033 1310.12 472.299Z" fill="white"></path>
  <path d="M1289.94 500.699C1287.41 500.699 1285.31 499.932 1283.64 498.399C1282.04 496.799 1281.24 494.832 1281.24 492.499C1281.24 490.165 1282.04 488.232 1283.64 486.699C1285.31 485.099 1287.41 484.299 1289.94 484.299C1292.41 484.299 1294.44 485.099 1296.04 486.699C1297.64 488.232 1298.44 490.165 1298.44 492.499C1298.44 494.832 1297.64 496.799 1296.04 498.399C1294.44 499.932 1292.41 500.699 1289.94 500.699Z" fill="white"></path>
  <path d="M1253.31 453.199C1255.11 450.265 1257.45 447.965 1260.31 446.299C1263.25 444.632 1266.58 443.799 1270.31 443.799V458.499H1266.61C1262.21 458.499 1258.88 459.532 1256.61 461.599C1254.41 463.665 1253.31 467.265 1253.31 472.399V499.999H1239.31V444.599H1253.31V453.199Z" fill="white"></path>
  <path d="M1225.1 471.099C1225.1 473.099 1224.96 474.899 1224.7 476.499H1184.2C1184.53 480.499 1185.93 483.633 1188.4 485.899C1190.86 488.166 1193.9 489.299 1197.5 489.299C1202.7 489.299 1206.4 487.066 1208.6 482.599H1223.7C1222.1 487.933 1219.03 492.333 1214.5 495.799C1209.96 499.199 1204.4 500.899 1197.8 500.899C1192.46 500.899 1187.66 499.733 1183.4 497.399C1179.2 494.999 1175.9 491.633 1173.5 487.299C1171.16 482.966 1170 477.966 1170 472.299C1170 466.566 1171.16 461.533 1173.5 457.199C1175.83 452.866 1179.1 449.533 1183.3 447.199C1187.5 444.866 1192.33 443.699 1197.8 443.699C1203.06 443.699 1207.76 444.833 1211.9 447.099C1216.1 449.366 1219.33 452.599 1221.6 456.799C1223.93 460.933 1225.1 465.699 1225.1 471.099ZM1210.6 467.099C1210.53 463.499 1209.23 460.633 1206.7 458.499C1204.16 456.299 1201.06 455.199 1197.4 455.199C1193.93 455.199 1191 456.266 1188.6 458.399C1186.26 460.466 1184.83 463.366 1184.3 467.099H1210.6Z" fill="white"></path>
  <path d="M1162.02 444.6L1145.82 500H1130.72L1120.62 461.3L1110.52 500H1095.32L1079.02 444.6H1093.22L1103.02 486.8L1113.62 444.6H1128.42L1138.82 486.7L1148.62 444.6H1162.02Z" fill="white"></path>
  <path d="M1071 471.099C1071 473.099 1070.87 474.899 1070.6 476.499H1030.1C1030.43 480.499 1031.83 483.633 1034.3 485.899C1036.77 488.166 1039.8 489.299 1043.4 489.299C1048.6 489.299 1052.3 487.066 1054.5 482.599H1069.6C1068 487.933 1064.93 492.333 1060.4 495.799C1055.87 499.199 1050.3 500.899 1043.7 500.899C1038.37 500.899 1033.57 499.733 1029.3 497.399C1025.1 494.999 1021.8 491.633 1019.4 487.299C1017.07 482.966 1015.9 477.966 1015.9 472.299C1015.9 466.566 1017.07 461.533 1019.4 457.199C1021.73 452.866 1025 449.533 1029.2 447.199C1033.4 444.866 1038.23 443.699 1043.7 443.699C1048.97 443.699 1053.67 444.833 1057.8 447.099C1062 449.366 1065.23 452.599 1067.5 456.799C1069.83 460.933 1071 465.699 1071 471.099ZM1056.5 467.099C1056.43 463.499 1055.13 460.633 1052.6 458.499C1050.07 456.299 1046.97 455.199 1043.3 455.199C1039.83 455.199 1036.9 456.266 1034.5 458.399C1032.17 460.466 1030.73 463.366 1030.2 467.099H1056.5Z" fill="white"></path>
  <path d="M994.769 438C992.303 438 990.236 437.233 988.569 435.7C986.969 434.1 986.169 432.133 986.169 429.8C986.169 427.466 986.969 425.533 988.569 424C990.236 422.4 992.303 421.6 994.769 421.6C997.236 421.6 999.269 422.4 1000.87 424C1002.54 425.533 1003.37 427.466 1003.37 429.8C1003.37 432.133 1002.54 434.1 1000.87 435.7C999.269 437.233 997.236 438 994.769 438ZM1001.67 444.6V500H987.669V444.6H1001.67Z" fill="white"></path>
  <path d="M946.906 487.1L960.906 444.6H975.806L955.306 500H938.306L917.906 444.6H932.906L946.906 487.1Z" fill="white"></path>
  <path d="M909.587 471.099C909.587 473.099 909.454 474.899 909.187 476.499H868.687C869.021 480.499 870.421 483.633 872.887 485.899C875.354 488.166 878.387 489.299 881.987 489.299C887.187 489.299 890.887 487.066 893.087 482.599H908.187C906.587 487.933 903.521 492.333 898.987 495.799C894.454 499.199 888.887 500.899 882.287 500.899C876.954 500.899 872.154 499.733 867.887 497.399C863.687 494.999 860.387 491.633 857.987 487.299C855.654 482.966 854.487 477.966 854.487 472.299C854.487 466.566 855.654 461.533 857.987 457.199C860.321 452.866 863.587 449.533 867.787 447.199C871.987 444.866 876.821 443.699 882.287 443.699C887.554 443.699 892.254 444.833 896.387 447.099C900.587 449.366 903.821 452.599 906.087 456.799C908.421 460.933 909.587 465.699 909.587 471.099ZM895.087 467.099C895.021 463.499 893.721 460.633 891.187 458.499C888.654 456.299 885.554 455.199 881.887 455.199C878.421 455.199 875.487 456.266 873.087 458.399C870.754 460.466 869.321 463.366 868.787 467.099H895.087Z" fill="white"></path>
  <path d="M827.658 453.199C829.458 450.265 831.791 447.965 834.658 446.299C837.591 444.632 840.924 443.799 844.658 443.799V458.499H840.958C836.558 458.499 833.224 459.532 830.958 461.599C828.758 463.665 827.658 467.265 827.658 472.399V499.999H813.658V444.599H827.658V453.199Z" fill="white"></path>
  <path d="M774.744 443.8C778.944 443.8 782.678 444.733 785.944 446.6C789.211 448.4 791.744 451.1 793.544 454.7C795.411 458.233 796.344 462.5 796.344 467.5V500H782.344V469.4C782.344 465 781.244 461.633 779.044 459.3C776.844 456.9 773.844 455.7 770.044 455.7C766.178 455.7 763.111 456.9 760.844 459.3C758.644 461.633 757.544 465 757.544 469.4V500H743.544V426H757.544V451.5C759.344 449.1 761.744 447.233 764.744 445.9C767.744 444.5 771.078 443.8 774.744 443.8Z" fill="white"></path>
  <path d="M675.788 472.299C675.788 466.566 676.955 461.566 679.288 457.299C681.621 452.966 684.855 449.633 688.988 447.299C693.121 444.899 697.855 443.699 703.188 443.699C710.055 443.699 715.721 445.433 720.188 448.899C724.721 452.299 727.755 457.099 729.288 463.299H714.188C713.388 460.899 712.021 459.033 710.088 457.699C708.221 456.299 705.888 455.599 703.088 455.599C699.088 455.599 695.921 457.066 693.588 459.999C691.255 462.866 690.088 466.966 690.088 472.299C690.088 477.566 691.255 481.666 693.588 484.599C695.921 487.466 699.088 488.899 703.088 488.899C708.755 488.899 712.455 486.366 714.188 481.299H729.288C727.755 487.299 724.721 492.066 720.188 495.599C715.655 499.133 709.988 500.899 703.188 500.899C697.855 500.899 693.121 499.733 688.988 497.399C684.855 494.999 681.621 491.666 679.288 487.399C676.955 483.066 675.788 478.033 675.788 472.299Z" fill="white"></path>
  <path d="M665.169 471.099C665.169 473.099 665.036 474.899 664.769 476.499H624.269C624.603 480.499 626.003 483.633 628.469 485.899C630.936 488.166 633.969 489.299 637.569 489.299C642.769 489.299 646.469 487.066 648.669 482.599H663.769C662.169 487.933 659.103 492.333 654.569 495.799C650.036 499.199 644.469 500.899 637.869 500.899C632.536 500.899 627.736 499.733 623.469 497.399C619.269 494.999 615.969 491.633 613.569 487.299C611.236 482.966 610.069 477.966 610.069 472.299C610.069 466.566 611.236 461.533 613.569 457.199C615.903 452.866 619.169 449.533 623.369 447.199C627.569 444.866 632.403 443.699 637.869 443.699C643.136 443.699 647.836 444.833 651.969 447.099C656.169 449.366 659.403 452.599 661.669 456.799C664.003 460.933 665.169 465.699 665.169 471.099ZM650.669 467.099C650.603 463.499 649.303 460.633 646.769 458.499C644.236 456.299 641.136 455.199 637.469 455.199C634.003 455.199 631.069 456.266 628.669 458.399C626.336 460.466 624.903 463.366 624.369 467.099H650.669Z" fill="white"></path>
  <path d="M587.2 456.1V482.9C587.2 484.767 587.633 486.134 588.5 487C589.433 487.8 590.967 488.2 593.1 488.2H599.6V500H590.8C579 500 573.1 494.267 573.1 482.8V456.1H566.5V444.6H573.1V430.9H587.2V444.6H599.6V456.1H587.2Z" fill="white"></path>
  <path d="M1342.69 1080.17C1336.79 1080.17 1331.51 1079.13 1326.83 1077.05C1322.15 1074.88 1318.42 1071.98 1315.65 1068.34C1312.96 1064.7 1311.49 1060.67 1311.23 1056.25H1329.56C1329.9 1059.02 1331.25 1061.32 1333.59 1063.14C1336.01 1064.96 1339 1065.87 1342.56 1065.87C1346.02 1065.87 1348.71 1065.18 1350.62 1063.79C1352.61 1062.4 1353.61 1060.63 1353.61 1058.46C1353.61 1056.12 1352.39 1054.39 1349.97 1053.26C1347.63 1052.05 1343.86 1050.75 1338.66 1049.36C1333.28 1048.06 1328.86 1046.72 1325.4 1045.33C1322.02 1043.94 1319.07 1041.82 1316.56 1038.96C1314.13 1036.1 1312.92 1032.24 1312.92 1027.39C1312.92 1023.4 1314.04 1019.76 1316.3 1016.47C1318.64 1013.18 1321.93 1010.58 1326.18 1008.67C1330.51 1006.76 1335.58 1005.81 1341.39 1005.81C1349.97 1005.81 1356.81 1007.98 1361.93 1012.31C1367.04 1016.56 1369.86 1022.32 1370.38 1029.6H1352.96C1352.7 1026.74 1351.48 1024.49 1349.32 1022.84C1347.24 1021.11 1344.42 1020.24 1340.87 1020.24C1337.57 1020.24 1335.02 1020.85 1333.2 1022.06C1331.46 1023.27 1330.6 1024.96 1330.6 1027.13C1330.6 1029.56 1331.81 1031.42 1334.24 1032.72C1336.66 1033.93 1340.43 1035.19 1345.55 1036.49C1350.75 1037.79 1355.04 1039.13 1358.42 1040.52C1361.8 1041.91 1364.7 1044.07 1367.13 1047.02C1369.64 1049.88 1370.94 1053.69 1371.03 1058.46C1371.03 1062.62 1369.86 1066.35 1367.52 1069.64C1365.26 1072.93 1361.97 1075.53 1357.64 1077.44C1353.39 1079.26 1348.41 1080.17 1342.69 1080.17Z" fill="white"></path>
  <path d="M1279.47 1018.16C1281.81 1014.35 1284.84 1011.36 1288.57 1009.19C1292.38 1007.02 1296.71 1005.94 1301.57 1005.94V1025.05H1296.76C1291.04 1025.05 1286.7 1026.39 1283.76 1029.08C1280.9 1031.77 1279.47 1036.45 1279.47 1043.12V1079H1261.27V1006.98H1279.47V1018.16Z" fill="white"></path>
  <path d="M1246.68 1041.43C1246.68 1044.03 1246.51 1046.37 1246.16 1048.45H1193.51C1193.95 1053.65 1195.77 1057.72 1198.97 1060.67C1202.18 1063.62 1206.12 1065.09 1210.8 1065.09C1217.56 1065.09 1222.37 1062.19 1225.23 1056.38H1244.86C1242.78 1063.31 1238.8 1069.03 1232.9 1073.54C1227.01 1077.96 1219.77 1080.17 1211.19 1080.17C1204.26 1080.17 1198.02 1078.65 1192.47 1075.62C1187.01 1072.5 1182.72 1068.12 1179.6 1062.49C1176.57 1056.86 1175.05 1050.36 1175.05 1042.99C1175.05 1035.54 1176.57 1028.99 1179.6 1023.36C1182.64 1017.73 1186.88 1013.39 1192.34 1010.36C1197.8 1007.33 1204.09 1005.81 1211.19 1005.81C1218.04 1005.81 1224.15 1007.28 1229.52 1010.23C1234.98 1013.18 1239.19 1017.38 1242.13 1022.84C1245.17 1028.21 1246.68 1034.41 1246.68 1041.43ZM1227.83 1036.23C1227.75 1031.55 1226.06 1027.82 1222.76 1025.05C1219.47 1022.19 1215.44 1020.76 1210.67 1020.76C1206.17 1020.76 1202.35 1022.15 1199.23 1024.92C1196.2 1027.61 1194.34 1031.38 1193.64 1036.23H1227.83Z" fill="white"></path>
  <path d="M1108.53 1017.38C1110.87 1014.09 1114.07 1011.36 1118.15 1009.19C1122.31 1006.94 1127.03 1005.81 1132.32 1005.81C1138.47 1005.81 1144.02 1007.33 1148.96 1010.36C1153.98 1013.39 1157.93 1017.73 1160.79 1023.36C1163.73 1028.91 1165.21 1035.36 1165.21 1042.73C1165.21 1050.1 1163.73 1056.64 1160.79 1062.36C1157.93 1067.99 1153.98 1072.37 1148.96 1075.49C1144.02 1078.61 1138.47 1080.17 1132.32 1080.17C1127.03 1080.17 1122.35 1079.09 1118.28 1076.92C1114.29 1074.75 1111.04 1072.02 1108.53 1068.73V1113.32H1090.33V1006.98H1108.53V1017.38ZM1146.62 1042.73C1146.62 1038.4 1145.71 1034.67 1143.89 1031.55C1142.15 1028.34 1139.81 1025.92 1136.87 1024.27C1134.01 1022.62 1130.89 1021.8 1127.51 1021.8C1124.21 1021.8 1121.09 1022.67 1118.15 1024.4C1115.29 1026.05 1112.95 1028.47 1111.13 1031.68C1109.39 1034.89 1108.53 1038.66 1108.53 1042.99C1108.53 1047.32 1109.39 1051.09 1111.13 1054.3C1112.95 1057.51 1115.29 1059.98 1118.15 1061.71C1121.09 1063.36 1124.21 1064.18 1127.51 1064.18C1130.89 1064.18 1134.01 1063.31 1136.87 1061.58C1139.81 1059.85 1142.15 1057.38 1143.89 1054.17C1145.71 1050.96 1146.62 1047.15 1146.62 1042.73Z" fill="white"></path>
  <path d="M1038.11 1080.17C1031.17 1080.17 1024.93 1078.65 1019.39 1075.62C1013.84 1072.5 1009.46 1068.12 1006.26 1062.49C1003.14 1056.86 1001.58 1050.36 1001.58 1042.99C1001.58 1035.62 1003.18 1029.12 1006.39 1023.49C1009.68 1017.86 1014.14 1013.52 1019.78 1010.49C1025.41 1007.37 1031.69 1005.81 1038.63 1005.81C1045.56 1005.81 1051.84 1007.37 1057.48 1010.49C1063.11 1013.52 1067.53 1017.86 1070.74 1023.49C1074.03 1029.12 1075.68 1035.62 1075.68 1042.99C1075.68 1050.36 1073.99 1056.86 1070.61 1062.49C1067.31 1068.12 1062.81 1072.5 1057.09 1075.62C1051.45 1078.65 1045.13 1080.17 1038.11 1080.17ZM1038.11 1064.31C1041.4 1064.31 1044.48 1063.53 1047.34 1061.97C1050.28 1060.32 1052.62 1057.9 1054.36 1054.69C1056.09 1051.48 1056.96 1047.58 1056.96 1042.99C1056.96 1036.14 1055.14 1030.9 1051.5 1027.26C1047.94 1023.53 1043.57 1021.67 1038.37 1021.67C1033.17 1021.67 1028.79 1023.53 1025.24 1027.26C1021.77 1030.9 1020.04 1036.14 1020.04 1042.99C1020.04 1049.84 1021.73 1055.12 1025.11 1058.85C1028.57 1062.49 1032.91 1064.31 1038.11 1064.31Z" fill="white"></path>
  <path d="M986.845 982.801V1079H968.645V982.801H986.845Z" fill="white"></path>
  <path d="M954.061 1041.43C954.061 1044.03 953.887 1046.37 953.541 1048.45H900.891C901.324 1053.65 903.144 1057.72 906.351 1060.67C909.557 1063.62 913.501 1065.09 918.181 1065.09C924.941 1065.09 929.751 1062.19 932.611 1056.38H952.241C950.161 1063.31 946.174 1069.03 940.281 1073.54C934.387 1077.96 927.151 1080.17 918.571 1080.17C911.637 1080.17 905.397 1078.65 899.851 1075.62C894.391 1072.5 890.101 1068.12 886.981 1062.49C883.947 1056.86 882.431 1050.36 882.431 1042.99C882.431 1035.54 883.947 1028.99 886.981 1023.36C890.014 1017.73 894.261 1013.39 899.721 1010.36C905.181 1007.33 911.464 1005.81 918.571 1005.81C925.417 1005.81 931.527 1007.28 936.901 1010.23C942.361 1013.18 946.564 1017.38 949.511 1022.84C952.544 1028.21 954.061 1034.41 954.061 1041.43ZM935.211 1036.23C935.124 1031.55 933.434 1027.82 930.141 1025.05C926.847 1022.19 922.817 1020.76 918.051 1020.76C913.544 1020.76 909.731 1022.15 906.611 1024.92C903.577 1027.61 901.714 1031.38 901.021 1036.23H935.211Z" fill="white"></path>
  <path d="M838.018 1062.23L856.218 1006.98H875.588L848.938 1079H826.838L800.318 1006.98H819.818L838.018 1062.23Z" fill="white"></path>
  <path d="M793.404 1041.43C793.404 1044.03 793.231 1046.37 792.884 1048.45H740.234C740.667 1053.65 742.487 1057.72 745.694 1060.67C748.901 1063.62 752.844 1065.09 757.524 1065.09C764.284 1065.09 769.094 1062.19 771.954 1056.38H791.584C789.504 1063.31 785.517 1069.03 779.624 1073.54C773.731 1077.96 766.494 1080.17 757.914 1080.17C750.981 1080.17 744.741 1078.65 739.194 1075.62C733.734 1072.5 729.444 1068.12 726.324 1062.49C723.291 1056.86 721.774 1050.36 721.774 1042.99C721.774 1035.54 723.291 1028.99 726.324 1023.36C729.357 1017.73 733.604 1013.39 739.064 1010.36C744.524 1007.33 750.807 1005.81 757.914 1005.81C764.761 1005.81 770.871 1007.28 776.244 1010.23C781.704 1013.18 785.907 1017.38 788.854 1022.84C791.887 1028.21 793.404 1034.41 793.404 1041.43ZM774.554 1036.23C774.467 1031.55 772.777 1027.82 769.484 1025.05C766.191 1022.19 762.161 1020.76 757.394 1020.76C752.887 1020.76 749.074 1022.15 745.954 1024.92C742.921 1027.61 741.057 1031.38 740.364 1036.23H774.554Z" fill="white"></path>
  <path d="M663.69 988.262C673.224 988.262 681.587 990.125 688.78 993.852C696.06 997.578 701.65 1002.91 705.55 1009.84C709.537 1016.69 711.53 1024.66 711.53 1033.76C711.53 1042.86 709.537 1050.84 705.55 1057.68C701.65 1064.44 696.06 1069.69 688.78 1073.41C681.587 1077.14 673.224 1079 663.69 1079H631.97V988.262H663.69ZM663.04 1063.53C672.574 1063.53 679.94 1060.93 685.14 1055.73C690.34 1050.53 692.94 1043.21 692.94 1033.76C692.94 1024.32 690.34 1016.95 685.14 1011.66C679.94 1006.29 672.574 1003.6 663.04 1003.6H650.17V1063.53H663.04Z" fill="white"></path>
  <path d="M1308.84 1227.71H1272.7L1266.72 1245H1247.61L1280.24 1154.13H1301.43L1334.06 1245H1314.82L1308.84 1227.71ZM1303.9 1213.15L1290.77 1175.19L1277.64 1213.15H1303.9Z" fill="white"></path>
  <path d="M1204.01 1245.91C1197.68 1245.91 1191.96 1244.83 1186.85 1242.66C1181.82 1240.49 1177.84 1237.37 1174.89 1233.3C1171.94 1229.23 1170.43 1224.42 1170.34 1218.87H1189.84C1190.1 1222.6 1191.4 1225.54 1193.74 1227.71C1196.17 1229.88 1199.46 1230.96 1203.62 1230.96C1207.87 1230.96 1211.2 1229.96 1213.63 1227.97C1216.06 1225.89 1217.27 1223.2 1217.27 1219.91C1217.27 1217.22 1216.45 1215.01 1214.8 1213.28C1213.15 1211.55 1211.07 1210.2 1208.56 1209.25C1206.13 1208.21 1202.75 1207.08 1198.42 1205.87C1192.53 1204.14 1187.72 1202.45 1183.99 1200.8C1180.35 1199.07 1177.19 1196.51 1174.5 1193.13C1171.9 1189.66 1170.6 1185.07 1170.6 1179.35C1170.6 1173.98 1171.94 1169.3 1174.63 1165.31C1177.32 1161.32 1181.09 1158.29 1185.94 1156.21C1190.79 1154.04 1196.34 1152.96 1202.58 1152.96C1211.94 1152.96 1219.52 1155.26 1225.33 1159.85C1231.22 1164.36 1234.47 1170.68 1235.08 1178.83H1215.06C1214.89 1175.71 1213.54 1173.15 1211.03 1171.16C1208.6 1169.08 1205.35 1168.04 1201.28 1168.04C1197.73 1168.04 1194.87 1168.95 1192.7 1170.77C1190.62 1172.59 1189.58 1175.23 1189.58 1178.7C1189.58 1181.13 1190.36 1183.16 1191.92 1184.81C1193.57 1186.37 1195.56 1187.67 1197.9 1188.71C1200.33 1189.66 1203.71 1190.79 1208.04 1192.09C1213.93 1193.82 1218.74 1195.56 1222.47 1197.29C1226.2 1199.02 1229.4 1201.62 1232.09 1205.09C1234.78 1208.56 1236.12 1213.11 1236.12 1218.74C1236.12 1223.59 1234.86 1228.1 1232.35 1232.26C1229.84 1236.42 1226.15 1239.76 1221.3 1242.27C1216.45 1244.7 1210.68 1245.91 1204.01 1245.91Z" fill="white"></path>
  <path d="M1098.67 1154.26V1210.42C1098.67 1216.57 1100.28 1221.3 1103.48 1224.59C1106.69 1227.8 1111.2 1229.4 1117 1229.4C1122.9 1229.4 1127.45 1227.8 1130.65 1224.59C1133.86 1221.3 1135.46 1216.57 1135.46 1210.42V1154.26H1153.79V1210.29C1153.79 1218 1152.1 1224.55 1148.72 1229.92C1145.43 1235.21 1140.97 1239.19 1135.33 1241.88C1129.79 1244.57 1123.59 1245.91 1116.74 1245.91C1109.98 1245.91 1103.83 1244.57 1098.28 1241.88C1092.82 1239.19 1088.49 1235.21 1085.28 1229.92C1082.08 1224.55 1080.47 1218 1080.47 1210.29V1154.26H1098.67Z" fill="white"></path>
  <path d="M1033.87 1207.43C1033.87 1210.03 1033.7 1212.37 1033.35 1214.45H980.703C981.136 1219.65 982.956 1223.72 986.163 1226.67C989.37 1229.62 993.313 1231.09 997.993 1231.09C1004.75 1231.09 1009.56 1228.19 1012.42 1222.38H1032.05C1029.97 1229.31 1025.99 1235.03 1020.09 1239.54C1014.2 1243.96 1006.96 1246.17 998.383 1246.17C991.45 1246.17 985.21 1244.65 979.663 1241.62C974.203 1238.5 969.913 1234.12 966.793 1228.49C963.76 1222.86 962.243 1216.36 962.243 1208.99C962.243 1201.54 963.76 1194.99 966.793 1189.36C969.826 1183.73 974.073 1179.39 979.533 1176.36C984.993 1173.33 991.276 1171.81 998.383 1171.81C1005.23 1171.81 1011.34 1173.28 1016.71 1176.23C1022.17 1179.18 1026.38 1183.38 1029.32 1188.84C1032.36 1194.21 1033.87 1200.41 1033.87 1207.43ZM1015.02 1202.23C1014.94 1197.55 1013.25 1193.82 1009.95 1191.05C1006.66 1188.19 1002.63 1186.76 997.863 1186.76C993.356 1186.76 989.543 1188.15 986.423 1190.92C983.39 1193.61 981.526 1197.38 980.833 1202.23H1015.02Z" fill="white"></path>
  <path d="M920.236 1171.94C925.696 1171.94 930.549 1173.15 934.796 1175.58C939.042 1177.92 942.336 1181.43 944.676 1186.11C947.102 1190.7 948.316 1196.25 948.316 1202.75V1245H930.116V1205.22C930.116 1199.5 928.686 1195.12 925.826 1192.09C922.966 1188.97 919.066 1187.41 914.126 1187.41C909.099 1187.41 905.112 1188.97 902.166 1192.09C899.306 1195.12 897.876 1199.5 897.876 1205.22V1245H879.676V1148.8H897.876V1181.95C900.216 1178.83 903.336 1176.4 907.236 1174.67C911.136 1172.85 915.469 1171.94 920.236 1171.94Z" fill="white"></path>
  <path d="M849.165 1187.93V1222.77C849.165 1225.2 849.729 1226.97 850.855 1228.1C852.069 1229.14 854.062 1229.66 856.835 1229.66H865.285V1245H853.845C838.505 1245 830.835 1237.55 830.835 1222.64V1187.93H822.255V1172.98H830.835V1155.17H849.165V1172.98H865.285V1187.93H849.165Z" fill="white"></path>
  <path d="M748.362 1171.94C756.942 1171.94 763.875 1174.67 769.162 1180.13C774.448 1185.5 777.092 1193.04 777.092 1202.75V1245H758.892V1205.22C758.892 1199.5 757.462 1195.12 754.602 1192.09C751.742 1188.97 747.842 1187.41 742.902 1187.41C737.875 1187.41 733.888 1188.97 730.942 1192.09C728.082 1195.12 726.652 1199.5 726.652 1205.22V1245H708.452V1172.98H726.652V1181.95C729.078 1178.83 732.155 1176.4 735.882 1174.67C739.695 1172.85 743.855 1171.94 748.362 1171.94Z" fill="white"></path>
  <path d="M680.2 1164.4C676.993 1164.4 674.307 1163.4 672.14 1161.41C670.06 1159.33 669.02 1156.77 669.02 1153.74C669.02 1150.71 670.06 1148.19 672.14 1146.2C674.307 1144.12 676.993 1143.08 680.2 1143.08C683.407 1143.08 686.05 1144.12 688.13 1146.2C690.297 1148.19 691.38 1150.71 691.38 1153.74C691.38 1156.77 690.297 1159.33 688.13 1161.41C686.05 1163.4 683.407 1164.4 680.2 1164.4ZM689.17 1172.98V1245H670.97V1172.98H689.17Z" fill="white"></path>
  <path d="M1068.91 1388.38V1376.28L1104.88 1324.8H1122.81V1374.96H1132.49V1388.38H1122.81V1404H1107.41V1388.38H1068.91ZM1108.4 1341.3L1085.85 1374.96H1108.4V1341.3Z" fill="white"></path>
  <path d="M1010.15 1386.62C1017.19 1380.75 1022.8 1375.88 1026.98 1371.99C1031.16 1368.03 1034.64 1363.92 1037.43 1359.67C1040.21 1355.42 1041.61 1351.24 1041.61 1347.13C1041.61 1343.39 1040.73 1340.46 1038.97 1338.33C1037.21 1336.2 1034.49 1335.14 1030.83 1335.14C1027.16 1335.14 1024.34 1336.39 1022.36 1338.88C1020.38 1341.3 1019.35 1344.64 1019.28 1348.89H1004.32C1004.61 1340.09 1007.21 1333.42 1012.13 1328.87C1017.11 1324.32 1023.42 1322.05 1031.05 1322.05C1039.41 1322.05 1045.82 1324.29 1050.3 1328.76C1054.77 1333.16 1057.01 1338.99 1057.01 1346.25C1057.01 1351.97 1055.47 1357.43 1052.39 1362.64C1049.31 1367.85 1045.79 1372.39 1041.83 1376.28C1037.87 1380.09 1032.7 1384.71 1026.32 1390.14H1058.77V1402.9H1004.43V1391.46L1010.15 1386.62Z" fill="white"></path>
  <path d="M933.094 1362.86C933.094 1350.17 935.367 1340.24 939.914 1333.05C944.534 1325.86 952.16 1322.27 962.794 1322.27C973.427 1322.27 981.017 1325.86 985.564 1333.05C990.184 1340.24 992.494 1350.17 992.494 1362.86C992.494 1375.62 990.184 1385.63 985.564 1392.89C981.017 1400.15 973.427 1403.78 962.794 1403.78C952.16 1403.78 944.534 1400.15 939.914 1392.89C935.367 1385.63 933.094 1375.62 933.094 1362.86ZM977.314 1362.86C977.314 1357.43 976.947 1352.89 976.214 1349.22C975.554 1345.48 974.16 1342.44 972.034 1340.09C969.98 1337.74 966.9 1336.57 962.794 1336.57C958.687 1336.57 955.57 1337.74 953.444 1340.09C951.39 1342.44 949.997 1345.48 949.264 1349.22C948.604 1352.89 948.274 1357.43 948.274 1362.86C948.274 1368.43 948.604 1373.13 949.264 1376.94C949.924 1380.68 951.317 1383.72 953.444 1386.07C955.57 1388.34 958.687 1389.48 962.794 1389.48C966.9 1389.48 970.017 1388.34 972.144 1386.07C974.27 1383.72 975.664 1380.68 976.324 1376.94C976.984 1373.13 977.314 1368.43 977.314 1362.86Z" fill="white"></path>
  <path d="M873.67 1386.62C880.71 1380.75 886.32 1375.88 890.5 1371.99C894.68 1368.03 898.163 1363.92 900.95 1359.67C903.737 1355.42 905.13 1351.24 905.13 1347.13C905.13 1343.39 904.25 1340.46 902.49 1338.33C900.73 1336.2 898.017 1335.14 894.35 1335.14C890.683 1335.14 887.86 1336.39 885.88 1338.88C883.9 1341.3 882.873 1344.64 882.8 1348.89H867.84C868.133 1340.09 870.737 1333.42 875.65 1328.87C880.637 1324.32 886.943 1322.05 894.57 1322.05C902.93 1322.05 909.347 1324.29 913.82 1328.76C918.293 1333.16 920.53 1338.99 920.53 1346.25C920.53 1351.97 918.99 1357.43 915.91 1362.64C912.83 1367.85 909.31 1372.39 905.35 1376.28C901.39 1380.09 896.22 1384.71 889.84 1390.14H922.29V1402.9H867.95V1391.46L873.67 1386.62Z" fill="white"></path>
  <path d="M1000 1507.5L1610 1266.5V1365L1000 1595.5V1507.5Z" fill="white"></path>
  <path d="M1000 1507.5L390 1266.5V1365L1000 1595.5V1507.5Z" fill="white"></path>
  <path d="M1000 1635.5L1610 1394.5V1493L1000 1723.5V1635.5Z" fill="white"></path>
  <path d="M1000 1635.5L390 1394.5V1493L1000 1723.5V1635.5Z" fill="white"></path>
  <path d="M1000 1761.5L1610 1520.5V1619L1000 1849.5V1761.5Z" fill="white"></path>
  <path d="M1000 1761.5L390 1520.5V1619L1000 1849.5V1761.5Z" fill="white"></path>
  <path fill-rule="evenodd" clip-rule="evenodd" d="M1024.58 184.426L1119.58 184.425L1119.58 124.425L1014.58 124.426C986.963 124.426 964.577 146.812 964.578 174.426L964.579 352.426L1024.58 352.425L1024.58 184.426Z" fill="white"></path>
  <path d="M947 124.693C947 133.361 945.293 141.943 941.976 149.95C938.659 157.958 933.798 165.234 927.669 171.362C921.54 177.491 914.265 182.353 906.257 185.669C898.25 188.986 889.667 190.693 881 190.693V124.693H947Z" fill="white"></path>
</svg>
