<?xml version="1.0" encoding="UTF-8"?>
<svg xmlns="http://www.w3.org/2000/svg" width="400" height="400" viewBox="0 0 400 400" fill="none">
  <g clip-path="url(#clip0_275_1164)">
    <path fill-rule="evenodd" clip-rule="evenodd" d="M383.602 100.656L200.001 1.81689L16.2016 100.656V299.344L200.101 398.382L383.602 299.345V100.656ZM385.202 300.3V99.7L200.002 0L14.6016 99.7V300.3L200.102 400.2L385.202 300.3Z" fill="white"></path>
    <path fill-rule="evenodd" clip-rule="evenodd" d="M359.202 115.886L199.535 30.9411L40.6016 116.246V285.851L199.61 369.283L359.202 283.462V115.886ZM375.202 293.025V106.275L199.502 12.8L24.6016 106.675V295.525L199.702 387.4L375.202 293.025Z" fill="white"></path>
    <path d="M220.852 55.864C220.852 56.6413 220.669 57.3747 220.302 58.064C219.935 58.7533 219.349 59.318 218.542 59.758C217.735 60.1833 216.701 60.396 215.44 60.396H212.668V66.6H210.16V51.31H215.44C216.613 51.31 217.603 51.5153 218.41 51.926C219.231 52.322 219.84 52.8647 220.236 53.554C220.647 54.2433 220.852 55.0133 220.852 55.864ZM215.44 58.35C216.393 58.35 217.105 58.1373 217.574 57.712C218.043 57.272 218.278 56.656 218.278 55.864C218.278 54.192 217.332 53.356 215.44 53.356H212.668V58.35H215.44Z" fill="white"></path>
    <path d="M199.662 66.754C198.239 66.754 196.926 66.424 195.724 65.764C194.536 65.0893 193.59 64.158 192.886 62.97C192.196 61.7673 191.852 60.418 191.852 58.922C191.852 57.426 192.196 56.084 192.886 54.896C193.59 53.708 194.536 52.784 195.724 52.124C196.926 51.4493 198.239 51.112 199.662 51.112C201.099 51.112 202.412 51.4493 203.6 52.124C204.802 52.784 205.748 53.708 206.438 54.896C207.127 56.084 207.472 57.426 207.472 58.922C207.472 60.418 207.127 61.7673 206.438 62.97C205.748 64.158 204.802 65.0893 203.6 65.764C202.412 66.424 201.099 66.754 199.662 66.754ZM199.662 64.576C200.674 64.576 201.576 64.3487 202.368 63.894C203.16 63.4247 203.776 62.7647 204.216 61.914C204.67 61.0487 204.898 60.0513 204.898 58.922C204.898 57.7927 204.67 56.8027 204.216 55.952C203.776 55.1013 203.16 54.4487 202.368 53.994C201.576 53.5393 200.674 53.312 199.662 53.312C198.65 53.312 197.748 53.5393 196.956 53.994C196.164 54.4487 195.54 55.1013 195.086 55.952C194.646 56.8027 194.426 57.7927 194.426 58.922C194.426 60.0513 194.646 61.0487 195.086 61.914C195.54 62.7647 196.164 63.4247 196.956 63.894C197.748 64.3487 198.65 64.576 199.662 64.576Z" fill="white"></path>
    <path d="M189.928 51.31V53.356H185.858V66.6H183.35V53.356H179.258V51.31H189.928Z" fill="white"></path>
    <path d="M231.49 74.11V76.156H225V80.666H230.06V82.712H225V89.4H222.492V74.11H231.49Z" fill="white"></path>
    <path d="M219.947 74.11V76.156H213.457V80.666H218.517V82.712H213.457V89.4H210.949V74.11H219.947Z" fill="white"></path>
    <path d="M204.604 86.276H198.202L197.102 89.4H194.484L199.962 74.088H202.866L208.344 89.4H205.704L204.604 86.276ZM203.9 84.23L201.414 77.124L198.906 84.23H203.9Z" fill="white"></path>
    <path d="M192.627 74.11V76.156H188.557V89.4H186.049V76.156H181.957V74.11H192.627Z" fill="white"></path>
    <path d="M174.291 89.554C173.264 89.554 172.34 89.378 171.519 89.026C170.698 88.6593 170.052 88.146 169.583 87.486C169.114 86.826 168.879 86.056 168.879 85.176H171.563C171.622 85.836 171.878 86.3787 172.333 86.804C172.802 87.2293 173.455 87.442 174.291 87.442C175.156 87.442 175.831 87.2367 176.315 86.826C176.799 86.4007 177.041 85.858 177.041 85.198C177.041 84.6847 176.887 84.2667 176.579 83.944C176.286 83.6213 175.912 83.372 175.457 83.196C175.017 83.02 174.401 82.8293 173.609 82.624C172.612 82.36 171.798 82.096 171.167 81.832C170.551 81.5533 170.023 81.128 169.583 80.556C169.143 79.984 168.923 79.2213 168.923 78.268C168.923 77.388 169.143 76.618 169.583 75.958C170.023 75.298 170.639 74.792 171.431 74.44C172.223 74.088 173.14 73.912 174.181 73.912C175.662 73.912 176.872 74.286 177.811 75.034C178.764 75.7673 179.292 76.7793 179.395 78.07H176.623C176.579 77.5127 176.315 77.036 175.831 76.64C175.347 76.244 174.709 76.046 173.917 76.046C173.198 76.046 172.612 76.2293 172.157 76.596C171.702 76.9627 171.475 77.4907 171.475 78.18C171.475 78.6493 171.614 79.038 171.893 79.346C172.186 79.6393 172.553 79.874 172.993 80.05C173.433 80.226 174.034 80.4167 174.797 80.622C175.809 80.9007 176.63 81.1793 177.261 81.458C177.906 81.7367 178.449 82.1693 178.889 82.756C179.344 83.328 179.571 84.098 179.571 85.066C179.571 85.8433 179.358 86.5767 178.933 87.266C178.522 87.9553 177.914 88.5127 177.107 88.938C176.315 89.3487 175.376 89.554 174.291 89.554Z" fill="white"></path>
    <path d="M286.199 112.2H283.691L276.145 100.782V112.2H273.637V96.888H276.145L283.691 108.284V96.888H286.199V112.2Z" fill="white"></path>
    <path d="M263.142 112.354C261.719 112.354 260.407 112.024 259.204 111.364C258.016 110.689 257.07 109.758 256.366 108.57C255.677 107.367 255.332 106.018 255.332 104.522C255.332 103.026 255.677 101.684 256.366 100.496C257.07 99.308 258.016 98.384 259.204 97.724C260.407 97.0494 261.719 96.712 263.142 96.712C264.579 96.712 265.892 97.0494 267.08 97.724C268.283 98.384 269.229 99.308 269.918 100.496C270.607 101.684 270.952 103.026 270.952 104.522C270.952 106.018 270.607 107.367 269.918 108.57C269.229 109.758 268.283 110.689 267.08 111.364C265.892 112.024 264.579 112.354 263.142 112.354ZM263.142 110.176C264.154 110.176 265.056 109.949 265.848 109.494C266.64 109.025 267.256 108.365 267.696 107.514C268.151 106.649 268.378 105.651 268.378 104.522C268.378 103.393 268.151 102.403 267.696 101.552C267.256 100.701 266.64 100.049 265.848 99.594C265.056 99.1394 264.154 98.912 263.142 98.912C262.13 98.912 261.228 99.1394 260.436 99.594C259.644 100.049 259.021 100.701 258.566 101.552C258.126 102.403 257.906 103.393 257.906 104.522C257.906 105.651 258.126 106.649 258.566 107.514C259.021 108.365 259.644 109.025 260.436 109.494C261.228 109.949 262.13 110.176 263.142 110.176Z" fill="white"></path>
    <path d="M252.653 96.91V112.2H250.145V96.91H252.653Z" fill="white"></path>
    <path d="M247.385 96.91V98.956H243.315V112.2H240.807V98.956H236.715V96.91H247.385Z" fill="white"></path>
    <path d="M231.167 109.076H224.765L223.665 112.2H221.047L226.525 96.888H229.429L234.907 112.2H232.267L231.167 109.076ZM230.463 107.03L227.977 99.924L225.469 107.03H230.463Z" fill="white"></path>
    <path d="M219.19 96.91V98.956H215.12V112.2H212.612V98.956H208.52V96.91H219.19Z" fill="white"></path>
    <path d="M205.796 112.2H203.288L195.742 100.782V112.2H193.234V96.888H195.742L203.288 108.284V96.888H205.796V112.2Z" fill="white"></path>
    <path d="M183.985 98.934V103.422H189.265V105.468H183.985V110.154H189.925V112.2H181.477V96.888H189.925V98.934H183.985Z" fill="white"></path>
    <path d="M177.959 96.91V112.2H175.451V101.728L170.787 112.2H169.049L164.363 101.728V112.2H161.855V96.91H164.561L169.929 108.9L175.275 96.91H177.959Z" fill="white"></path>
    <path d="M155.687 101.31C155.291 100.547 154.741 99.9754 154.037 99.594C153.333 99.198 152.519 99 151.595 99C150.583 99 149.681 99.2274 148.889 99.682C148.097 100.137 147.474 100.782 147.019 101.618C146.579 102.454 146.359 103.422 146.359 104.522C146.359 105.622 146.579 106.597 147.019 107.448C147.474 108.284 148.097 108.929 148.889 109.384C149.681 109.839 150.583 110.066 151.595 110.066C152.959 110.066 154.066 109.685 154.917 108.922C155.768 108.159 156.288 107.125 156.479 105.82H150.737V103.818H159.163V105.776C159.002 106.964 158.576 108.057 157.887 109.054C157.212 110.051 156.325 110.851 155.225 111.452C154.14 112.039 152.93 112.332 151.595 112.332C150.158 112.332 148.845 112.002 147.657 111.342C146.469 110.667 145.523 109.736 144.819 108.548C144.13 107.36 143.785 106.018 143.785 104.522C143.785 103.026 144.13 101.684 144.819 100.496C145.523 99.308 146.469 98.384 147.657 97.724C148.86 97.0494 150.172 96.712 151.595 96.712C153.223 96.712 154.668 97.1154 155.929 97.922C157.205 98.714 158.129 99.8434 158.701 101.31H155.687Z" fill="white"></path>
    <path d="M131.699 96.91V106.656C131.699 107.815 132 108.687 132.601 109.274C133.217 109.861 134.068 110.154 135.153 110.154C136.253 110.154 137.104 109.861 137.705 109.274C138.321 108.687 138.629 107.815 138.629 106.656V96.91H141.137V106.612C141.137 107.859 140.866 108.915 140.323 109.78C139.781 110.645 139.055 111.291 138.145 111.716C137.236 112.141 136.231 112.354 135.131 112.354C134.031 112.354 133.027 112.141 132.117 111.716C131.223 111.291 130.511 110.645 129.983 109.78C129.455 108.915 129.191 107.859 129.191 106.612V96.91H131.699Z" fill="white"></path>
    <path d="M122.87 109.076H116.468L115.368 112.2H112.75L118.228 96.888H121.132L126.61 112.2H123.97L122.87 109.076ZM122.166 107.03L119.68 99.924L117.172 107.03H122.166Z" fill="white"></path>
    <path d="M255.849 119.71L250.789 129.456V135H248.281V129.456L243.199 119.71H245.993L249.535 127.212L253.077 119.71H255.849Z" fill="white"></path>
    <path d="M241.003 135H238.495L230.949 123.582V135H228.441V119.688H230.949L238.495 131.084V119.688H241.003V135Z" fill="white"></path>
    <path d="M222.1 131.876H215.698L214.598 135H211.98L217.458 119.688H220.362L225.84 135H223.2L222.1 131.876ZM221.396 129.83L218.91 122.724L216.402 129.83H221.396Z" fill="white"></path>
    <path d="M210.27 124.264C210.27 125.041 210.087 125.775 209.72 126.464C209.353 127.153 208.767 127.718 207.96 128.158C207.153 128.583 206.119 128.796 204.858 128.796H202.086V135H199.578V119.71H204.858C206.031 119.71 207.021 119.915 207.828 120.326C208.649 120.722 209.258 121.265 209.654 121.954C210.065 122.643 210.27 123.413 210.27 124.264ZM204.858 126.75C205.811 126.75 206.523 126.537 206.992 126.112C207.461 125.672 207.696 125.056 207.696 124.264C207.696 122.592 206.75 121.756 204.858 121.756H202.086V126.75H204.858Z" fill="white"></path>
    <path d="M196.061 119.71V135H193.553V124.528L188.889 135H187.151L182.465 124.528V135H179.957V119.71H182.663L188.031 131.7L193.377 119.71H196.061Z" fill="white"></path>
    <path d="M169.458 135.154C168.036 135.154 166.723 134.824 165.52 134.164C164.332 133.489 163.386 132.558 162.682 131.37C161.993 130.167 161.648 128.818 161.648 127.322C161.648 125.826 161.993 124.484 162.682 123.296C163.386 122.108 164.332 121.184 165.52 120.524C166.723 119.849 168.036 119.512 169.458 119.512C170.896 119.512 172.208 119.849 173.396 120.524C174.599 121.184 175.545 122.108 176.234 123.296C176.924 124.484 177.268 125.826 177.268 127.322C177.268 128.818 176.924 130.167 176.234 131.37C175.545 132.558 174.599 133.489 173.396 134.164C172.208 134.824 170.896 135.154 169.458 135.154ZM169.458 132.976C170.47 132.976 171.372 132.749 172.164 132.294C172.956 131.825 173.572 131.165 174.012 130.314C174.467 129.449 174.694 128.451 174.694 127.322C174.694 126.193 174.467 125.203 174.012 124.352C173.572 123.501 172.956 122.849 172.164 122.394C171.372 121.939 170.47 121.712 169.458 121.712C168.446 121.712 167.544 121.939 166.752 122.394C165.96 122.849 165.337 123.501 164.882 124.352C164.442 125.203 164.222 126.193 164.222 127.322C164.222 128.451 164.442 129.449 164.882 130.314C165.337 131.165 165.96 131.825 166.752 132.294C167.544 132.749 168.446 132.976 169.458 132.976Z" fill="white"></path>
    <path d="M144.414 127.322C144.414 125.826 144.759 124.484 145.448 123.296C146.152 122.108 147.098 121.184 148.286 120.524C149.489 119.849 150.801 119.512 152.224 119.512C153.852 119.512 155.297 119.915 156.558 120.722C157.834 121.514 158.758 122.643 159.33 124.11H156.316C155.92 123.303 155.37 122.702 154.666 122.306C153.962 121.91 153.148 121.712 152.224 121.712C151.212 121.712 150.31 121.939 149.518 122.394C148.726 122.849 148.103 123.501 147.648 124.352C147.208 125.203 146.988 126.193 146.988 127.322C146.988 128.451 147.208 129.441 147.648 130.292C148.103 131.143 148.726 131.803 149.518 132.272C150.31 132.727 151.212 132.954 152.224 132.954C153.148 132.954 153.962 132.756 154.666 132.36C155.37 131.964 155.92 131.363 156.316 130.556H159.33C158.758 132.023 157.834 133.152 156.558 133.944C155.297 134.736 153.852 135.132 152.224 135.132C150.787 135.132 149.474 134.802 148.286 134.142C147.098 133.467 146.152 132.536 145.448 131.348C144.759 130.16 144.414 128.818 144.414 127.322Z" fill="white"></path>
    <path d="M251.921 285.076H245.519L244.419 288.2H241.801L247.279 272.888H250.183L255.661 288.2H253.021L251.921 285.076ZM251.217 283.03L248.731 275.924L246.223 283.03H251.217Z" fill="white"></path>
    <path d="M239.188 272.91V288.2H236.68V272.91H239.188Z" fill="white"></path>
    <path d="M233.167 288.2H230.659L223.113 276.782V288.2H220.605V272.888H223.113L230.659 284.284V272.888H233.167V288.2Z" fill="white"></path>
    <path d="M214.265 285.076H207.863L206.763 288.2H204.145L209.623 272.888H212.527L218.005 288.2H215.365L214.265 285.076ZM213.561 283.03L211.075 275.924L208.567 283.03H213.561Z" fill="white"></path>
    <path d="M192.121 272.91V282.656C192.121 283.815 192.422 284.687 193.023 285.274C193.639 285.861 194.49 286.154 195.575 286.154C196.675 286.154 197.526 285.861 198.127 285.274C198.743 284.687 199.051 283.815 199.051 282.656V272.91H201.559V282.612C201.559 283.859 201.288 284.915 200.745 285.78C200.203 286.645 199.477 287.291 198.567 287.716C197.658 288.141 196.653 288.354 195.553 288.354C194.453 288.354 193.449 288.141 192.539 287.716C191.645 287.291 190.933 286.645 190.405 285.78C189.877 284.915 189.613 283.859 189.613 282.612V272.91H192.121Z" fill="white"></path>
    <path d="M186.112 272.91V288.2H183.604V281.512H176.41V288.2H173.902V272.91H176.41V279.466H183.604V272.91H186.112Z" fill="white"></path>
    <path d="M171.143 272.91V274.956H167.073V288.2H164.565V274.956H160.473V272.91H171.143Z" fill="white"></path>
    <path d="M157.754 272.91V288.2H155.246V272.91H157.754Z" fill="white"></path>
    <path d="M147.758 286.176H152.928V288.2H145.25V272.91H147.758V286.176Z" fill="white"></path>
    <path d="M224.61 307.118H217.24V311.496C217.548 311.085 218.003 310.741 218.604 310.462C219.22 310.183 219.873 310.044 220.562 310.044C221.794 310.044 222.791 310.308 223.554 310.836C224.331 311.364 224.881 312.031 225.204 312.838C225.541 313.645 225.71 314.495 225.71 315.39C225.71 316.475 225.497 317.443 225.072 318.294C224.661 319.13 224.038 319.79 223.202 320.274C222.381 320.758 221.369 321 220.166 321C218.567 321 217.284 320.604 216.316 319.812C215.348 319.02 214.769 317.971 214.578 316.666H217.02C217.181 317.355 217.541 317.905 218.098 318.316C218.655 318.712 219.352 318.91 220.188 318.91C221.229 318.91 222.007 318.595 222.52 317.964C223.048 317.333 223.312 316.497 223.312 315.456C223.312 314.4 223.048 313.593 222.52 313.036C221.992 312.464 221.215 312.178 220.188 312.178C219.469 312.178 218.861 312.361 218.362 312.728C217.878 313.08 217.526 313.564 217.306 314.18H214.93V304.918H224.61V307.118Z" fill="white"></path>
    <path d="M202.739 317.59C204.147 316.373 205.254 315.375 206.061 314.598C206.882 313.806 207.564 312.985 208.107 312.134C208.649 311.283 208.921 310.433 208.921 309.582C208.921 308.702 208.708 308.013 208.283 307.514C207.872 307.015 207.219 306.766 206.325 306.766C205.459 306.766 204.785 307.045 204.301 307.602C203.831 308.145 203.582 308.878 203.553 309.802H201.133C201.177 308.13 201.675 306.854 202.629 305.974C203.597 305.079 204.821 304.632 206.303 304.632C207.901 304.632 209.148 305.072 210.043 305.952C210.952 306.832 211.407 308.005 211.407 309.472C211.407 310.528 211.135 311.547 210.593 312.53C210.065 313.498 209.427 314.371 208.679 315.148C207.945 315.911 207.007 316.798 205.863 317.81L204.873 318.69H211.847V320.78H201.155V318.954L202.739 317.59Z" fill="white"></path>
    <path d="M187.039 312.772C187.039 310.235 187.464 308.255 188.315 306.832C189.18 305.395 190.662 304.676 192.759 304.676C194.856 304.676 196.33 305.395 197.181 306.832C198.046 308.255 198.479 310.235 198.479 312.772C198.479 315.339 198.046 317.348 197.181 318.8C196.33 320.237 194.856 320.956 192.759 320.956C190.662 320.956 189.18 320.237 188.315 318.8C187.464 317.348 187.039 315.339 187.039 312.772ZM196.015 312.772C196.015 311.584 195.934 310.579 195.773 309.758C195.626 308.937 195.318 308.269 194.849 307.756C194.38 307.228 193.683 306.964 192.759 306.964C191.835 306.964 191.138 307.228 190.669 307.756C190.2 308.269 189.884 308.937 189.723 309.758C189.576 310.579 189.503 311.584 189.503 312.772C189.503 314.004 189.576 315.038 189.723 315.874C189.87 316.71 190.178 317.385 190.647 317.898C191.131 318.411 191.835 318.668 192.759 318.668C193.683 318.668 194.38 318.411 194.849 317.898C195.333 317.385 195.648 316.71 195.795 315.874C195.942 315.038 196.015 314.004 196.015 312.772Z" fill="white"></path>
    <path d="M175.508 317.59C176.916 316.373 178.024 315.375 178.83 314.598C179.652 313.806 180.334 312.985 180.876 312.134C181.419 311.283 181.69 310.433 181.69 309.582C181.69 308.702 181.478 308.013 181.052 307.514C180.642 307.015 179.989 306.766 179.094 306.766C178.229 306.766 177.554 307.045 177.07 307.602C176.601 308.145 176.352 308.878 176.322 309.802H173.902C173.946 308.13 174.445 306.854 175.398 305.974C176.366 305.079 177.591 304.632 179.072 304.632C180.671 304.632 181.918 305.072 182.812 305.952C183.722 306.832 184.176 308.005 184.176 309.472C184.176 310.528 183.905 311.547 183.362 312.53C182.834 313.498 182.196 314.371 181.448 315.148C180.715 315.911 179.776 316.798 178.632 317.81L177.642 318.69H184.616V320.78H173.924V318.954L175.508 317.59Z" fill="white"></path>
    <path fill-rule="evenodd" clip-rule="evenodd" d="M360.803 154H40.2031V244.8H360.803V154ZM110.237 189.208C108.482 192.232 107.605 195.648 107.605 199.456C107.605 203.264 108.482 206.68 110.237 209.704C112.029 212.728 114.437 215.099 117.461 216.816C120.485 218.496 123.826 219.336 127.485 219.336C131.629 219.336 135.306 218.328 138.517 216.312C141.765 214.296 144.117 211.421 145.573 207.688H137.901C136.893 209.741 135.493 211.272 133.701 212.28C131.909 213.288 129.837 213.792 127.485 213.792C124.909 213.792 122.613 213.213 120.597 212.056C118.581 210.861 116.994 209.181 115.837 207.016C114.717 204.851 114.157 202.331 114.157 199.456C114.157 196.581 114.717 194.061 115.837 191.896C116.994 189.731 118.581 188.069 120.597 186.912C122.613 185.755 124.909 185.176 127.485 185.176C129.837 185.176 131.909 185.68 133.701 186.688C135.493 187.696 136.893 189.227 137.901 191.28H145.573C144.117 187.547 141.765 184.672 138.517 182.656C135.306 180.603 131.629 179.576 127.485 179.576C123.864 179.576 120.522 180.435 117.461 182.152C114.437 183.832 112.029 186.184 110.237 189.208ZM159.989 219V177.56H153.605V219H159.989ZM196.875 219V188.144H190.491V205.336C190.491 208.099 189.782 210.227 188.363 211.72C186.982 213.176 185.096 213.904 182.707 213.904C180.318 213.904 178.432 213.176 177.051 211.72C175.67 210.227 174.979 208.099 174.979 205.336V188.144H168.651V206.288C168.651 209.088 169.192 211.477 170.275 213.456C171.395 215.435 172.907 216.928 174.811 217.936C176.752 218.944 178.936 219.448 181.363 219.448C183.192 219.448 184.91 219.093 186.515 218.384C188.158 217.637 189.483 216.629 190.491 215.36V219H196.875ZM213.306 210.432V193.352H220.81V188.144H213.306V180.472H206.866V188.144H203.226V193.352H206.866V210.432C206.866 213.456 207.632 215.64 209.162 216.984C210.693 218.328 212.896 219 215.77 219H220.81V213.68H216.89C215.584 213.68 214.65 213.437 214.09 212.952C213.568 212.429 213.306 211.589 213.306 210.432ZM227.03 195.2C225.761 197.589 225.126 200.371 225.126 203.544C225.126 206.717 225.761 209.517 227.03 211.944C228.337 214.333 230.129 216.2 232.406 217.544C234.684 218.851 237.297 219.504 240.246 219.504C243.905 219.504 246.966 218.589 249.43 216.76C251.894 214.893 253.574 212.392 254.47 209.256H247.582C246.388 212.504 243.942 214.128 240.246 214.128C237.633 214.128 235.542 213.195 233.974 211.328C232.444 209.461 231.678 206.867 231.678 203.544C231.678 200.221 232.444 197.645 233.974 195.816C235.542 193.949 237.633 193.016 240.246 193.016C242.113 193.016 243.662 193.445 244.894 194.304C246.126 195.163 247.022 196.357 247.582 197.888H254.47C253.612 194.603 251.95 192.083 249.486 190.328C247.06 188.536 243.98 187.64 240.246 187.64C237.297 187.64 234.684 188.293 232.406 189.6C230.129 190.907 228.337 192.773 227.03 195.2ZM283.624 189.152C281.795 188.144 279.704 187.64 277.352 187.64C275.374 187.64 273.544 187.995 271.864 188.704C270.222 189.413 268.859 190.421 267.776 191.728V177.56H261.392V219H267.776V201.752C267.776 198.989 268.467 196.88 269.848 195.424C271.267 193.931 273.171 193.184 275.56 193.184C277.95 193.184 279.835 193.931 281.216 195.424C282.598 196.88 283.288 198.989 283.288 201.752V219H289.616V200.8C289.616 198 289.075 195.611 287.992 193.632C286.947 191.653 285.491 190.16 283.624 189.152Z" fill="white"></path>
    <path fill-rule="evenodd" clip-rule="evenodd" d="M331.803 145.6H68.2031V144.4H331.803V145.6Z" fill="white" fill-opacity="0.6"></path>
    <path fill-rule="evenodd" clip-rule="evenodd" d="M331.803 255.6H68.2031V254.4H331.803V255.6Z" fill="white" fill-opacity="0.6"></path>
  </g>
  <defs>
    <clipPath id="clip0_275_1164">
      <rect width="400" height="400" fill="white"></rect>
    </clipPath>
  </defs>
</svg>
